<?xml version="1.0" encoding="utf-8" standalone="no"?>
<!DOCTYPE svg PUBLIC "-//W3C//DTD SVG 1.1//EN"
  "http://www.w3.org/Graphics/SVG/1.1/DTD/svg11.dtd">
<svg xmlns:xlink="http://www.w3.org/1999/xlink" width="864pt" height="576pt" viewBox="0 0 864 576" xmlns="http://www.w3.org/2000/svg" version="1.1">
 <metadata>
  <rdf:RDF xmlns:dc="http://purl.org/dc/elements/1.1/" xmlns:cc="http://creativecommons.org/ns#" xmlns:rdf="http://www.w3.org/1999/02/22-rdf-syntax-ns#">
   <cc:Work>
    <dc:type rdf:resource="http://purl.org/dc/dcmitype/StillImage"/>
    <dc:date>2025-02-20T22:29:22.663277</dc:date>
    <dc:format>image/svg+xml</dc:format>
    <dc:creator>
     <cc:Agent>
      <dc:title>Matplotlib v3.8.4, https://matplotlib.org/</dc:title>
     </cc:Agent>
    </dc:creator>
   </cc:Work>
  </rdf:RDF>
 </metadata>
 <defs>
  <style type="text/css">*{stroke-linejoin: round; stroke-linecap: butt}</style>
 </defs>
 <g id="figure_1">
  <g id="patch_1">
   <path d="M 0 576 
L 864 576 
L 864 0 
L 0 0 
z
" style="fill: #ffffff"/>
  </g>
  <g id="axes_1">
   <g id="patch_2">
    <path d="M 51.8 530.2 
L 853.2 530.2 
L 853.2 28.8 
L 51.8 28.8 
z
" style="fill: #ffffff"/>
   </g>
   <g id="PolyCollection_1">
    <defs>
     <path id="m52ce9eb3bf" d="M 88.227273 -362.590448 
L 88.227273 -68.590909 
L 91.963403 -68.590909 
L 95.699534 -68.590909 
L 99.435664 -68.590909 
L 103.171795 -68.590909 
L 106.907925 -68.590909 
L 110.644056 -68.590909 
L 114.380186 -68.590909 
L 118.116317 -68.590909 
L 121.852448 -68.590909 
L 125.588578 -68.590909 
L 129.324709 -68.590909 
L 133.060839 -68.590909 
L 136.79697 -68.590909 
L 140.5331 -68.590909 
L 144.269231 -68.590909 
L 148.005361 -68.590909 
L 151.741492 -68.590909 
L 155.477622 -68.590909 
L 159.213753 -68.590909 
L 162.949883 -68.590909 
L 166.686014 -68.590909 
L 170.422145 -68.590909 
L 174.158275 -68.590909 
L 177.894406 -68.590909 
L 181.630536 -68.590909 
L 185.366667 -68.590909 
L 189.102797 -68.590909 
L 192.838928 -68.590909 
L 196.575058 -68.590909 
L 200.311189 -68.590909 
L 204.047319 -68.590909 
L 207.78345 -68.590909 
L 211.51958 -68.590909 
L 215.255711 -68.590909 
L 218.991841 -68.590909 
L 222.727972 -68.590909 
L 226.464103 -68.590909 
L 230.200233 -68.590909 
L 233.936364 -68.590909 
L 237.672494 -68.590909 
L 241.408625 -68.590909 
L 245.144755 -68.590909 
L 248.880886 -68.590909 
L 252.617016 -68.590909 
L 256.353147 -68.590909 
L 260.089277 -68.590909 
L 263.825408 -68.590909 
L 267.561538 -68.590909 
L 271.297669 -68.590909 
L 275.0338 -68.590909 
L 278.76993 -68.590909 
L 282.506061 -68.590909 
L 286.242191 -68.590909 
L 289.978322 -68.590909 
L 293.714452 -68.590909 
L 297.450583 -68.590909 
L 301.186713 -68.590909 
L 304.922844 -68.590909 
L 308.658974 -68.590909 
L 312.395105 -68.590909 
L 316.131235 -68.590909 
L 319.867366 -68.590909 
L 323.603497 -68.590909 
L 327.339627 -68.590909 
L 331.075758 -68.590909 
L 334.811888 -68.590909 
L 338.548019 -68.590909 
L 342.284149 -68.590909 
L 346.02028 -68.590909 
L 349.75641 -68.590909 
L 353.492541 -68.590909 
L 357.228671 -68.590909 
L 360.964802 -68.590909 
L 364.700932 -68.590909 
L 368.437063 -68.590909 
L 372.173193 -68.590909 
L 375.909324 -68.590909 
L 379.645455 -68.590909 
L 383.381585 -68.590909 
L 387.117716 -68.590909 
L 390.853846 -68.590909 
L 394.589977 -68.590909 
L 398.326107 -68.590909 
L 402.062238 -68.590909 
L 405.798368 -68.590909 
L 409.534499 -68.590909 
L 413.270629 -68.590909 
L 417.00676 -68.590909 
L 420.74289 -68.590909 
L 424.479021 -68.590909 
L 428.215152 -68.590909 
L 431.951282 -68.590909 
L 435.687413 -68.590909 
L 439.423543 -68.590909 
L 443.159674 -68.590909 
L 446.895804 -68.590909 
L 450.631935 -68.590909 
L 454.368065 -68.590909 
L 458.104196 -68.590909 
L 461.840326 -68.590909 
L 465.576457 -68.590909 
L 469.312587 -68.590909 
L 473.048718 -68.590909 
L 476.784848 -68.590909 
L 480.520979 -68.590909 
L 484.25711 -68.590909 
L 487.99324 -68.590909 
L 491.729371 -68.590909 
L 495.465501 -68.590909 
L 499.201632 -68.590909 
L 502.937762 -68.590909 
L 506.673893 -68.590909 
L 510.410023 -68.590909 
L 514.146154 -68.590909 
L 517.882284 -68.590909 
L 521.618415 -68.590909 
L 525.354545 -68.590909 
L 529.090676 -68.590909 
L 532.826807 -68.590909 
L 536.562937 -68.590909 
L 540.299068 -68.590909 
L 544.035198 -68.590909 
L 547.771329 -68.590909 
L 551.507459 -68.590909 
L 555.24359 -68.590909 
L 558.97972 -68.590909 
L 562.715851 -68.590909 
L 566.451981 -68.590909 
L 570.188112 -68.590909 
L 573.924242 -68.590909 
L 577.660373 -68.590909 
L 581.396503 -68.590909 
L 585.132634 -68.590909 
L 588.868765 -68.590909 
L 592.604895 -68.590909 
L 596.341026 -68.590909 
L 600.077156 -68.590909 
L 603.813287 -68.590909 
L 607.549417 -68.590909 
L 611.285548 -68.590909 
L 615.021678 -68.590909 
L 618.757809 -68.590909 
L 622.493939 -68.590909 
L 626.23007 -68.590909 
L 629.9662 -68.590909 
L 633.702331 -68.590909 
L 637.438462 -68.590909 
L 641.174592 -68.590909 
L 644.910723 -68.590909 
L 648.646853 -68.590909 
L 652.382984 -68.590909 
L 656.119114 -68.590909 
L 659.855245 -68.590909 
L 663.591375 -68.590909 
L 667.327506 -68.590909 
L 671.063636 -68.590909 
L 674.799767 -68.590909 
L 678.535897 -68.590909 
L 682.272028 -68.590909 
L 686.008159 -68.590909 
L 689.744289 -68.590909 
L 693.48042 -68.590909 
L 697.21655 -68.590909 
L 700.952681 -68.590909 
L 704.688811 -68.590909 
L 708.424942 -68.590909 
L 712.161072 -68.590909 
L 715.897203 -68.590909 
L 719.633333 -68.590909 
L 723.369464 -68.590909 
L 727.105594 -68.590909 
L 730.841725 -68.590909 
L 734.577855 -68.590909 
L 738.313986 -68.590909 
L 742.050117 -68.590909 
L 745.786247 -68.590909 
L 749.522378 -68.590909 
L 753.258508 -68.590909 
L 756.994639 -68.590909 
L 760.730769 -68.590909 
L 764.4669 -68.590909 
L 768.20303 -68.590909 
L 771.939161 -68.590909 
L 775.675291 -68.590909 
L 779.411422 -68.590909 
L 783.147552 -68.590909 
L 786.883683 -68.590909 
L 790.619814 -68.590909 
L 794.355944 -68.590909 
L 798.092075 -68.590909 
L 801.828205 -68.590909 
L 805.564336 -68.590909 
L 809.300466 -68.590909 
L 813.036597 -68.590909 
L 816.772727 -68.590909 
L 816.772727 -79.627226 
L 816.772727 -79.627226 
L 813.036597 -79.6758 
L 809.300466 -79.724491 
L 805.564336 -79.773645 
L 801.828205 -79.823625 
L 798.092075 -79.873732 
L 794.355944 -79.924324 
L 790.619814 -79.975772 
L 786.883683 -80.02736 
L 783.147552 -80.079455 
L 779.411422 -80.132439 
L 775.675291 -80.185576 
L 771.939161 -80.239244 
L 768.20303 -80.293835 
L 764.4669 -80.348594 
L 760.730769 -80.403908 
L 756.994639 -80.460182 
L 753.258508 -80.51664 
L 749.522378 -80.57368 
L 745.786247 -80.631718 
L 742.050117 -80.689956 
L 738.313986 -80.748805 
L 734.577855 -80.808694 
L 730.841725 -80.868801 
L 727.105594 -80.929549 
L 723.369464 -80.99138 
L 719.633333 -81.053449 
L 715.897203 -81.116191 
L 712.161072 -81.180064 
L 708.424942 -81.244194 
L 704.688811 -81.309033 
L 700.952681 -81.375052 
L 697.21655 -81.441351 
L 693.48042 -81.508396 
L 689.744289 -81.576673 
L 686.008159 -81.645255 
L 682.272028 -81.714624 
L 678.535897 -81.785281 
L 674.799767 -81.856269 
L 671.063636 -81.928086 
L 667.327506 -82.001252 
L 663.591375 -82.074778 
L 659.855245 -82.149179 
L 656.119114 -82.224994 
L 652.382984 -82.3012 
L 648.646853 -82.37833 
L 644.910723 -82.456943 
L 641.174592 -82.535981 
L 637.438462 -82.615998 
L 633.702331 -82.69757 
L 629.9662 -82.779606 
L 626.23007 -82.862677 
L 622.493939 -82.947383 
L 618.757809 -83.032594 
L 615.021678 -83.118903 
L 611.285548 -83.206931 
L 607.549417 -83.29551 
L 603.813287 -83.385253 
L 600.077156 -83.476808 
L 596.341026 -83.568962 
L 592.604895 -83.662355 
L 588.868765 -83.757657 
L 585.132634 -83.853613 
L 581.396503 -83.950887 
L 577.660373 -84.050178 
L 573.924242 -84.150182 
L 570.188112 -84.25159 
L 566.451981 -84.355131 
L 562.715851 -84.45945 
L 558.97972 -84.565268 
L 555.24359 -84.673345 
L 551.507459 -84.782271 
L 547.771329 -84.892799 
L 544.035198 -85.005723 
L 540.299068 -85.119577 
L 536.562937 -85.235145 
L 532.826807 -85.353257 
L 529.090676 -85.472388 
L 525.354545 -85.593356 
L 521.618415 -85.717032 
L 517.882284 -85.841823 
L 514.146154 -85.968589 
L 510.410023 -86.09824 
L 506.673893 -86.229116 
L 502.937762 -86.362116 
L 499.201632 -86.498196 
L 495.465501 -86.635622 
L 491.729371 -86.775338 
L 487.99324 -86.918349 
L 484.25711 -87.062842 
L 480.520979 -87.20981 
L 476.784848 -87.360308 
L 473.048718 -87.51244 
L 469.312587 -87.667251 
L 465.576457 -87.825854 
L 461.840326 -87.986262 
L 458.104196 -88.149576 
L 454.368065 -88.316972 
L 450.631935 -88.486367 
L 446.895804 -88.658922 
L 443.159674 -88.835881 
L 439.423543 -89.015057 
L 435.687413 -89.197678 
L 431.951282 -89.385064 
L 428.215152 -89.574913 
L 424.479021 -89.768529 
L 420.74289 -89.967313 
L 417.00676 -90.168841 
L 413.270629 -90.374499 
L 409.534499 -90.585779 
L 405.798368 -90.800124 
L 402.062238 -91.019011 
L 398.326107 -91.244031 
L 394.589977 -91.472486 
L 390.853846 -91.70595 
L 387.117716 -91.946128 
L 383.381585 -92.190166 
L 379.645455 -92.439749 
L 375.909324 -92.696707 
L 372.173193 -92.958017 
L 368.437063 -93.225488 
L 364.700932 -93.501092 
L 360.964802 -93.781618 
L 357.228671 -94.069018 
L 353.492541 -94.365422 
L 349.75641 -94.667416 
L 346.02028 -94.977113 
L 342.284149 -95.29682 
L 338.548019 -95.622905 
L 334.811888 -95.957659 
L 331.075758 -96.303598 
L 327.339627 -96.656846 
L 323.603497 -97.019901 
L 319.867366 -97.395517 
L 316.131235 -97.77955 
L 312.395105 -98.174739 
L 308.658974 -98.584116 
L 304.922844 -99.003241 
L 301.186713 -99.435133 
L 297.450583 -99.883148 
L 293.714452 -100.342521 
L 289.978322 -100.816604 
L 286.242191 -101.309132 
L 282.506061 -101.814986 
L 278.76993 -102.33791 
L 275.0338 -102.882097 
L 271.297669 -103.442036 
L 267.561538 -104.021944 
L 263.825408 -104.62657 
L 260.089277 -105.249973 
L 256.353147 -105.896947 
L 252.617016 -106.572925 
L 248.880886 -107.271497 
L 245.144755 -107.998176 
L 241.408625 -108.759246 
L 237.672494 -109.547796 
L 233.936364 -110.370248 
L 230.200233 -111.233965 
L 226.464103 -112.131514 
L 222.727972 -113.070486 
L 218.991841 -114.059651 
L 215.255711 -115.091053 
L 211.51958 -116.173832 
L 207.78345 -117.318624 
L 204.047319 -118.51701 
L 200.311189 -119.780227 
L 196.575058 -121.121477 
L 192.838928 -122.532031 
L 189.102797 -124.026079 
L 185.366667 -125.620456 
L 181.630536 -127.306499 
L 177.894406 -129.102708 
L 174.158275 -131.031286 
L 170.422145 -133.084455 
L 166.686014 -135.287316 
L 162.949883 -137.67041 
L 159.213753 -140.228609 
L 155.477622 -142.99774 
L 151.741492 -146.022106 
L 148.005361 -149.303174 
L 144.269231 -152.895497 
L 140.5331 -156.86794 
L 136.79697 -161.237872 
L 133.060839 -166.095737 
L 129.324709 -171.558885 
L 125.588578 -177.684684 
L 121.852448 -184.641436 
L 118.116317 -192.656194 
L 114.380186 -201.898052 
L 110.644056 -212.736158 
L 106.907925 -225.699599 
L 103.171795 -241.334038 
L 99.435664 -260.682531 
L 95.699534 -285.407224 
L 91.963403 -317.837955 
L 88.227273 -362.590448 
z
" style="stroke: #87ceeb; stroke-opacity: 0.6"/>
    </defs>
    <g clip-path="url(#p9a3cd3f4ff)">
     <use xlink:href="#m52ce9eb3bf" x="0" y="576" style="fill: #87ceeb; fill-opacity: 0.6; stroke: #87ceeb; stroke-opacity: 0.6"/>
    </g>
   </g>
   <g id="PolyCollection_2">
    <defs>
     <path id="mb6fc20e65f" d="M 88.227273 -524.409091 
L 88.227273 -362.590448 
L 91.963403 -317.837955 
L 95.699534 -285.407224 
L 99.435664 -260.682531 
L 103.171795 -241.334038 
L 106.907925 -225.699599 
L 110.644056 -212.736158 
L 114.380186 -201.898052 
L 118.116317 -192.656194 
L 121.852448 -184.641436 
L 125.588578 -177.684684 
L 129.324709 -171.558885 
L 133.060839 -166.095737 
L 136.79697 -161.237872 
L 140.5331 -156.86794 
L 144.269231 -152.895497 
L 148.005361 -149.303174 
L 151.741492 -146.022106 
L 155.477622 -142.99774 
L 159.213753 -140.228609 
L 162.949883 -137.67041 
L 166.686014 -135.287316 
L 170.422145 -133.084455 
L 174.158275 -131.031286 
L 177.894406 -129.102708 
L 181.630536 -127.306499 
L 185.366667 -125.620456 
L 189.102797 -124.026079 
L 192.838928 -122.532031 
L 196.575058 -121.121477 
L 200.311189 -119.780227 
L 204.047319 -118.51701 
L 207.78345 -117.318624 
L 211.51958 -116.173832 
L 215.255711 -115.091053 
L 218.991841 -114.059651 
L 222.727972 -113.070486 
L 226.464103 -112.131514 
L 230.200233 -111.233965 
L 233.936364 -110.370248 
L 237.672494 -109.547796 
L 241.408625 -108.759246 
L 245.144755 -107.998176 
L 248.880886 -107.271497 
L 252.617016 -106.572925 
L 256.353147 -105.896947 
L 260.089277 -105.249973 
L 263.825408 -104.62657 
L 267.561538 -104.021944 
L 271.297669 -103.442036 
L 275.0338 -102.882097 
L 278.76993 -102.33791 
L 282.506061 -101.814986 
L 286.242191 -101.309132 
L 289.978322 -100.816604 
L 293.714452 -100.342521 
L 297.450583 -99.883148 
L 301.186713 -99.435133 
L 304.922844 -99.003241 
L 308.658974 -98.584116 
L 312.395105 -98.174739 
L 316.131235 -97.77955 
L 319.867366 -97.395517 
L 323.603497 -97.019901 
L 327.339627 -96.656846 
L 331.075758 -96.303598 
L 334.811888 -95.957659 
L 338.548019 -95.622905 
L 342.284149 -95.29682 
L 346.02028 -94.977113 
L 349.75641 -94.667416 
L 353.492541 -94.365422 
L 357.228671 -94.069018 
L 360.964802 -93.781618 
L 364.700932 -93.501092 
L 368.437063 -93.225488 
L 372.173193 -92.958017 
L 375.909324 -92.696707 
L 379.645455 -92.439749 
L 383.381585 -92.190166 
L 387.117716 -91.946128 
L 390.853846 -91.70595 
L 394.589977 -91.472486 
L 398.326107 -91.244031 
L 402.062238 -91.019011 
L 405.798368 -90.800124 
L 409.534499 -90.585779 
L 413.270629 -90.374499 
L 417.00676 -90.168841 
L 420.74289 -89.967313 
L 424.479021 -89.768529 
L 428.215152 -89.574913 
L 431.951282 -89.385064 
L 435.687413 -89.197678 
L 439.423543 -89.015057 
L 443.159674 -88.835881 
L 446.895804 -88.658922 
L 450.631935 -88.486367 
L 454.368065 -88.316972 
L 458.104196 -88.149576 
L 461.840326 -87.986262 
L 465.576457 -87.825854 
L 469.312587 -87.667251 
L 473.048718 -87.51244 
L 476.784848 -87.360308 
L 480.520979 -87.20981 
L 484.25711 -87.062842 
L 487.99324 -86.918349 
L 491.729371 -86.775338 
L 495.465501 -86.635622 
L 499.201632 -86.498196 
L 502.937762 -86.362116 
L 506.673893 -86.229116 
L 510.410023 -86.09824 
L 514.146154 -85.968589 
L 517.882284 -85.841823 
L 521.618415 -85.717032 
L 525.354545 -85.593356 
L 529.090676 -85.472388 
L 532.826807 -85.353257 
L 536.562937 -85.235145 
L 540.299068 -85.119577 
L 544.035198 -85.005723 
L 547.771329 -84.892799 
L 551.507459 -84.782271 
L 555.24359 -84.673345 
L 558.97972 -84.565268 
L 562.715851 -84.45945 
L 566.451981 -84.355131 
L 570.188112 -84.25159 
L 573.924242 -84.150182 
L 577.660373 -84.050178 
L 581.396503 -83.950887 
L 585.132634 -83.853613 
L 588.868765 -83.757657 
L 592.604895 -83.662355 
L 596.341026 -83.568962 
L 600.077156 -83.476808 
L 603.813287 -83.385253 
L 607.549417 -83.29551 
L 611.285548 -83.206931 
L 615.021678 -83.118903 
L 618.757809 -83.032594 
L 622.493939 -82.947383 
L 626.23007 -82.862677 
L 629.9662 -82.779606 
L 633.702331 -82.69757 
L 637.438462 -82.615998 
L 641.174592 -82.535981 
L 644.910723 -82.456943 
L 648.646853 -82.37833 
L 652.382984 -82.3012 
L 656.119114 -82.224994 
L 659.855245 -82.149179 
L 663.591375 -82.074778 
L 667.327506 -82.001252 
L 671.063636 -81.928086 
L 674.799767 -81.856269 
L 678.535897 -81.785281 
L 682.272028 -81.714624 
L 686.008159 -81.645255 
L 689.744289 -81.576673 
L 693.48042 -81.508396 
L 697.21655 -81.441351 
L 700.952681 -81.375052 
L 704.688811 -81.309033 
L 708.424942 -81.244194 
L 712.161072 -81.180064 
L 715.897203 -81.116191 
L 719.633333 -81.053449 
L 723.369464 -80.99138 
L 727.105594 -80.929549 
L 730.841725 -80.868801 
L 734.577855 -80.808694 
L 738.313986 -80.748805 
L 742.050117 -80.689956 
L 745.786247 -80.631718 
L 749.522378 -80.57368 
L 753.258508 -80.51664 
L 756.994639 -80.460182 
L 760.730769 -80.403908 
L 764.4669 -80.348594 
L 768.20303 -80.293835 
L 771.939161 -80.239244 
L 775.675291 -80.185576 
L 779.411422 -80.132439 
L 783.147552 -80.079455 
L 786.883683 -80.02736 
L 790.619814 -79.975772 
L 794.355944 -79.924324 
L 798.092075 -79.873732 
L 801.828205 -79.823625 
L 805.564336 -79.773645 
L 809.300466 -79.724491 
L 813.036597 -79.6758 
L 816.772727 -79.627226 
L 816.772727 -87.861521 
L 816.772727 -87.861521 
L 813.036597 -87.940469 
L 809.300466 -88.019637 
L 805.564336 -88.099546 
L 801.828205 -88.180739 
L 798.092075 -88.26217 
L 794.355944 -88.344375 
L 790.619814 -88.427913 
L 786.883683 -88.511708 
L 783.147552 -88.596314 
L 779.411422 -88.682303 
L 775.675291 -88.768571 
L 771.939161 -88.855687 
L 768.20303 -88.94424 
L 764.4669 -89.033096 
L 760.730769 -89.122839 
L 756.994639 -89.214076 
L 753.258508 -89.305641 
L 749.522378 -89.398136 
L 745.786247 -89.492185 
L 742.050117 -89.58659 
L 738.313986 -89.681969 
L 734.577855 -89.778967 
L 730.841725 -89.87635 
L 727.105594 -89.974755 
L 723.369464 -90.074847 
L 719.633333 -90.175355 
L 715.897203 -90.276937 
L 712.161072 -90.380278 
L 708.424942 -90.48407 
L 704.688811 -90.58899 
L 700.952681 -90.695747 
L 697.21655 -90.802991 
L 693.48042 -90.911422 
L 689.744289 -91.021771 
L 686.008159 -91.132648 
L 682.272028 -91.244775 
L 678.535897 -91.358908 
L 674.799767 -91.473611 
L 671.063636 -91.589633 
L 667.327506 -91.707753 
L 663.591375 -91.826491 
L 659.855245 -91.94662 
L 656.119114 -92.068947 
L 652.382984 -92.191944 
L 648.646853 -92.316409 
L 644.910723 -92.443179 
L 641.174592 -92.570674 
L 637.438462 -92.699722 
L 633.702331 -92.831191 
L 629.9662 -92.963444 
L 626.23007 -93.097341 
L 622.493939 -93.233781 
L 618.757809 -93.371073 
L 615.021678 -93.510106 
L 611.285548 -93.651815 
L 607.549417 -93.794448 
L 603.813287 -93.938928 
L 600.077156 -94.086227 
L 596.341026 -94.234528 
L 592.604895 -94.384791 
L 588.868765 -94.538028 
L 585.132634 -94.692353 
L 581.396503 -94.848766 
L 577.660373 -95.008319 
L 573.924242 -95.169055 
L 570.188112 -95.332014 
L 566.451981 -95.498293 
L 562.715851 -95.665861 
L 558.97972 -95.8358 
L 555.24359 -96.009254 
L 551.507459 -96.184111 
L 547.771329 -96.361502 
L 544.035198 -96.54262 
L 540.299068 -96.725269 
L 536.562937 -96.910629 
L 532.826807 -97.099947 
L 529.090676 -97.290937 
L 525.354545 -97.484831 
L 521.618415 -97.682937 
L 517.882284 -97.882869 
L 514.146154 -98.085921 
L 510.410023 -98.293459 
L 506.673893 -98.502999 
L 502.937762 -98.715892 
L 499.201632 -98.933575 
L 495.465501 -99.153452 
L 491.729371 -99.376943 
L 487.99324 -99.605557 
L 484.25711 -99.83658 
L 480.520979 -100.071504 
L 476.784848 -100.311919 
L 473.048718 -100.554984 
L 469.312587 -100.802271 
L 465.576457 -101.055454 
L 461.840326 -101.311557 
L 458.104196 -101.572238 
L 454.368065 -101.839266 
L 450.631935 -102.109519 
L 446.895804 -102.384747 
L 443.159674 -102.666823 
L 439.423543 -102.952468 
L 435.687413 -103.243534 
L 431.951282 -103.542006 
L 428.215152 -103.844438 
L 424.479021 -104.152793 
L 420.74289 -104.469178 
L 417.00676 -104.789968 
L 413.270629 -105.117246 
L 409.534499 -105.453258 
L 405.798368 -105.794181 
L 402.062238 -106.142234 
L 398.326107 -106.499815 
L 394.589977 -106.862886 
L 390.853846 -107.233819 
L 387.117716 -107.61518 
L 383.381585 -108.002698 
L 379.645455 -108.398912 
L 375.909324 -108.80658 
L 372.173193 -109.221176 
L 368.437063 -109.64543 
L 364.700932 -110.082308 
L 360.964802 -110.527012 
L 357.228671 -110.982481 
L 353.492541 -111.451925 
L 349.75641 -111.930241 
L 346.02028 -112.42061 
L 342.284149 -112.926514 
L 338.548019 -113.44252 
L 334.811888 -113.972085 
L 331.075758 -114.519 
L 327.339627 -115.077473 
L 323.603497 -115.651273 
L 319.867366 -116.244553 
L 316.131235 -116.851122 
L 312.395105 -117.475113 
L 308.658974 -118.121098 
L 304.922844 -118.782447 
L 301.186713 -119.463721 
L 297.450583 -120.169979 
L 293.714452 -120.894111 
L 289.978322 -121.641178 
L 286.242191 -122.416821 
L 282.506061 -123.2134 
L 278.76993 -124.036571 
L 275.0338 -124.89267 
L 271.297669 -125.773477 
L 267.561538 -126.685367 
L 263.825408 -127.635518 
L 260.089277 -128.615074 
L 256.353147 -129.63129 
L 252.617016 -130.692377 
L 248.880886 -131.788794 
L 245.144755 -132.928885 
L 241.408625 -134.122155 
L 237.672494 -135.358326 
L 233.936364 -136.647125 
L 230.200233 -137.999697 
L 226.464103 -139.405004 
L 222.727972 -140.874553 
L 218.991841 -142.421625 
L 215.255711 -144.03443 
L 211.51958 -145.726829 
L 207.78345 -147.514948 
L 204.047319 -149.38634 
L 200.311189 -151.358065 
L 196.575058 -153.450148 
L 192.838928 -155.649744 
L 189.102797 -157.978409 
L 185.366667 -160.461698 
L 181.630536 -163.086959 
L 177.894406 -165.882319 
L 174.158275 -168.881508 
L 170.422145 -172.073338 
L 166.686014 -175.496007 
L 162.949883 -179.195942 
L 159.213753 -183.166161 
L 155.477622 -187.461217 
L 151.741492 -192.148506 
L 148.005361 -197.231325 
L 144.269231 -202.792785 
L 140.5331 -208.937701 
L 136.79697 -215.693935 
L 133.060839 -223.199322 
L 129.324709 -231.632524 
L 125.588578 -241.082837 
L 121.852448 -251.806745 
L 118.116317 -264.14993 
L 114.380186 -278.372579 
L 110.644056 -295.037005 
L 106.907925 -314.948348 
L 103.171795 -338.940977 
L 99.435664 -368.602076 
L 95.699534 -406.458397 
L 91.963403 -456.057059 
L 88.227273 -524.409091 
z
" style="stroke: #90ee90; stroke-opacity: 0.6"/>
    </defs>
    <g clip-path="url(#p9a3cd3f4ff)">
     <use xlink:href="#mb6fc20e65f" x="0" y="576" style="fill: #90ee90; fill-opacity: 0.6; stroke: #90ee90; stroke-opacity: 0.6"/>
    </g>
   </g>
   <g id="matplotlib.axis_1">
    <g id="xtick_1">
     <g id="line2d_1">
      <path d="M 69.54662 530.2 
L 69.54662 28.8 
" clip-path="url(#p9a3cd3f4ff)" style="fill: none; stroke: #b0b0b0; stroke-width: 0.8; stroke-linecap: square"/>
     </g>
     <g id="line2d_2">
      <defs>
       <path id="m3f6f719408" d="M 0 0 
L 0 3.5 
" style="stroke: #000000; stroke-width: 0.8"/>
      </defs>
      <g>
       <use xlink:href="#m3f6f719408" x="69.54662" y="530.2" style="stroke: #000000; stroke-width: 0.8"/>
      </g>
     </g>
     <g id="text_1">
      <!-- 0 -->
      <g transform="translate(66.36537 544.798437) scale(0.1 -0.1)">
       <defs>
        <path id="DejaVuSans-30" d="M 2034 4250 
Q 1547 4250 1301 3770 
Q 1056 3291 1056 2328 
Q 1056 1369 1301 889 
Q 1547 409 2034 409 
Q 2525 409 2770 889 
Q 3016 1369 3016 2328 
Q 3016 3291 2770 3770 
Q 2525 4250 2034 4250 
z
M 2034 4750 
Q 2819 4750 3233 4129 
Q 3647 3509 3647 2328 
Q 3647 1150 3233 529 
Q 2819 -91 2034 -91 
Q 1250 -91 836 529 
Q 422 1150 422 2328 
Q 422 3509 836 4129 
Q 1250 4750 2034 4750 
z
" transform="scale(0.015625)"/>
       </defs>
       <use xlink:href="#DejaVuSans-30"/>
      </g>
     </g>
    </g>
    <g id="xtick_2">
     <g id="line2d_3">
      <path d="M 162.949883 530.2 
L 162.949883 28.8 
" clip-path="url(#p9a3cd3f4ff)" style="fill: none; stroke: #b0b0b0; stroke-width: 0.8; stroke-linecap: square"/>
     </g>
     <g id="line2d_4">
      <g>
       <use xlink:href="#m3f6f719408" x="162.949883" y="530.2" style="stroke: #000000; stroke-width: 0.8"/>
      </g>
     </g>
     <g id="text_2">
      <!-- 25 -->
      <g transform="translate(156.587383 544.798437) scale(0.1 -0.1)">
       <defs>
        <path id="DejaVuSans-32" d="M 1228 531 
L 3431 531 
L 3431 0 
L 469 0 
L 469 531 
Q 828 903 1448 1529 
Q 2069 2156 2228 2338 
Q 2531 2678 2651 2914 
Q 2772 3150 2772 3378 
Q 2772 3750 2511 3984 
Q 2250 4219 1831 4219 
Q 1534 4219 1204 4116 
Q 875 4013 500 3803 
L 500 4441 
Q 881 4594 1212 4672 
Q 1544 4750 1819 4750 
Q 2544 4750 2975 4387 
Q 3406 4025 3406 3419 
Q 3406 3131 3298 2873 
Q 3191 2616 2906 2266 
Q 2828 2175 2409 1742 
Q 1991 1309 1228 531 
z
" transform="scale(0.015625)"/>
        <path id="DejaVuSans-35" d="M 691 4666 
L 3169 4666 
L 3169 4134 
L 1269 4134 
L 1269 2991 
Q 1406 3038 1543 3061 
Q 1681 3084 1819 3084 
Q 2600 3084 3056 2656 
Q 3513 2228 3513 1497 
Q 3513 744 3044 326 
Q 2575 -91 1722 -91 
Q 1428 -91 1123 -41 
Q 819 9 494 109 
L 494 744 
Q 775 591 1075 516 
Q 1375 441 1709 441 
Q 2250 441 2565 725 
Q 2881 1009 2881 1497 
Q 2881 1984 2565 2268 
Q 2250 2553 1709 2553 
Q 1456 2553 1204 2497 
Q 953 2441 691 2322 
L 691 4666 
z
" transform="scale(0.015625)"/>
       </defs>
       <use xlink:href="#DejaVuSans-32"/>
       <use xlink:href="#DejaVuSans-35" x="63.623047"/>
      </g>
     </g>
    </g>
    <g id="xtick_3">
     <g id="line2d_5">
      <path d="M 256.353147 530.2 
L 256.353147 28.8 
" clip-path="url(#p9a3cd3f4ff)" style="fill: none; stroke: #b0b0b0; stroke-width: 0.8; stroke-linecap: square"/>
     </g>
     <g id="line2d_6">
      <g>
       <use xlink:href="#m3f6f719408" x="256.353147" y="530.2" style="stroke: #000000; stroke-width: 0.8"/>
      </g>
     </g>
     <g id="text_3">
      <!-- 50 -->
      <g transform="translate(249.990647 544.798437) scale(0.1 -0.1)">
       <use xlink:href="#DejaVuSans-35"/>
       <use xlink:href="#DejaVuSans-30" x="63.623047"/>
      </g>
     </g>
    </g>
    <g id="xtick_4">
     <g id="line2d_7">
      <path d="M 349.75641 530.2 
L 349.75641 28.8 
" clip-path="url(#p9a3cd3f4ff)" style="fill: none; stroke: #b0b0b0; stroke-width: 0.8; stroke-linecap: square"/>
     </g>
     <g id="line2d_8">
      <g>
       <use xlink:href="#m3f6f719408" x="349.75641" y="530.2" style="stroke: #000000; stroke-width: 0.8"/>
      </g>
     </g>
     <g id="text_4">
      <!-- 75 -->
      <g transform="translate(343.39391 544.798437) scale(0.1 -0.1)">
       <defs>
        <path id="DejaVuSans-37" d="M 525 4666 
L 3525 4666 
L 3525 4397 
L 1831 0 
L 1172 0 
L 2766 4134 
L 525 4134 
L 525 4666 
z
" transform="scale(0.015625)"/>
       </defs>
       <use xlink:href="#DejaVuSans-37"/>
       <use xlink:href="#DejaVuSans-35" x="63.623047"/>
      </g>
     </g>
    </g>
    <g id="xtick_5">
     <g id="line2d_9">
      <path d="M 443.159674 530.2 
L 443.159674 28.8 
" clip-path="url(#p9a3cd3f4ff)" style="fill: none; stroke: #b0b0b0; stroke-width: 0.8; stroke-linecap: square"/>
     </g>
     <g id="line2d_10">
      <g>
       <use xlink:href="#m3f6f719408" x="443.159674" y="530.2" style="stroke: #000000; stroke-width: 0.8"/>
      </g>
     </g>
     <g id="text_5">
      <!-- 100 -->
      <g transform="translate(433.615924 544.798437) scale(0.1 -0.1)">
       <defs>
        <path id="DejaVuSans-31" d="M 794 531 
L 1825 531 
L 1825 4091 
L 703 3866 
L 703 4441 
L 1819 4666 
L 2450 4666 
L 2450 531 
L 3481 531 
L 3481 0 
L 794 0 
L 794 531 
z
" transform="scale(0.015625)"/>
       </defs>
       <use xlink:href="#DejaVuSans-31"/>
       <use xlink:href="#DejaVuSans-30" x="63.623047"/>
       <use xlink:href="#DejaVuSans-30" x="127.246094"/>
      </g>
     </g>
    </g>
    <g id="xtick_6">
     <g id="line2d_11">
      <path d="M 536.562937 530.2 
L 536.562937 28.8 
" clip-path="url(#p9a3cd3f4ff)" style="fill: none; stroke: #b0b0b0; stroke-width: 0.8; stroke-linecap: square"/>
     </g>
     <g id="line2d_12">
      <g>
       <use xlink:href="#m3f6f719408" x="536.562937" y="530.2" style="stroke: #000000; stroke-width: 0.8"/>
      </g>
     </g>
     <g id="text_6">
      <!-- 125 -->
      <g transform="translate(527.019187 544.798437) scale(0.1 -0.1)">
       <use xlink:href="#DejaVuSans-31"/>
       <use xlink:href="#DejaVuSans-32" x="63.623047"/>
       <use xlink:href="#DejaVuSans-35" x="127.246094"/>
      </g>
     </g>
    </g>
    <g id="xtick_7">
     <g id="line2d_13">
      <path d="M 629.9662 530.2 
L 629.9662 28.8 
" clip-path="url(#p9a3cd3f4ff)" style="fill: none; stroke: #b0b0b0; stroke-width: 0.8; stroke-linecap: square"/>
     </g>
     <g id="line2d_14">
      <g>
       <use xlink:href="#m3f6f719408" x="629.9662" y="530.2" style="stroke: #000000; stroke-width: 0.8"/>
      </g>
     </g>
     <g id="text_7">
      <!-- 150 -->
      <g transform="translate(620.42245 544.798437) scale(0.1 -0.1)">
       <use xlink:href="#DejaVuSans-31"/>
       <use xlink:href="#DejaVuSans-35" x="63.623047"/>
       <use xlink:href="#DejaVuSans-30" x="127.246094"/>
      </g>
     </g>
    </g>
    <g id="xtick_8">
     <g id="line2d_15">
      <path d="M 723.369464 530.2 
L 723.369464 28.8 
" clip-path="url(#p9a3cd3f4ff)" style="fill: none; stroke: #b0b0b0; stroke-width: 0.8; stroke-linecap: square"/>
     </g>
     <g id="line2d_16">
      <g>
       <use xlink:href="#m3f6f719408" x="723.369464" y="530.2" style="stroke: #000000; stroke-width: 0.8"/>
      </g>
     </g>
     <g id="text_8">
      <!-- 175 -->
      <g transform="translate(713.825714 544.798437) scale(0.1 -0.1)">
       <use xlink:href="#DejaVuSans-31"/>
       <use xlink:href="#DejaVuSans-37" x="63.623047"/>
       <use xlink:href="#DejaVuSans-35" x="127.246094"/>
      </g>
     </g>
    </g>
    <g id="xtick_9">
     <g id="line2d_17">
      <path d="M 816.772727 530.2 
L 816.772727 28.8 
" clip-path="url(#p9a3cd3f4ff)" style="fill: none; stroke: #b0b0b0; stroke-width: 0.8; stroke-linecap: square"/>
     </g>
     <g id="line2d_18">
      <g>
       <use xlink:href="#m3f6f719408" x="816.772727" y="530.2" style="stroke: #000000; stroke-width: 0.8"/>
      </g>
     </g>
     <g id="text_9">
      <!-- 200 -->
      <g transform="translate(807.228977 544.798437) scale(0.1 -0.1)">
       <use xlink:href="#DejaVuSans-32"/>
       <use xlink:href="#DejaVuSans-30" x="63.623047"/>
       <use xlink:href="#DejaVuSans-30" x="127.246094"/>
      </g>
     </g>
    </g>
    <g id="text_10">
     <!-- Number of Units Produced -->
     <g transform="translate(360.481719 561.515937) scale(0.14 -0.14)">
      <defs>
       <path id="DejaVuSans-4e" d="M 628 4666 
L 1478 4666 
L 3547 763 
L 3547 4666 
L 4159 4666 
L 4159 0 
L 3309 0 
L 1241 3903 
L 1241 0 
L 628 0 
L 628 4666 
z
" transform="scale(0.015625)"/>
       <path id="DejaVuSans-75" d="M 544 1381 
L 544 3500 
L 1119 3500 
L 1119 1403 
Q 1119 906 1312 657 
Q 1506 409 1894 409 
Q 2359 409 2629 706 
Q 2900 1003 2900 1516 
L 2900 3500 
L 3475 3500 
L 3475 0 
L 2900 0 
L 2900 538 
Q 2691 219 2414 64 
Q 2138 -91 1772 -91 
Q 1169 -91 856 284 
Q 544 659 544 1381 
z
M 1991 3584 
L 1991 3584 
z
" transform="scale(0.015625)"/>
       <path id="DejaVuSans-6d" d="M 3328 2828 
Q 3544 3216 3844 3400 
Q 4144 3584 4550 3584 
Q 5097 3584 5394 3201 
Q 5691 2819 5691 2113 
L 5691 0 
L 5113 0 
L 5113 2094 
Q 5113 2597 4934 2840 
Q 4756 3084 4391 3084 
Q 3944 3084 3684 2787 
Q 3425 2491 3425 1978 
L 3425 0 
L 2847 0 
L 2847 2094 
Q 2847 2600 2669 2842 
Q 2491 3084 2119 3084 
Q 1678 3084 1418 2786 
Q 1159 2488 1159 1978 
L 1159 0 
L 581 0 
L 581 3500 
L 1159 3500 
L 1159 2956 
Q 1356 3278 1631 3431 
Q 1906 3584 2284 3584 
Q 2666 3584 2933 3390 
Q 3200 3197 3328 2828 
z
" transform="scale(0.015625)"/>
       <path id="DejaVuSans-62" d="M 3116 1747 
Q 3116 2381 2855 2742 
Q 2594 3103 2138 3103 
Q 1681 3103 1420 2742 
Q 1159 2381 1159 1747 
Q 1159 1113 1420 752 
Q 1681 391 2138 391 
Q 2594 391 2855 752 
Q 3116 1113 3116 1747 
z
M 1159 2969 
Q 1341 3281 1617 3432 
Q 1894 3584 2278 3584 
Q 2916 3584 3314 3078 
Q 3713 2572 3713 1747 
Q 3713 922 3314 415 
Q 2916 -91 2278 -91 
Q 1894 -91 1617 61 
Q 1341 213 1159 525 
L 1159 0 
L 581 0 
L 581 4863 
L 1159 4863 
L 1159 2969 
z
" transform="scale(0.015625)"/>
       <path id="DejaVuSans-65" d="M 3597 1894 
L 3597 1613 
L 953 1613 
Q 991 1019 1311 708 
Q 1631 397 2203 397 
Q 2534 397 2845 478 
Q 3156 559 3463 722 
L 3463 178 
Q 3153 47 2828 -22 
Q 2503 -91 2169 -91 
Q 1331 -91 842 396 
Q 353 884 353 1716 
Q 353 2575 817 3079 
Q 1281 3584 2069 3584 
Q 2775 3584 3186 3129 
Q 3597 2675 3597 1894 
z
M 3022 2063 
Q 3016 2534 2758 2815 
Q 2500 3097 2075 3097 
Q 1594 3097 1305 2825 
Q 1016 2553 972 2059 
L 3022 2063 
z
" transform="scale(0.015625)"/>
       <path id="DejaVuSans-72" d="M 2631 2963 
Q 2534 3019 2420 3045 
Q 2306 3072 2169 3072 
Q 1681 3072 1420 2755 
Q 1159 2438 1159 1844 
L 1159 0 
L 581 0 
L 581 3500 
L 1159 3500 
L 1159 2956 
Q 1341 3275 1631 3429 
Q 1922 3584 2338 3584 
Q 2397 3584 2469 3576 
Q 2541 3569 2628 3553 
L 2631 2963 
z
" transform="scale(0.015625)"/>
       <path id="DejaVuSans-20" transform="scale(0.015625)"/>
       <path id="DejaVuSans-6f" d="M 1959 3097 
Q 1497 3097 1228 2736 
Q 959 2375 959 1747 
Q 959 1119 1226 758 
Q 1494 397 1959 397 
Q 2419 397 2687 759 
Q 2956 1122 2956 1747 
Q 2956 2369 2687 2733 
Q 2419 3097 1959 3097 
z
M 1959 3584 
Q 2709 3584 3137 3096 
Q 3566 2609 3566 1747 
Q 3566 888 3137 398 
Q 2709 -91 1959 -91 
Q 1206 -91 779 398 
Q 353 888 353 1747 
Q 353 2609 779 3096 
Q 1206 3584 1959 3584 
z
" transform="scale(0.015625)"/>
       <path id="DejaVuSans-66" d="M 2375 4863 
L 2375 4384 
L 1825 4384 
Q 1516 4384 1395 4259 
Q 1275 4134 1275 3809 
L 1275 3500 
L 2222 3500 
L 2222 3053 
L 1275 3053 
L 1275 0 
L 697 0 
L 697 3053 
L 147 3053 
L 147 3500 
L 697 3500 
L 697 3744 
Q 697 4328 969 4595 
Q 1241 4863 1831 4863 
L 2375 4863 
z
" transform="scale(0.015625)"/>
       <path id="DejaVuSans-55" d="M 556 4666 
L 1191 4666 
L 1191 1831 
Q 1191 1081 1462 751 
Q 1734 422 2344 422 
Q 2950 422 3222 751 
Q 3494 1081 3494 1831 
L 3494 4666 
L 4128 4666 
L 4128 1753 
Q 4128 841 3676 375 
Q 3225 -91 2344 -91 
Q 1459 -91 1007 375 
Q 556 841 556 1753 
L 556 4666 
z
" transform="scale(0.015625)"/>
       <path id="DejaVuSans-6e" d="M 3513 2113 
L 3513 0 
L 2938 0 
L 2938 2094 
Q 2938 2591 2744 2837 
Q 2550 3084 2163 3084 
Q 1697 3084 1428 2787 
Q 1159 2491 1159 1978 
L 1159 0 
L 581 0 
L 581 3500 
L 1159 3500 
L 1159 2956 
Q 1366 3272 1645 3428 
Q 1925 3584 2291 3584 
Q 2894 3584 3203 3211 
Q 3513 2838 3513 2113 
z
" transform="scale(0.015625)"/>
       <path id="DejaVuSans-69" d="M 603 3500 
L 1178 3500 
L 1178 0 
L 603 0 
L 603 3500 
z
M 603 4863 
L 1178 4863 
L 1178 4134 
L 603 4134 
L 603 4863 
z
" transform="scale(0.015625)"/>
       <path id="DejaVuSans-74" d="M 1172 4494 
L 1172 3500 
L 2356 3500 
L 2356 3053 
L 1172 3053 
L 1172 1153 
Q 1172 725 1289 603 
Q 1406 481 1766 481 
L 2356 481 
L 2356 0 
L 1766 0 
Q 1100 0 847 248 
Q 594 497 594 1153 
L 594 3053 
L 172 3053 
L 172 3500 
L 594 3500 
L 594 4494 
L 1172 4494 
z
" transform="scale(0.015625)"/>
       <path id="DejaVuSans-73" d="M 2834 3397 
L 2834 2853 
Q 2591 2978 2328 3040 
Q 2066 3103 1784 3103 
Q 1356 3103 1142 2972 
Q 928 2841 928 2578 
Q 928 2378 1081 2264 
Q 1234 2150 1697 2047 
L 1894 2003 
Q 2506 1872 2764 1633 
Q 3022 1394 3022 966 
Q 3022 478 2636 193 
Q 2250 -91 1575 -91 
Q 1294 -91 989 -36 
Q 684 19 347 128 
L 347 722 
Q 666 556 975 473 
Q 1284 391 1588 391 
Q 1994 391 2212 530 
Q 2431 669 2431 922 
Q 2431 1156 2273 1281 
Q 2116 1406 1581 1522 
L 1381 1569 
Q 847 1681 609 1914 
Q 372 2147 372 2553 
Q 372 3047 722 3315 
Q 1072 3584 1716 3584 
Q 2034 3584 2315 3537 
Q 2597 3491 2834 3397 
z
" transform="scale(0.015625)"/>
       <path id="DejaVuSans-50" d="M 1259 4147 
L 1259 2394 
L 2053 2394 
Q 2494 2394 2734 2622 
Q 2975 2850 2975 3272 
Q 2975 3691 2734 3919 
Q 2494 4147 2053 4147 
L 1259 4147 
z
M 628 4666 
L 2053 4666 
Q 2838 4666 3239 4311 
Q 3641 3956 3641 3272 
Q 3641 2581 3239 2228 
Q 2838 1875 2053 1875 
L 1259 1875 
L 1259 0 
L 628 0 
L 628 4666 
z
" transform="scale(0.015625)"/>
       <path id="DejaVuSans-64" d="M 2906 2969 
L 2906 4863 
L 3481 4863 
L 3481 0 
L 2906 0 
L 2906 525 
Q 2725 213 2448 61 
Q 2172 -91 1784 -91 
Q 1150 -91 751 415 
Q 353 922 353 1747 
Q 353 2572 751 3078 
Q 1150 3584 1784 3584 
Q 2172 3584 2448 3432 
Q 2725 3281 2906 2969 
z
M 947 1747 
Q 947 1113 1208 752 
Q 1469 391 1925 391 
Q 2381 391 2643 752 
Q 2906 1113 2906 1747 
Q 2906 2381 2643 2742 
Q 2381 3103 1925 3103 
Q 1469 3103 1208 2742 
Q 947 2381 947 1747 
z
" transform="scale(0.015625)"/>
       <path id="DejaVuSans-63" d="M 3122 3366 
L 3122 2828 
Q 2878 2963 2633 3030 
Q 2388 3097 2138 3097 
Q 1578 3097 1268 2742 
Q 959 2388 959 1747 
Q 959 1106 1268 751 
Q 1578 397 2138 397 
Q 2388 397 2633 464 
Q 2878 531 3122 666 
L 3122 134 
Q 2881 22 2623 -34 
Q 2366 -91 2075 -91 
Q 1284 -91 818 406 
Q 353 903 353 1747 
Q 353 2603 823 3093 
Q 1294 3584 2113 3584 
Q 2378 3584 2631 3529 
Q 2884 3475 3122 3366 
z
" transform="scale(0.015625)"/>
      </defs>
      <use xlink:href="#DejaVuSans-4e"/>
      <use xlink:href="#DejaVuSans-75" x="74.804688"/>
      <use xlink:href="#DejaVuSans-6d" x="138.183594"/>
      <use xlink:href="#DejaVuSans-62" x="235.595703"/>
      <use xlink:href="#DejaVuSans-65" x="299.072266"/>
      <use xlink:href="#DejaVuSans-72" x="360.595703"/>
      <use xlink:href="#DejaVuSans-20" x="401.708984"/>
      <use xlink:href="#DejaVuSans-6f" x="433.496094"/>
      <use xlink:href="#DejaVuSans-66" x="494.677734"/>
      <use xlink:href="#DejaVuSans-20" x="529.882812"/>
      <use xlink:href="#DejaVuSans-55" x="561.669922"/>
      <use xlink:href="#DejaVuSans-6e" x="634.863281"/>
      <use xlink:href="#DejaVuSans-69" x="698.242188"/>
      <use xlink:href="#DejaVuSans-74" x="726.025391"/>
      <use xlink:href="#DejaVuSans-73" x="765.234375"/>
      <use xlink:href="#DejaVuSans-20" x="817.333984"/>
      <use xlink:href="#DejaVuSans-50" x="849.121094"/>
      <use xlink:href="#DejaVuSans-72" x="907.673828"/>
      <use xlink:href="#DejaVuSans-6f" x="946.537109"/>
      <use xlink:href="#DejaVuSans-64" x="1007.71875"/>
      <use xlink:href="#DejaVuSans-75" x="1071.195312"/>
      <use xlink:href="#DejaVuSans-63" x="1134.574219"/>
      <use xlink:href="#DejaVuSans-65" x="1189.554688"/>
      <use xlink:href="#DejaVuSans-64" x="1251.078125"/>
     </g>
    </g>
   </g>
   <g id="matplotlib.axis_2">
    <g id="ytick_1">
     <g id="line2d_19">
      <path d="M 51.8 507.409091 
L 853.2 507.409091 
" clip-path="url(#p9a3cd3f4ff)" style="fill: none; stroke: #b0b0b0; stroke-width: 0.8; stroke-linecap: square"/>
     </g>
     <g id="line2d_20">
      <defs>
       <path id="me143d2ce00" d="M 0 0 
L -3.5 0 
" style="stroke: #000000; stroke-width: 0.8"/>
      </defs>
      <g>
       <use xlink:href="#me143d2ce00" x="51.8" y="507.409091" style="stroke: #000000; stroke-width: 0.8"/>
      </g>
     </g>
     <g id="text_11">
      <!-- 0.0 -->
      <g transform="translate(28.896875 511.20831) scale(0.1 -0.1)">
       <defs>
        <path id="DejaVuSans-2e" d="M 684 794 
L 1344 794 
L 1344 0 
L 684 0 
L 684 794 
z
" transform="scale(0.015625)"/>
       </defs>
       <use xlink:href="#DejaVuSans-30"/>
       <use xlink:href="#DejaVuSans-2e" x="63.623047"/>
       <use xlink:href="#DejaVuSans-30" x="95.410156"/>
      </g>
     </g>
    </g>
    <g id="ytick_2">
     <g id="line2d_21">
      <path d="M 51.8 438.530043 
L 853.2 438.530043 
" clip-path="url(#p9a3cd3f4ff)" style="fill: none; stroke: #b0b0b0; stroke-width: 0.8; stroke-linecap: square"/>
     </g>
     <g id="line2d_22">
      <g>
       <use xlink:href="#me143d2ce00" x="51.8" y="438.530043" style="stroke: #000000; stroke-width: 0.8"/>
      </g>
     </g>
     <g id="text_12">
      <!-- 0.5 -->
      <g transform="translate(28.896875 442.329262) scale(0.1 -0.1)">
       <use xlink:href="#DejaVuSans-30"/>
       <use xlink:href="#DejaVuSans-2e" x="63.623047"/>
       <use xlink:href="#DejaVuSans-35" x="95.410156"/>
      </g>
     </g>
    </g>
    <g id="ytick_3">
     <g id="line2d_23">
      <path d="M 51.8 369.650995 
L 853.2 369.650995 
" clip-path="url(#p9a3cd3f4ff)" style="fill: none; stroke: #b0b0b0; stroke-width: 0.8; stroke-linecap: square"/>
     </g>
     <g id="line2d_24">
      <g>
       <use xlink:href="#me143d2ce00" x="51.8" y="369.650995" style="stroke: #000000; stroke-width: 0.8"/>
      </g>
     </g>
     <g id="text_13">
      <!-- 1.0 -->
      <g transform="translate(28.896875 373.450214) scale(0.1 -0.1)">
       <use xlink:href="#DejaVuSans-31"/>
       <use xlink:href="#DejaVuSans-2e" x="63.623047"/>
       <use xlink:href="#DejaVuSans-30" x="95.410156"/>
      </g>
     </g>
    </g>
    <g id="ytick_4">
     <g id="line2d_25">
      <path d="M 51.8 300.771947 
L 853.2 300.771947 
" clip-path="url(#p9a3cd3f4ff)" style="fill: none; stroke: #b0b0b0; stroke-width: 0.8; stroke-linecap: square"/>
     </g>
     <g id="line2d_26">
      <g>
       <use xlink:href="#me143d2ce00" x="51.8" y="300.771947" style="stroke: #000000; stroke-width: 0.8"/>
      </g>
     </g>
     <g id="text_14">
      <!-- 1.5 -->
      <g transform="translate(28.896875 304.571166) scale(0.1 -0.1)">
       <use xlink:href="#DejaVuSans-31"/>
       <use xlink:href="#DejaVuSans-2e" x="63.623047"/>
       <use xlink:href="#DejaVuSans-35" x="95.410156"/>
      </g>
     </g>
    </g>
    <g id="ytick_5">
     <g id="line2d_27">
      <path d="M 51.8 231.892899 
L 853.2 231.892899 
" clip-path="url(#p9a3cd3f4ff)" style="fill: none; stroke: #b0b0b0; stroke-width: 0.8; stroke-linecap: square"/>
     </g>
     <g id="line2d_28">
      <g>
       <use xlink:href="#me143d2ce00" x="51.8" y="231.892899" style="stroke: #000000; stroke-width: 0.8"/>
      </g>
     </g>
     <g id="text_15">
      <!-- 2.0 -->
      <g transform="translate(28.896875 235.692118) scale(0.1 -0.1)">
       <use xlink:href="#DejaVuSans-32"/>
       <use xlink:href="#DejaVuSans-2e" x="63.623047"/>
       <use xlink:href="#DejaVuSans-30" x="95.410156"/>
      </g>
     </g>
    </g>
    <g id="ytick_6">
     <g id="line2d_29">
      <path d="M 51.8 163.013851 
L 853.2 163.013851 
" clip-path="url(#p9a3cd3f4ff)" style="fill: none; stroke: #b0b0b0; stroke-width: 0.8; stroke-linecap: square"/>
     </g>
     <g id="line2d_30">
      <g>
       <use xlink:href="#me143d2ce00" x="51.8" y="163.013851" style="stroke: #000000; stroke-width: 0.8"/>
      </g>
     </g>
     <g id="text_16">
      <!-- 2.5 -->
      <g transform="translate(28.896875 166.81307) scale(0.1 -0.1)">
       <use xlink:href="#DejaVuSans-32"/>
       <use xlink:href="#DejaVuSans-2e" x="63.623047"/>
       <use xlink:href="#DejaVuSans-35" x="95.410156"/>
      </g>
     </g>
    </g>
    <g id="ytick_7">
     <g id="line2d_31">
      <path d="M 51.8 94.134803 
L 853.2 94.134803 
" clip-path="url(#p9a3cd3f4ff)" style="fill: none; stroke: #b0b0b0; stroke-width: 0.8; stroke-linecap: square"/>
     </g>
     <g id="line2d_32">
      <g>
       <use xlink:href="#me143d2ce00" x="51.8" y="94.134803" style="stroke: #000000; stroke-width: 0.8"/>
      </g>
     </g>
     <g id="text_17">
      <!-- 3.0 -->
      <g transform="translate(28.896875 97.934022) scale(0.1 -0.1)">
       <defs>
        <path id="DejaVuSans-33" d="M 2597 2516 
Q 3050 2419 3304 2112 
Q 3559 1806 3559 1356 
Q 3559 666 3084 287 
Q 2609 -91 1734 -91 
Q 1441 -91 1130 -33 
Q 819 25 488 141 
L 488 750 
Q 750 597 1062 519 
Q 1375 441 1716 441 
Q 2309 441 2620 675 
Q 2931 909 2931 1356 
Q 2931 1769 2642 2001 
Q 2353 2234 1838 2234 
L 1294 2234 
L 1294 2753 
L 1863 2753 
Q 2328 2753 2575 2939 
Q 2822 3125 2822 3475 
Q 2822 3834 2567 4026 
Q 2313 4219 1838 4219 
Q 1578 4219 1281 4162 
Q 984 4106 628 3988 
L 628 4550 
Q 988 4650 1302 4700 
Q 1616 4750 1894 4750 
Q 2613 4750 3031 4423 
Q 3450 4097 3450 3541 
Q 3450 3153 3228 2886 
Q 3006 2619 2597 2516 
z
" transform="scale(0.015625)"/>
       </defs>
       <use xlink:href="#DejaVuSans-33"/>
       <use xlink:href="#DejaVuSans-2e" x="63.623047"/>
       <use xlink:href="#DejaVuSans-30" x="95.410156"/>
      </g>
     </g>
    </g>
    <g id="text_18">
     <!-- Cost per Unit (EUR) -->
     <g transform="translate(21.985312 347.485313) rotate(-90) scale(0.14 -0.14)">
      <defs>
       <path id="DejaVuSans-43" d="M 4122 4306 
L 4122 3641 
Q 3803 3938 3442 4084 
Q 3081 4231 2675 4231 
Q 1875 4231 1450 3742 
Q 1025 3253 1025 2328 
Q 1025 1406 1450 917 
Q 1875 428 2675 428 
Q 3081 428 3442 575 
Q 3803 722 4122 1019 
L 4122 359 
Q 3791 134 3420 21 
Q 3050 -91 2638 -91 
Q 1578 -91 968 557 
Q 359 1206 359 2328 
Q 359 3453 968 4101 
Q 1578 4750 2638 4750 
Q 3056 4750 3426 4639 
Q 3797 4528 4122 4306 
z
" transform="scale(0.015625)"/>
       <path id="DejaVuSans-70" d="M 1159 525 
L 1159 -1331 
L 581 -1331 
L 581 3500 
L 1159 3500 
L 1159 2969 
Q 1341 3281 1617 3432 
Q 1894 3584 2278 3584 
Q 2916 3584 3314 3078 
Q 3713 2572 3713 1747 
Q 3713 922 3314 415 
Q 2916 -91 2278 -91 
Q 1894 -91 1617 61 
Q 1341 213 1159 525 
z
M 3116 1747 
Q 3116 2381 2855 2742 
Q 2594 3103 2138 3103 
Q 1681 3103 1420 2742 
Q 1159 2381 1159 1747 
Q 1159 1113 1420 752 
Q 1681 391 2138 391 
Q 2594 391 2855 752 
Q 3116 1113 3116 1747 
z
" transform="scale(0.015625)"/>
       <path id="DejaVuSans-28" d="M 1984 4856 
Q 1566 4138 1362 3434 
Q 1159 2731 1159 2009 
Q 1159 1288 1364 580 
Q 1569 -128 1984 -844 
L 1484 -844 
Q 1016 -109 783 600 
Q 550 1309 550 2009 
Q 550 2706 781 3412 
Q 1013 4119 1484 4856 
L 1984 4856 
z
" transform="scale(0.015625)"/>
       <path id="DejaVuSans-45" d="M 628 4666 
L 3578 4666 
L 3578 4134 
L 1259 4134 
L 1259 2753 
L 3481 2753 
L 3481 2222 
L 1259 2222 
L 1259 531 
L 3634 531 
L 3634 0 
L 628 0 
L 628 4666 
z
" transform="scale(0.015625)"/>
       <path id="DejaVuSans-52" d="M 2841 2188 
Q 3044 2119 3236 1894 
Q 3428 1669 3622 1275 
L 4263 0 
L 3584 0 
L 2988 1197 
Q 2756 1666 2539 1819 
Q 2322 1972 1947 1972 
L 1259 1972 
L 1259 0 
L 628 0 
L 628 4666 
L 2053 4666 
Q 2853 4666 3247 4331 
Q 3641 3997 3641 3322 
Q 3641 2881 3436 2590 
Q 3231 2300 2841 2188 
z
M 1259 4147 
L 1259 2491 
L 2053 2491 
Q 2509 2491 2742 2702 
Q 2975 2913 2975 3322 
Q 2975 3731 2742 3939 
Q 2509 4147 2053 4147 
L 1259 4147 
z
" transform="scale(0.015625)"/>
       <path id="DejaVuSans-29" d="M 513 4856 
L 1013 4856 
Q 1481 4119 1714 3412 
Q 1947 2706 1947 2009 
Q 1947 1309 1714 600 
Q 1481 -109 1013 -844 
L 513 -844 
Q 928 -128 1133 580 
Q 1338 1288 1338 2009 
Q 1338 2731 1133 3434 
Q 928 4138 513 4856 
z
" transform="scale(0.015625)"/>
      </defs>
      <use xlink:href="#DejaVuSans-43"/>
      <use xlink:href="#DejaVuSans-6f" x="69.824219"/>
      <use xlink:href="#DejaVuSans-73" x="131.005859"/>
      <use xlink:href="#DejaVuSans-74" x="183.105469"/>
      <use xlink:href="#DejaVuSans-20" x="222.314453"/>
      <use xlink:href="#DejaVuSans-70" x="254.101562"/>
      <use xlink:href="#DejaVuSans-65" x="317.578125"/>
      <use xlink:href="#DejaVuSans-72" x="379.101562"/>
      <use xlink:href="#DejaVuSans-20" x="420.214844"/>
      <use xlink:href="#DejaVuSans-55" x="452.001953"/>
      <use xlink:href="#DejaVuSans-6e" x="525.195312"/>
      <use xlink:href="#DejaVuSans-69" x="588.574219"/>
      <use xlink:href="#DejaVuSans-74" x="616.357422"/>
      <use xlink:href="#DejaVuSans-20" x="655.566406"/>
      <use xlink:href="#DejaVuSans-28" x="687.353516"/>
      <use xlink:href="#DejaVuSans-45" x="726.367188"/>
      <use xlink:href="#DejaVuSans-55" x="789.550781"/>
      <use xlink:href="#DejaVuSans-52" x="862.744141"/>
      <use xlink:href="#DejaVuSans-29" x="932.226562"/>
     </g>
    </g>
    <g id="text_19">
     <!-- 1e8 -->
     <g transform="translate(51.8 25.8) scale(0.1 -0.1)">
      <defs>
       <path id="DejaVuSans-38" d="M 2034 2216 
Q 1584 2216 1326 1975 
Q 1069 1734 1069 1313 
Q 1069 891 1326 650 
Q 1584 409 2034 409 
Q 2484 409 2743 651 
Q 3003 894 3003 1313 
Q 3003 1734 2745 1975 
Q 2488 2216 2034 2216 
z
M 1403 2484 
Q 997 2584 770 2862 
Q 544 3141 544 3541 
Q 544 4100 942 4425 
Q 1341 4750 2034 4750 
Q 2731 4750 3128 4425 
Q 3525 4100 3525 3541 
Q 3525 3141 3298 2862 
Q 3072 2584 2669 2484 
Q 3125 2378 3379 2068 
Q 3634 1759 3634 1313 
Q 3634 634 3220 271 
Q 2806 -91 2034 -91 
Q 1263 -91 848 271 
Q 434 634 434 1313 
Q 434 1759 690 2068 
Q 947 2378 1403 2484 
z
M 1172 3481 
Q 1172 3119 1398 2916 
Q 1625 2713 2034 2713 
Q 2441 2713 2670 2916 
Q 2900 3119 2900 3481 
Q 2900 3844 2670 4047 
Q 2441 4250 2034 4250 
Q 1625 4250 1398 4047 
Q 1172 3844 1172 3481 
z
" transform="scale(0.015625)"/>
      </defs>
      <use xlink:href="#DejaVuSans-31"/>
      <use xlink:href="#DejaVuSans-65" x="63.623047"/>
      <use xlink:href="#DejaVuSans-38" x="125.146484"/>
     </g>
    </g>
   </g>
   <g id="line2d_33">
    <path d="M 88.227273 51.590909 
L 91.963403 119.942941 
L 95.699534 169.541603 
L 99.435664 207.397924 
L 103.171795 237.059023 
L 106.907925 261.051652 
L 110.644056 280.962995 
L 114.380186 297.627421 
L 118.116317 311.85007 
L 121.852448 324.193255 
L 125.588578 334.917163 
L 129.324709 344.367476 
L 133.060839 352.800678 
L 136.79697 360.306065 
L 140.5331 367.062299 
L 144.269231 373.207215 
L 148.005361 378.768675 
L 151.741492 383.851494 
L 155.477622 388.538783 
L 159.213753 392.833839 
L 162.949883 396.804058 
L 166.686014 400.503993 
L 170.422145 403.926662 
L 174.158275 407.118492 
L 177.894406 410.117681 
L 181.630536 412.913041 
L 185.366667 415.538302 
L 189.102797 418.021591 
L 196.575058 422.549852 
L 204.047319 426.61366 
L 211.51958 430.273171 
L 218.991841 433.578375 
L 226.464103 436.594996 
L 233.936364 439.352875 
L 241.408625 441.877845 
L 248.880886 444.211206 
L 260.089277 447.384926 
L 271.297669 450.226523 
L 282.506061 452.7866 
L 293.714452 455.105889 
L 304.922844 457.217553 
L 319.867366 459.755447 
L 334.811888 462.027915 
L 349.75641 464.069759 
L 368.437063 466.35457 
L 387.117716 468.38482 
L 405.798368 470.205819 
L 428.215152 472.155562 
L 450.631935 473.890481 
L 476.784848 475.688081 
L 502.937762 477.284108 
L 536.562937 479.089371 
L 570.188112 480.667986 
L 607.549417 482.205552 
L 652.382984 483.808056 
L 700.952681 485.304253 
L 753.258508 486.694359 
L 813.036597 488.059531 
L 816.772727 488.138479 
L 816.772727 488.138479 
" clip-path="url(#p9a3cd3f4ff)" style="fill: none; stroke: #0000ff; stroke-width: 2; stroke-linecap: square"/>
    <defs>
     <path id="m74e96442ce" d="M 0 3 
C 0.795609 3 1.55874 2.683901 2.12132 2.12132 
C 2.683901 1.55874 3 0.795609 3 0 
C 3 -0.795609 2.683901 -1.55874 2.12132 -2.12132 
C 1.55874 -2.683901 0.795609 -3 0 -3 
C -0.795609 -3 -1.55874 -2.683901 -2.12132 -2.12132 
C -2.683901 -1.55874 -3 -0.795609 -3 0 
C -3 0.795609 -2.683901 1.55874 -2.12132 2.12132 
C -1.55874 2.683901 -0.795609 3 0 3 
z
" style="stroke: #0000ff"/>
    </defs>
    <g clip-path="url(#p9a3cd3f4ff)">
     <use xlink:href="#m74e96442ce" x="88.227273" y="51.590909" style="fill: #0000ff; stroke: #0000ff"/>
     <use xlink:href="#m74e96442ce" x="91.963403" y="119.942941" style="fill: #0000ff; stroke: #0000ff"/>
     <use xlink:href="#m74e96442ce" x="95.699534" y="169.541603" style="fill: #0000ff; stroke: #0000ff"/>
     <use xlink:href="#m74e96442ce" x="99.435664" y="207.397924" style="fill: #0000ff; stroke: #0000ff"/>
     <use xlink:href="#m74e96442ce" x="103.171795" y="237.059023" style="fill: #0000ff; stroke: #0000ff"/>
     <use xlink:href="#m74e96442ce" x="106.907925" y="261.051652" style="fill: #0000ff; stroke: #0000ff"/>
     <use xlink:href="#m74e96442ce" x="110.644056" y="280.962995" style="fill: #0000ff; stroke: #0000ff"/>
     <use xlink:href="#m74e96442ce" x="114.380186" y="297.627421" style="fill: #0000ff; stroke: #0000ff"/>
     <use xlink:href="#m74e96442ce" x="118.116317" y="311.85007" style="fill: #0000ff; stroke: #0000ff"/>
     <use xlink:href="#m74e96442ce" x="121.852448" y="324.193255" style="fill: #0000ff; stroke: #0000ff"/>
     <use xlink:href="#m74e96442ce" x="125.588578" y="334.917163" style="fill: #0000ff; stroke: #0000ff"/>
     <use xlink:href="#m74e96442ce" x="129.324709" y="344.367476" style="fill: #0000ff; stroke: #0000ff"/>
     <use xlink:href="#m74e96442ce" x="133.060839" y="352.800678" style="fill: #0000ff; stroke: #0000ff"/>
     <use xlink:href="#m74e96442ce" x="136.79697" y="360.306065" style="fill: #0000ff; stroke: #0000ff"/>
     <use xlink:href="#m74e96442ce" x="140.5331" y="367.062299" style="fill: #0000ff; stroke: #0000ff"/>
     <use xlink:href="#m74e96442ce" x="144.269231" y="373.207215" style="fill: #0000ff; stroke: #0000ff"/>
     <use xlink:href="#m74e96442ce" x="148.005361" y="378.768675" style="fill: #0000ff; stroke: #0000ff"/>
     <use xlink:href="#m74e96442ce" x="151.741492" y="383.851494" style="fill: #0000ff; stroke: #0000ff"/>
     <use xlink:href="#m74e96442ce" x="155.477622" y="388.538783" style="fill: #0000ff; stroke: #0000ff"/>
     <use xlink:href="#m74e96442ce" x="159.213753" y="392.833839" style="fill: #0000ff; stroke: #0000ff"/>
     <use xlink:href="#m74e96442ce" x="162.949883" y="396.804058" style="fill: #0000ff; stroke: #0000ff"/>
     <use xlink:href="#m74e96442ce" x="166.686014" y="400.503993" style="fill: #0000ff; stroke: #0000ff"/>
     <use xlink:href="#m74e96442ce" x="170.422145" y="403.926662" style="fill: #0000ff; stroke: #0000ff"/>
     <use xlink:href="#m74e96442ce" x="174.158275" y="407.118492" style="fill: #0000ff; stroke: #0000ff"/>
     <use xlink:href="#m74e96442ce" x="177.894406" y="410.117681" style="fill: #0000ff; stroke: #0000ff"/>
     <use xlink:href="#m74e96442ce" x="181.630536" y="412.913041" style="fill: #0000ff; stroke: #0000ff"/>
     <use xlink:href="#m74e96442ce" x="185.366667" y="415.538302" style="fill: #0000ff; stroke: #0000ff"/>
     <use xlink:href="#m74e96442ce" x="189.102797" y="418.021591" style="fill: #0000ff; stroke: #0000ff"/>
     <use xlink:href="#m74e96442ce" x="192.838928" y="420.350256" style="fill: #0000ff; stroke: #0000ff"/>
     <use xlink:href="#m74e96442ce" x="196.575058" y="422.549852" style="fill: #0000ff; stroke: #0000ff"/>
     <use xlink:href="#m74e96442ce" x="200.311189" y="424.641935" style="fill: #0000ff; stroke: #0000ff"/>
     <use xlink:href="#m74e96442ce" x="204.047319" y="426.61366" style="fill: #0000ff; stroke: #0000ff"/>
     <use xlink:href="#m74e96442ce" x="207.78345" y="428.485052" style="fill: #0000ff; stroke: #0000ff"/>
     <use xlink:href="#m74e96442ce" x="211.51958" y="430.273171" style="fill: #0000ff; stroke: #0000ff"/>
     <use xlink:href="#m74e96442ce" x="215.255711" y="431.96557" style="fill: #0000ff; stroke: #0000ff"/>
     <use xlink:href="#m74e96442ce" x="218.991841" y="433.578375" style="fill: #0000ff; stroke: #0000ff"/>
     <use xlink:href="#m74e96442ce" x="222.727972" y="435.125447" style="fill: #0000ff; stroke: #0000ff"/>
     <use xlink:href="#m74e96442ce" x="226.464103" y="436.594996" style="fill: #0000ff; stroke: #0000ff"/>
     <use xlink:href="#m74e96442ce" x="230.200233" y="438.000303" style="fill: #0000ff; stroke: #0000ff"/>
     <use xlink:href="#m74e96442ce" x="233.936364" y="439.352875" style="fill: #0000ff; stroke: #0000ff"/>
     <use xlink:href="#m74e96442ce" x="237.672494" y="440.641674" style="fill: #0000ff; stroke: #0000ff"/>
     <use xlink:href="#m74e96442ce" x="241.408625" y="441.877845" style="fill: #0000ff; stroke: #0000ff"/>
     <use xlink:href="#m74e96442ce" x="245.144755" y="443.071115" style="fill: #0000ff; stroke: #0000ff"/>
     <use xlink:href="#m74e96442ce" x="248.880886" y="444.211206" style="fill: #0000ff; stroke: #0000ff"/>
     <use xlink:href="#m74e96442ce" x="252.617016" y="445.307623" style="fill: #0000ff; stroke: #0000ff"/>
     <use xlink:href="#m74e96442ce" x="256.353147" y="446.36871" style="fill: #0000ff; stroke: #0000ff"/>
     <use xlink:href="#m74e96442ce" x="260.089277" y="447.384926" style="fill: #0000ff; stroke: #0000ff"/>
     <use xlink:href="#m74e96442ce" x="263.825408" y="448.364482" style="fill: #0000ff; stroke: #0000ff"/>
     <use xlink:href="#m74e96442ce" x="267.561538" y="449.314633" style="fill: #0000ff; stroke: #0000ff"/>
     <use xlink:href="#m74e96442ce" x="271.297669" y="450.226523" style="fill: #0000ff; stroke: #0000ff"/>
     <use xlink:href="#m74e96442ce" x="275.0338" y="451.10733" style="fill: #0000ff; stroke: #0000ff"/>
     <use xlink:href="#m74e96442ce" x="278.76993" y="451.963429" style="fill: #0000ff; stroke: #0000ff"/>
     <use xlink:href="#m74e96442ce" x="282.506061" y="452.7866" style="fill: #0000ff; stroke: #0000ff"/>
     <use xlink:href="#m74e96442ce" x="286.242191" y="453.583179" style="fill: #0000ff; stroke: #0000ff"/>
     <use xlink:href="#m74e96442ce" x="289.978322" y="454.358822" style="fill: #0000ff; stroke: #0000ff"/>
     <use xlink:href="#m74e96442ce" x="293.714452" y="455.105889" style="fill: #0000ff; stroke: #0000ff"/>
     <use xlink:href="#m74e96442ce" x="297.450583" y="455.830021" style="fill: #0000ff; stroke: #0000ff"/>
     <use xlink:href="#m74e96442ce" x="301.186713" y="456.536279" style="fill: #0000ff; stroke: #0000ff"/>
     <use xlink:href="#m74e96442ce" x="304.922844" y="457.217553" style="fill: #0000ff; stroke: #0000ff"/>
     <use xlink:href="#m74e96442ce" x="308.658974" y="457.878902" style="fill: #0000ff; stroke: #0000ff"/>
     <use xlink:href="#m74e96442ce" x="312.395105" y="458.524887" style="fill: #0000ff; stroke: #0000ff"/>
     <use xlink:href="#m74e96442ce" x="316.131235" y="459.148878" style="fill: #0000ff; stroke: #0000ff"/>
     <use xlink:href="#m74e96442ce" x="319.867366" y="459.755447" style="fill: #0000ff; stroke: #0000ff"/>
     <use xlink:href="#m74e96442ce" x="323.603497" y="460.348727" style="fill: #0000ff; stroke: #0000ff"/>
     <use xlink:href="#m74e96442ce" x="327.339627" y="460.922527" style="fill: #0000ff; stroke: #0000ff"/>
     <use xlink:href="#m74e96442ce" x="331.075758" y="461.481" style="fill: #0000ff; stroke: #0000ff"/>
     <use xlink:href="#m74e96442ce" x="334.811888" y="462.027915" style="fill: #0000ff; stroke: #0000ff"/>
     <use xlink:href="#m74e96442ce" x="338.548019" y="462.55748" style="fill: #0000ff; stroke: #0000ff"/>
     <use xlink:href="#m74e96442ce" x="342.284149" y="463.073486" style="fill: #0000ff; stroke: #0000ff"/>
     <use xlink:href="#m74e96442ce" x="346.02028" y="463.57939" style="fill: #0000ff; stroke: #0000ff"/>
     <use xlink:href="#m74e96442ce" x="349.75641" y="464.069759" style="fill: #0000ff; stroke: #0000ff"/>
     <use xlink:href="#m74e96442ce" x="353.492541" y="464.548075" style="fill: #0000ff; stroke: #0000ff"/>
     <use xlink:href="#m74e96442ce" x="357.228671" y="465.017519" style="fill: #0000ff; stroke: #0000ff"/>
     <use xlink:href="#m74e96442ce" x="360.964802" y="465.472988" style="fill: #0000ff; stroke: #0000ff"/>
     <use xlink:href="#m74e96442ce" x="364.700932" y="465.917692" style="fill: #0000ff; stroke: #0000ff"/>
     <use xlink:href="#m74e96442ce" x="368.437063" y="466.35457" style="fill: #0000ff; stroke: #0000ff"/>
     <use xlink:href="#m74e96442ce" x="372.173193" y="466.778824" style="fill: #0000ff; stroke: #0000ff"/>
     <use xlink:href="#m74e96442ce" x="375.909324" y="467.19342" style="fill: #0000ff; stroke: #0000ff"/>
     <use xlink:href="#m74e96442ce" x="379.645455" y="467.601088" style="fill: #0000ff; stroke: #0000ff"/>
     <use xlink:href="#m74e96442ce" x="383.381585" y="467.997302" style="fill: #0000ff; stroke: #0000ff"/>
     <use xlink:href="#m74e96442ce" x="387.117716" y="468.38482" style="fill: #0000ff; stroke: #0000ff"/>
     <use xlink:href="#m74e96442ce" x="390.853846" y="468.766181" style="fill: #0000ff; stroke: #0000ff"/>
     <use xlink:href="#m74e96442ce" x="394.589977" y="469.137114" style="fill: #0000ff; stroke: #0000ff"/>
     <use xlink:href="#m74e96442ce" x="398.326107" y="469.500185" style="fill: #0000ff; stroke: #0000ff"/>
     <use xlink:href="#m74e96442ce" x="402.062238" y="469.857766" style="fill: #0000ff; stroke: #0000ff"/>
     <use xlink:href="#m74e96442ce" x="405.798368" y="470.205819" style="fill: #0000ff; stroke: #0000ff"/>
     <use xlink:href="#m74e96442ce" x="409.534499" y="470.546742" style="fill: #0000ff; stroke: #0000ff"/>
     <use xlink:href="#m74e96442ce" x="413.270629" y="470.882754" style="fill: #0000ff; stroke: #0000ff"/>
     <use xlink:href="#m74e96442ce" x="417.00676" y="471.210032" style="fill: #0000ff; stroke: #0000ff"/>
     <use xlink:href="#m74e96442ce" x="420.74289" y="471.530822" style="fill: #0000ff; stroke: #0000ff"/>
     <use xlink:href="#m74e96442ce" x="424.479021" y="471.847207" style="fill: #0000ff; stroke: #0000ff"/>
     <use xlink:href="#m74e96442ce" x="428.215152" y="472.155562" style="fill: #0000ff; stroke: #0000ff"/>
     <use xlink:href="#m74e96442ce" x="431.951282" y="472.457994" style="fill: #0000ff; stroke: #0000ff"/>
     <use xlink:href="#m74e96442ce" x="435.687413" y="472.756466" style="fill: #0000ff; stroke: #0000ff"/>
     <use xlink:href="#m74e96442ce" x="439.423543" y="473.047532" style="fill: #0000ff; stroke: #0000ff"/>
     <use xlink:href="#m74e96442ce" x="443.159674" y="473.333177" style="fill: #0000ff; stroke: #0000ff"/>
     <use xlink:href="#m74e96442ce" x="446.895804" y="473.615253" style="fill: #0000ff; stroke: #0000ff"/>
     <use xlink:href="#m74e96442ce" x="450.631935" y="473.890481" style="fill: #0000ff; stroke: #0000ff"/>
     <use xlink:href="#m74e96442ce" x="454.368065" y="474.160734" style="fill: #0000ff; stroke: #0000ff"/>
     <use xlink:href="#m74e96442ce" x="458.104196" y="474.427762" style="fill: #0000ff; stroke: #0000ff"/>
     <use xlink:href="#m74e96442ce" x="461.840326" y="474.688443" style="fill: #0000ff; stroke: #0000ff"/>
     <use xlink:href="#m74e96442ce" x="465.576457" y="474.944546" style="fill: #0000ff; stroke: #0000ff"/>
     <use xlink:href="#m74e96442ce" x="469.312587" y="475.197729" style="fill: #0000ff; stroke: #0000ff"/>
     <use xlink:href="#m74e96442ce" x="473.048718" y="475.445016" style="fill: #0000ff; stroke: #0000ff"/>
     <use xlink:href="#m74e96442ce" x="476.784848" y="475.688081" style="fill: #0000ff; stroke: #0000ff"/>
     <use xlink:href="#m74e96442ce" x="480.520979" y="475.928496" style="fill: #0000ff; stroke: #0000ff"/>
     <use xlink:href="#m74e96442ce" x="484.25711" y="476.16342" style="fill: #0000ff; stroke: #0000ff"/>
     <use xlink:href="#m74e96442ce" x="487.99324" y="476.394443" style="fill: #0000ff; stroke: #0000ff"/>
     <use xlink:href="#m74e96442ce" x="491.729371" y="476.623057" style="fill: #0000ff; stroke: #0000ff"/>
     <use xlink:href="#m74e96442ce" x="495.465501" y="476.846548" style="fill: #0000ff; stroke: #0000ff"/>
     <use xlink:href="#m74e96442ce" x="499.201632" y="477.066425" style="fill: #0000ff; stroke: #0000ff"/>
     <use xlink:href="#m74e96442ce" x="502.937762" y="477.284108" style="fill: #0000ff; stroke: #0000ff"/>
     <use xlink:href="#m74e96442ce" x="506.673893" y="477.497001" style="fill: #0000ff; stroke: #0000ff"/>
     <use xlink:href="#m74e96442ce" x="510.410023" y="477.706541" style="fill: #0000ff; stroke: #0000ff"/>
     <use xlink:href="#m74e96442ce" x="514.146154" y="477.914079" style="fill: #0000ff; stroke: #0000ff"/>
     <use xlink:href="#m74e96442ce" x="517.882284" y="478.117131" style="fill: #0000ff; stroke: #0000ff"/>
     <use xlink:href="#m74e96442ce" x="521.618415" y="478.317063" style="fill: #0000ff; stroke: #0000ff"/>
     <use xlink:href="#m74e96442ce" x="525.354545" y="478.515169" style="fill: #0000ff; stroke: #0000ff"/>
     <use xlink:href="#m74e96442ce" x="529.090676" y="478.709063" style="fill: #0000ff; stroke: #0000ff"/>
     <use xlink:href="#m74e96442ce" x="532.826807" y="478.900053" style="fill: #0000ff; stroke: #0000ff"/>
     <use xlink:href="#m74e96442ce" x="536.562937" y="479.089371" style="fill: #0000ff; stroke: #0000ff"/>
     <use xlink:href="#m74e96442ce" x="540.299068" y="479.274731" style="fill: #0000ff; stroke: #0000ff"/>
     <use xlink:href="#m74e96442ce" x="544.035198" y="479.45738" style="fill: #0000ff; stroke: #0000ff"/>
     <use xlink:href="#m74e96442ce" x="547.771329" y="479.638498" style="fill: #0000ff; stroke: #0000ff"/>
     <use xlink:href="#m74e96442ce" x="551.507459" y="479.815889" style="fill: #0000ff; stroke: #0000ff"/>
     <use xlink:href="#m74e96442ce" x="555.24359" y="479.990746" style="fill: #0000ff; stroke: #0000ff"/>
     <use xlink:href="#m74e96442ce" x="558.97972" y="480.1642" style="fill: #0000ff; stroke: #0000ff"/>
     <use xlink:href="#m74e96442ce" x="562.715851" y="480.334139" style="fill: #0000ff; stroke: #0000ff"/>
     <use xlink:href="#m74e96442ce" x="566.451981" y="480.501707" style="fill: #0000ff; stroke: #0000ff"/>
     <use xlink:href="#m74e96442ce" x="570.188112" y="480.667986" style="fill: #0000ff; stroke: #0000ff"/>
     <use xlink:href="#m74e96442ce" x="573.924242" y="480.830945" style="fill: #0000ff; stroke: #0000ff"/>
     <use xlink:href="#m74e96442ce" x="577.660373" y="480.991681" style="fill: #0000ff; stroke: #0000ff"/>
     <use xlink:href="#m74e96442ce" x="581.396503" y="481.151234" style="fill: #0000ff; stroke: #0000ff"/>
     <use xlink:href="#m74e96442ce" x="585.132634" y="481.307647" style="fill: #0000ff; stroke: #0000ff"/>
     <use xlink:href="#m74e96442ce" x="588.868765" y="481.461972" style="fill: #0000ff; stroke: #0000ff"/>
     <use xlink:href="#m74e96442ce" x="592.604895" y="481.615209" style="fill: #0000ff; stroke: #0000ff"/>
     <use xlink:href="#m74e96442ce" x="596.341026" y="481.765472" style="fill: #0000ff; stroke: #0000ff"/>
     <use xlink:href="#m74e96442ce" x="600.077156" y="481.913773" style="fill: #0000ff; stroke: #0000ff"/>
     <use xlink:href="#m74e96442ce" x="603.813287" y="482.061072" style="fill: #0000ff; stroke: #0000ff"/>
     <use xlink:href="#m74e96442ce" x="607.549417" y="482.205552" style="fill: #0000ff; stroke: #0000ff"/>
     <use xlink:href="#m74e96442ce" x="611.285548" y="482.348185" style="fill: #0000ff; stroke: #0000ff"/>
     <use xlink:href="#m74e96442ce" x="615.021678" y="482.489894" style="fill: #0000ff; stroke: #0000ff"/>
     <use xlink:href="#m74e96442ce" x="618.757809" y="482.628927" style="fill: #0000ff; stroke: #0000ff"/>
     <use xlink:href="#m74e96442ce" x="622.493939" y="482.766219" style="fill: #0000ff; stroke: #0000ff"/>
     <use xlink:href="#m74e96442ce" x="626.23007" y="482.902659" style="fill: #0000ff; stroke: #0000ff"/>
     <use xlink:href="#m74e96442ce" x="629.9662" y="483.036556" style="fill: #0000ff; stroke: #0000ff"/>
     <use xlink:href="#m74e96442ce" x="633.702331" y="483.168809" style="fill: #0000ff; stroke: #0000ff"/>
     <use xlink:href="#m74e96442ce" x="637.438462" y="483.300278" style="fill: #0000ff; stroke: #0000ff"/>
     <use xlink:href="#m74e96442ce" x="641.174592" y="483.429326" style="fill: #0000ff; stroke: #0000ff"/>
     <use xlink:href="#m74e96442ce" x="644.910723" y="483.556821" style="fill: #0000ff; stroke: #0000ff"/>
     <use xlink:href="#m74e96442ce" x="648.646853" y="483.683591" style="fill: #0000ff; stroke: #0000ff"/>
     <use xlink:href="#m74e96442ce" x="652.382984" y="483.808056" style="fill: #0000ff; stroke: #0000ff"/>
     <use xlink:href="#m74e96442ce" x="656.119114" y="483.931053" style="fill: #0000ff; stroke: #0000ff"/>
     <use xlink:href="#m74e96442ce" x="659.855245" y="484.05338" style="fill: #0000ff; stroke: #0000ff"/>
     <use xlink:href="#m74e96442ce" x="663.591375" y="484.173509" style="fill: #0000ff; stroke: #0000ff"/>
     <use xlink:href="#m74e96442ce" x="667.327506" y="484.292247" style="fill: #0000ff; stroke: #0000ff"/>
     <use xlink:href="#m74e96442ce" x="671.063636" y="484.410367" style="fill: #0000ff; stroke: #0000ff"/>
     <use xlink:href="#m74e96442ce" x="674.799767" y="484.526389" style="fill: #0000ff; stroke: #0000ff"/>
     <use xlink:href="#m74e96442ce" x="678.535897" y="484.641092" style="fill: #0000ff; stroke: #0000ff"/>
     <use xlink:href="#m74e96442ce" x="682.272028" y="484.755225" style="fill: #0000ff; stroke: #0000ff"/>
     <use xlink:href="#m74e96442ce" x="686.008159" y="484.867352" style="fill: #0000ff; stroke: #0000ff"/>
     <use xlink:href="#m74e96442ce" x="689.744289" y="484.978229" style="fill: #0000ff; stroke: #0000ff"/>
     <use xlink:href="#m74e96442ce" x="693.48042" y="485.088578" style="fill: #0000ff; stroke: #0000ff"/>
     <use xlink:href="#m74e96442ce" x="697.21655" y="485.197009" style="fill: #0000ff; stroke: #0000ff"/>
     <use xlink:href="#m74e96442ce" x="700.952681" y="485.304253" style="fill: #0000ff; stroke: #0000ff"/>
     <use xlink:href="#m74e96442ce" x="704.688811" y="485.41101" style="fill: #0000ff; stroke: #0000ff"/>
     <use xlink:href="#m74e96442ce" x="708.424942" y="485.51593" style="fill: #0000ff; stroke: #0000ff"/>
     <use xlink:href="#m74e96442ce" x="712.161072" y="485.619722" style="fill: #0000ff; stroke: #0000ff"/>
     <use xlink:href="#m74e96442ce" x="715.897203" y="485.723063" style="fill: #0000ff; stroke: #0000ff"/>
     <use xlink:href="#m74e96442ce" x="719.633333" y="485.824645" style="fill: #0000ff; stroke: #0000ff"/>
     <use xlink:href="#m74e96442ce" x="723.369464" y="485.925153" style="fill: #0000ff; stroke: #0000ff"/>
     <use xlink:href="#m74e96442ce" x="727.105594" y="486.025245" style="fill: #0000ff; stroke: #0000ff"/>
     <use xlink:href="#m74e96442ce" x="730.841725" y="486.12365" style="fill: #0000ff; stroke: #0000ff"/>
     <use xlink:href="#m74e96442ce" x="734.577855" y="486.221033" style="fill: #0000ff; stroke: #0000ff"/>
     <use xlink:href="#m74e96442ce" x="738.313986" y="486.318031" style="fill: #0000ff; stroke: #0000ff"/>
     <use xlink:href="#m74e96442ce" x="742.050117" y="486.41341" style="fill: #0000ff; stroke: #0000ff"/>
     <use xlink:href="#m74e96442ce" x="745.786247" y="486.507815" style="fill: #0000ff; stroke: #0000ff"/>
     <use xlink:href="#m74e96442ce" x="749.522378" y="486.601864" style="fill: #0000ff; stroke: #0000ff"/>
     <use xlink:href="#m74e96442ce" x="753.258508" y="486.694359" style="fill: #0000ff; stroke: #0000ff"/>
     <use xlink:href="#m74e96442ce" x="756.994639" y="486.785924" style="fill: #0000ff; stroke: #0000ff"/>
     <use xlink:href="#m74e96442ce" x="760.730769" y="486.877161" style="fill: #0000ff; stroke: #0000ff"/>
     <use xlink:href="#m74e96442ce" x="764.4669" y="486.966904" style="fill: #0000ff; stroke: #0000ff"/>
     <use xlink:href="#m74e96442ce" x="768.20303" y="487.05576" style="fill: #0000ff; stroke: #0000ff"/>
     <use xlink:href="#m74e96442ce" x="771.939161" y="487.144313" style="fill: #0000ff; stroke: #0000ff"/>
     <use xlink:href="#m74e96442ce" x="775.675291" y="487.231429" style="fill: #0000ff; stroke: #0000ff"/>
     <use xlink:href="#m74e96442ce" x="779.411422" y="487.317697" style="fill: #0000ff; stroke: #0000ff"/>
     <use xlink:href="#m74e96442ce" x="783.147552" y="487.403686" style="fill: #0000ff; stroke: #0000ff"/>
     <use xlink:href="#m74e96442ce" x="786.883683" y="487.488292" style="fill: #0000ff; stroke: #0000ff"/>
     <use xlink:href="#m74e96442ce" x="790.619814" y="487.572087" style="fill: #0000ff; stroke: #0000ff"/>
     <use xlink:href="#m74e96442ce" x="794.355944" y="487.655625" style="fill: #0000ff; stroke: #0000ff"/>
     <use xlink:href="#m74e96442ce" x="798.092075" y="487.73783" style="fill: #0000ff; stroke: #0000ff"/>
     <use xlink:href="#m74e96442ce" x="801.828205" y="487.819261" style="fill: #0000ff; stroke: #0000ff"/>
     <use xlink:href="#m74e96442ce" x="805.564336" y="487.900454" style="fill: #0000ff; stroke: #0000ff"/>
     <use xlink:href="#m74e96442ce" x="809.300466" y="487.980363" style="fill: #0000ff; stroke: #0000ff"/>
     <use xlink:href="#m74e96442ce" x="813.036597" y="488.059531" style="fill: #0000ff; stroke: #0000ff"/>
     <use xlink:href="#m74e96442ce" x="816.772727" y="488.138479" style="fill: #0000ff; stroke: #0000ff"/>
    </g>
   </g>
   <g id="line2d_34">
    <path d="M 51.8 474.347148 
L 853.2 474.347148 
" clip-path="url(#p9a3cd3f4ff)" style="fill: none; stroke-dasharray: 7.4,3.2; stroke-dashoffset: 0; stroke: #ff0000; stroke-width: 2"/>
   </g>
   <g id="line2d_35">
    <path d="M 458.104196 530.2 
L 458.104196 28.8 
" clip-path="url(#p9a3cd3f4ff)" style="fill: none; stroke-dasharray: 7.4,3.2; stroke-dashoffset: 0; stroke: #008000; stroke-width: 2"/>
   </g>
   <g id="patch_3">
    <path d="M 51.8 530.2 
L 51.8 28.8 
" style="fill: none; stroke: #000000; stroke-width: 0.8; stroke-linejoin: miter; stroke-linecap: square"/>
   </g>
   <g id="patch_4">
    <path d="M 853.2 530.2 
L 853.2 28.8 
" style="fill: none; stroke: #000000; stroke-width: 0.8; stroke-linejoin: miter; stroke-linecap: square"/>
   </g>
   <g id="patch_5">
    <path d="M 51.8 530.2 
L 853.2 530.2 
" style="fill: none; stroke: #000000; stroke-width: 0.8; stroke-linejoin: miter; stroke-linecap: square"/>
   </g>
   <g id="patch_6">
    <path d="M 51.8 28.8 
L 853.2 28.8 
" style="fill: none; stroke: #000000; stroke-width: 0.8; stroke-linejoin: miter; stroke-linecap: square"/>
   </g>
   <g id="text_20">
    <!-- Unit Cost Breakdown vs. Number of Units Produced -->
    <g transform="translate(247.01125 22.8) scale(0.16 -0.16)">
     <defs>
      <path id="DejaVuSans-42" d="M 1259 2228 
L 1259 519 
L 2272 519 
Q 2781 519 3026 730 
Q 3272 941 3272 1375 
Q 3272 1813 3026 2020 
Q 2781 2228 2272 2228 
L 1259 2228 
z
M 1259 4147 
L 1259 2741 
L 2194 2741 
Q 2656 2741 2882 2914 
Q 3109 3088 3109 3444 
Q 3109 3797 2882 3972 
Q 2656 4147 2194 4147 
L 1259 4147 
z
M 628 4666 
L 2241 4666 
Q 2963 4666 3353 4366 
Q 3744 4066 3744 3513 
Q 3744 3084 3544 2831 
Q 3344 2578 2956 2516 
Q 3422 2416 3680 2098 
Q 3938 1781 3938 1306 
Q 3938 681 3513 340 
Q 3088 0 2303 0 
L 628 0 
L 628 4666 
z
" transform="scale(0.015625)"/>
      <path id="DejaVuSans-61" d="M 2194 1759 
Q 1497 1759 1228 1600 
Q 959 1441 959 1056 
Q 959 750 1161 570 
Q 1363 391 1709 391 
Q 2188 391 2477 730 
Q 2766 1069 2766 1631 
L 2766 1759 
L 2194 1759 
z
M 3341 1997 
L 3341 0 
L 2766 0 
L 2766 531 
Q 2569 213 2275 61 
Q 1981 -91 1556 -91 
Q 1019 -91 701 211 
Q 384 513 384 1019 
Q 384 1609 779 1909 
Q 1175 2209 1959 2209 
L 2766 2209 
L 2766 2266 
Q 2766 2663 2505 2880 
Q 2244 3097 1772 3097 
Q 1472 3097 1187 3025 
Q 903 2953 641 2809 
L 641 3341 
Q 956 3463 1253 3523 
Q 1550 3584 1831 3584 
Q 2591 3584 2966 3190 
Q 3341 2797 3341 1997 
z
" transform="scale(0.015625)"/>
      <path id="DejaVuSans-6b" d="M 581 4863 
L 1159 4863 
L 1159 1991 
L 2875 3500 
L 3609 3500 
L 1753 1863 
L 3688 0 
L 2938 0 
L 1159 1709 
L 1159 0 
L 581 0 
L 581 4863 
z
" transform="scale(0.015625)"/>
      <path id="DejaVuSans-77" d="M 269 3500 
L 844 3500 
L 1563 769 
L 2278 3500 
L 2956 3500 
L 3675 769 
L 4391 3500 
L 4966 3500 
L 4050 0 
L 3372 0 
L 2619 2869 
L 1863 0 
L 1184 0 
L 269 3500 
z
" transform="scale(0.015625)"/>
      <path id="DejaVuSans-76" d="M 191 3500 
L 800 3500 
L 1894 563 
L 2988 3500 
L 3597 3500 
L 2284 0 
L 1503 0 
L 191 3500 
z
" transform="scale(0.015625)"/>
     </defs>
     <use xlink:href="#DejaVuSans-55"/>
     <use xlink:href="#DejaVuSans-6e" x="73.193359"/>
     <use xlink:href="#DejaVuSans-69" x="136.572266"/>
     <use xlink:href="#DejaVuSans-74" x="164.355469"/>
     <use xlink:href="#DejaVuSans-20" x="203.564453"/>
     <use xlink:href="#DejaVuSans-43" x="235.351562"/>
     <use xlink:href="#DejaVuSans-6f" x="305.175781"/>
     <use xlink:href="#DejaVuSans-73" x="366.357422"/>
     <use xlink:href="#DejaVuSans-74" x="418.457031"/>
     <use xlink:href="#DejaVuSans-20" x="457.666016"/>
     <use xlink:href="#DejaVuSans-42" x="489.453125"/>
     <use xlink:href="#DejaVuSans-72" x="558.056641"/>
     <use xlink:href="#DejaVuSans-65" x="596.919922"/>
     <use xlink:href="#DejaVuSans-61" x="658.443359"/>
     <use xlink:href="#DejaVuSans-6b" x="719.722656"/>
     <use xlink:href="#DejaVuSans-64" x="777.632812"/>
     <use xlink:href="#DejaVuSans-6f" x="841.109375"/>
     <use xlink:href="#DejaVuSans-77" x="902.291016"/>
     <use xlink:href="#DejaVuSans-6e" x="984.078125"/>
     <use xlink:href="#DejaVuSans-20" x="1047.457031"/>
     <use xlink:href="#DejaVuSans-76" x="1079.244141"/>
     <use xlink:href="#DejaVuSans-73" x="1138.423828"/>
     <use xlink:href="#DejaVuSans-2e" x="1190.523438"/>
     <use xlink:href="#DejaVuSans-20" x="1222.310547"/>
     <use xlink:href="#DejaVuSans-4e" x="1254.097656"/>
     <use xlink:href="#DejaVuSans-75" x="1328.902344"/>
     <use xlink:href="#DejaVuSans-6d" x="1392.28125"/>
     <use xlink:href="#DejaVuSans-62" x="1489.693359"/>
     <use xlink:href="#DejaVuSans-65" x="1553.169922"/>
     <use xlink:href="#DejaVuSans-72" x="1614.693359"/>
     <use xlink:href="#DejaVuSans-20" x="1655.806641"/>
     <use xlink:href="#DejaVuSans-6f" x="1687.59375"/>
     <use xlink:href="#DejaVuSans-66" x="1748.775391"/>
     <use xlink:href="#DejaVuSans-20" x="1783.980469"/>
     <use xlink:href="#DejaVuSans-55" x="1815.767578"/>
     <use xlink:href="#DejaVuSans-6e" x="1888.960938"/>
     <use xlink:href="#DejaVuSans-69" x="1952.339844"/>
     <use xlink:href="#DejaVuSans-74" x="1980.123047"/>
     <use xlink:href="#DejaVuSans-73" x="2019.332031"/>
     <use xlink:href="#DejaVuSans-20" x="2071.431641"/>
     <use xlink:href="#DejaVuSans-50" x="2103.21875"/>
     <use xlink:href="#DejaVuSans-72" x="2161.771484"/>
     <use xlink:href="#DejaVuSans-6f" x="2200.634766"/>
     <use xlink:href="#DejaVuSans-64" x="2261.816406"/>
     <use xlink:href="#DejaVuSans-75" x="2325.292969"/>
     <use xlink:href="#DejaVuSans-63" x="2388.671875"/>
     <use xlink:href="#DejaVuSans-65" x="2443.652344"/>
     <use xlink:href="#DejaVuSans-64" x="2505.175781"/>
    </g>
   </g>
   <g id="PathCollection_1">
    <defs>
     <path id="m2134cd5d11" d="M 0 5 
C 1.326016 5 2.597899 4.473168 3.535534 3.535534 
C 4.473168 2.597899 5 1.326016 5 0 
C 5 -1.326016 4.473168 -2.597899 3.535534 -3.535534 
C 2.597899 -4.473168 1.326016 -5 0 -5 
C -1.326016 -5 -2.597899 -4.473168 -3.535534 -3.535534 
C -4.473168 -2.597899 -5 -1.326016 -5 0 
C -5 1.326016 -4.473168 2.597899 -3.535534 3.535534 
C -2.597899 4.473168 -1.326016 5 0 5 
z
" style="stroke: #008000"/>
    </defs>
    <g clip-path="url(#p9a3cd3f4ff)">
     <use xlink:href="#m2134cd5d11" x="458.104196" y="474.347148" style="fill: #008000; stroke: #008000"/>
    </g>
   </g>
   <g id="legend_1">
    <g id="patch_7">
     <path d="M 430.565625 126.46875 
L 844.8 126.46875 
Q 847.2 126.46875 847.2 124.06875 
L 847.2 37.2 
Q 847.2 34.8 844.8 34.8 
L 430.565625 34.8 
Q 428.165625 34.8 428.165625 37.2 
L 428.165625 124.06875 
Q 428.165625 126.46875 430.565625 126.46875 
z
" style="fill: #ffffff; opacity: 0.8; stroke: #cccccc; stroke-linejoin: miter"/>
    </g>
    <g id="patch_8">
     <path d="M 432.965625 48.718125 
L 456.965625 48.718125 
L 456.965625 40.318125 
L 432.965625 40.318125 
z
" style="fill: #87ceeb; fill-opacity: 0.6; stroke: #87ceeb; stroke-opacity: 0.6; stroke-linejoin: miter"/>
    </g>
    <g id="text_21">
     <!-- Development Costs (Engineering, Tooling, Support, Flight Test) -->
     <g transform="translate(466.565625 48.718125) scale(0.12 -0.12)">
      <defs>
       <path id="DejaVuSans-44" d="M 1259 4147 
L 1259 519 
L 2022 519 
Q 2988 519 3436 956 
Q 3884 1394 3884 2338 
Q 3884 3275 3436 3711 
Q 2988 4147 2022 4147 
L 1259 4147 
z
M 628 4666 
L 1925 4666 
Q 3281 4666 3915 4102 
Q 4550 3538 4550 2338 
Q 4550 1131 3912 565 
Q 3275 0 1925 0 
L 628 0 
L 628 4666 
z
" transform="scale(0.015625)"/>
       <path id="DejaVuSans-6c" d="M 603 4863 
L 1178 4863 
L 1178 0 
L 603 0 
L 603 4863 
z
" transform="scale(0.015625)"/>
       <path id="DejaVuSans-67" d="M 2906 1791 
Q 2906 2416 2648 2759 
Q 2391 3103 1925 3103 
Q 1463 3103 1205 2759 
Q 947 2416 947 1791 
Q 947 1169 1205 825 
Q 1463 481 1925 481 
Q 2391 481 2648 825 
Q 2906 1169 2906 1791 
z
M 3481 434 
Q 3481 -459 3084 -895 
Q 2688 -1331 1869 -1331 
Q 1566 -1331 1297 -1286 
Q 1028 -1241 775 -1147 
L 775 -588 
Q 1028 -725 1275 -790 
Q 1522 -856 1778 -856 
Q 2344 -856 2625 -561 
Q 2906 -266 2906 331 
L 2906 616 
Q 2728 306 2450 153 
Q 2172 0 1784 0 
Q 1141 0 747 490 
Q 353 981 353 1791 
Q 353 2603 747 3093 
Q 1141 3584 1784 3584 
Q 2172 3584 2450 3431 
Q 2728 3278 2906 2969 
L 2906 3500 
L 3481 3500 
L 3481 434 
z
" transform="scale(0.015625)"/>
       <path id="DejaVuSans-2c" d="M 750 794 
L 1409 794 
L 1409 256 
L 897 -744 
L 494 -744 
L 750 256 
L 750 794 
z
" transform="scale(0.015625)"/>
       <path id="DejaVuSans-54" d="M -19 4666 
L 3928 4666 
L 3928 4134 
L 2272 4134 
L 2272 0 
L 1638 0 
L 1638 4134 
L -19 4134 
L -19 4666 
z
" transform="scale(0.015625)"/>
       <path id="DejaVuSans-53" d="M 3425 4513 
L 3425 3897 
Q 3066 4069 2747 4153 
Q 2428 4238 2131 4238 
Q 1616 4238 1336 4038 
Q 1056 3838 1056 3469 
Q 1056 3159 1242 3001 
Q 1428 2844 1947 2747 
L 2328 2669 
Q 3034 2534 3370 2195 
Q 3706 1856 3706 1288 
Q 3706 609 3251 259 
Q 2797 -91 1919 -91 
Q 1588 -91 1214 -16 
Q 841 59 441 206 
L 441 856 
Q 825 641 1194 531 
Q 1563 422 1919 422 
Q 2459 422 2753 634 
Q 3047 847 3047 1241 
Q 3047 1584 2836 1778 
Q 2625 1972 2144 2069 
L 1759 2144 
Q 1053 2284 737 2584 
Q 422 2884 422 3419 
Q 422 4038 858 4394 
Q 1294 4750 2059 4750 
Q 2388 4750 2728 4690 
Q 3069 4631 3425 4513 
z
" transform="scale(0.015625)"/>
       <path id="DejaVuSans-46" d="M 628 4666 
L 3309 4666 
L 3309 4134 
L 1259 4134 
L 1259 2759 
L 3109 2759 
L 3109 2228 
L 1259 2228 
L 1259 0 
L 628 0 
L 628 4666 
z
" transform="scale(0.015625)"/>
       <path id="DejaVuSans-68" d="M 3513 2113 
L 3513 0 
L 2938 0 
L 2938 2094 
Q 2938 2591 2744 2837 
Q 2550 3084 2163 3084 
Q 1697 3084 1428 2787 
Q 1159 2491 1159 1978 
L 1159 0 
L 581 0 
L 581 4863 
L 1159 4863 
L 1159 2956 
Q 1366 3272 1645 3428 
Q 1925 3584 2291 3584 
Q 2894 3584 3203 3211 
Q 3513 2838 3513 2113 
z
" transform="scale(0.015625)"/>
      </defs>
      <use xlink:href="#DejaVuSans-44"/>
      <use xlink:href="#DejaVuSans-65" x="77.001953"/>
      <use xlink:href="#DejaVuSans-76" x="138.525391"/>
      <use xlink:href="#DejaVuSans-65" x="197.705078"/>
      <use xlink:href="#DejaVuSans-6c" x="259.228516"/>
      <use xlink:href="#DejaVuSans-6f" x="287.011719"/>
      <use xlink:href="#DejaVuSans-70" x="348.193359"/>
      <use xlink:href="#DejaVuSans-6d" x="411.669922"/>
      <use xlink:href="#DejaVuSans-65" x="509.082031"/>
      <use xlink:href="#DejaVuSans-6e" x="570.605469"/>
      <use xlink:href="#DejaVuSans-74" x="633.984375"/>
      <use xlink:href="#DejaVuSans-20" x="673.193359"/>
      <use xlink:href="#DejaVuSans-43" x="704.980469"/>
      <use xlink:href="#DejaVuSans-6f" x="774.804688"/>
      <use xlink:href="#DejaVuSans-73" x="835.986328"/>
      <use xlink:href="#DejaVuSans-74" x="888.085938"/>
      <use xlink:href="#DejaVuSans-73" x="927.294922"/>
      <use xlink:href="#DejaVuSans-20" x="979.394531"/>
      <use xlink:href="#DejaVuSans-28" x="1011.181641"/>
      <use xlink:href="#DejaVuSans-45" x="1050.195312"/>
      <use xlink:href="#DejaVuSans-6e" x="1113.378906"/>
      <use xlink:href="#DejaVuSans-67" x="1176.757812"/>
      <use xlink:href="#DejaVuSans-69" x="1240.234375"/>
      <use xlink:href="#DejaVuSans-6e" x="1268.017578"/>
      <use xlink:href="#DejaVuSans-65" x="1331.396484"/>
      <use xlink:href="#DejaVuSans-65" x="1392.919922"/>
      <use xlink:href="#DejaVuSans-72" x="1454.443359"/>
      <use xlink:href="#DejaVuSans-69" x="1495.556641"/>
      <use xlink:href="#DejaVuSans-6e" x="1523.339844"/>
      <use xlink:href="#DejaVuSans-67" x="1586.71875"/>
      <use xlink:href="#DejaVuSans-2c" x="1650.195312"/>
      <use xlink:href="#DejaVuSans-20" x="1681.982422"/>
      <use xlink:href="#DejaVuSans-54" x="1713.769531"/>
      <use xlink:href="#DejaVuSans-6f" x="1757.853516"/>
      <use xlink:href="#DejaVuSans-6f" x="1819.035156"/>
      <use xlink:href="#DejaVuSans-6c" x="1880.216797"/>
      <use xlink:href="#DejaVuSans-69" x="1908"/>
      <use xlink:href="#DejaVuSans-6e" x="1935.783203"/>
      <use xlink:href="#DejaVuSans-67" x="1999.162109"/>
      <use xlink:href="#DejaVuSans-2c" x="2062.638672"/>
      <use xlink:href="#DejaVuSans-20" x="2094.425781"/>
      <use xlink:href="#DejaVuSans-53" x="2126.212891"/>
      <use xlink:href="#DejaVuSans-75" x="2189.689453"/>
      <use xlink:href="#DejaVuSans-70" x="2253.068359"/>
      <use xlink:href="#DejaVuSans-70" x="2316.544922"/>
      <use xlink:href="#DejaVuSans-6f" x="2380.021484"/>
      <use xlink:href="#DejaVuSans-72" x="2441.203125"/>
      <use xlink:href="#DejaVuSans-74" x="2482.316406"/>
      <use xlink:href="#DejaVuSans-2c" x="2521.525391"/>
      <use xlink:href="#DejaVuSans-20" x="2553.3125"/>
      <use xlink:href="#DejaVuSans-46" x="2585.099609"/>
      <use xlink:href="#DejaVuSans-6c" x="2642.619141"/>
      <use xlink:href="#DejaVuSans-69" x="2670.402344"/>
      <use xlink:href="#DejaVuSans-67" x="2698.185547"/>
      <use xlink:href="#DejaVuSans-68" x="2761.662109"/>
      <use xlink:href="#DejaVuSans-74" x="2825.041016"/>
      <use xlink:href="#DejaVuSans-20" x="2864.25"/>
      <use xlink:href="#DejaVuSans-54" x="2896.037109"/>
      <use xlink:href="#DejaVuSans-65" x="2940.121094"/>
      <use xlink:href="#DejaVuSans-73" x="3001.644531"/>
      <use xlink:href="#DejaVuSans-74" x="3053.744141"/>
      <use xlink:href="#DejaVuSans-29" x="3092.953125"/>
     </g>
    </g>
    <g id="patch_9">
     <path d="M 432.965625 66.331875 
L 456.965625 66.331875 
L 456.965625 57.931875 
L 432.965625 57.931875 
z
" style="fill: #90ee90; fill-opacity: 0.6; stroke: #90ee90; stroke-opacity: 0.6; stroke-linejoin: miter"/>
    </g>
    <g id="text_22">
     <!-- Fixed Costs (Manufacturing, Materials, Engines) -->
     <g transform="translate(466.565625 66.331875) scale(0.12 -0.12)">
      <defs>
       <path id="DejaVuSans-78" d="M 3513 3500 
L 2247 1797 
L 3578 0 
L 2900 0 
L 1881 1375 
L 863 0 
L 184 0 
L 1544 1831 
L 300 3500 
L 978 3500 
L 1906 2253 
L 2834 3500 
L 3513 3500 
z
" transform="scale(0.015625)"/>
       <path id="DejaVuSans-4d" d="M 628 4666 
L 1569 4666 
L 2759 1491 
L 3956 4666 
L 4897 4666 
L 4897 0 
L 4281 0 
L 4281 4097 
L 3078 897 
L 2444 897 
L 1241 4097 
L 1241 0 
L 628 0 
L 628 4666 
z
" transform="scale(0.015625)"/>
      </defs>
      <use xlink:href="#DejaVuSans-46"/>
      <use xlink:href="#DejaVuSans-69" x="50.269531"/>
      <use xlink:href="#DejaVuSans-78" x="78.052734"/>
      <use xlink:href="#DejaVuSans-65" x="134.107422"/>
      <use xlink:href="#DejaVuSans-64" x="195.630859"/>
      <use xlink:href="#DejaVuSans-20" x="259.107422"/>
      <use xlink:href="#DejaVuSans-43" x="290.894531"/>
      <use xlink:href="#DejaVuSans-6f" x="360.71875"/>
      <use xlink:href="#DejaVuSans-73" x="421.900391"/>
      <use xlink:href="#DejaVuSans-74" x="474"/>
      <use xlink:href="#DejaVuSans-73" x="513.208984"/>
      <use xlink:href="#DejaVuSans-20" x="565.308594"/>
      <use xlink:href="#DejaVuSans-28" x="597.095703"/>
      <use xlink:href="#DejaVuSans-4d" x="636.109375"/>
      <use xlink:href="#DejaVuSans-61" x="722.388672"/>
      <use xlink:href="#DejaVuSans-6e" x="783.667969"/>
      <use xlink:href="#DejaVuSans-75" x="847.046875"/>
      <use xlink:href="#DejaVuSans-66" x="910.425781"/>
      <use xlink:href="#DejaVuSans-61" x="945.630859"/>
      <use xlink:href="#DejaVuSans-63" x="1006.910156"/>
      <use xlink:href="#DejaVuSans-74" x="1061.890625"/>
      <use xlink:href="#DejaVuSans-75" x="1101.099609"/>
      <use xlink:href="#DejaVuSans-72" x="1164.478516"/>
      <use xlink:href="#DejaVuSans-69" x="1205.591797"/>
      <use xlink:href="#DejaVuSans-6e" x="1233.375"/>
      <use xlink:href="#DejaVuSans-67" x="1296.753906"/>
      <use xlink:href="#DejaVuSans-2c" x="1360.230469"/>
      <use xlink:href="#DejaVuSans-20" x="1392.017578"/>
      <use xlink:href="#DejaVuSans-4d" x="1423.804688"/>
      <use xlink:href="#DejaVuSans-61" x="1510.083984"/>
      <use xlink:href="#DejaVuSans-74" x="1571.363281"/>
      <use xlink:href="#DejaVuSans-65" x="1610.572266"/>
      <use xlink:href="#DejaVuSans-72" x="1672.095703"/>
      <use xlink:href="#DejaVuSans-69" x="1713.208984"/>
      <use xlink:href="#DejaVuSans-61" x="1740.992188"/>
      <use xlink:href="#DejaVuSans-6c" x="1802.271484"/>
      <use xlink:href="#DejaVuSans-73" x="1830.054688"/>
      <use xlink:href="#DejaVuSans-2c" x="1882.154297"/>
      <use xlink:href="#DejaVuSans-20" x="1913.941406"/>
      <use xlink:href="#DejaVuSans-45" x="1945.728516"/>
      <use xlink:href="#DejaVuSans-6e" x="2008.912109"/>
      <use xlink:href="#DejaVuSans-67" x="2072.291016"/>
      <use xlink:href="#DejaVuSans-69" x="2135.767578"/>
      <use xlink:href="#DejaVuSans-6e" x="2163.550781"/>
      <use xlink:href="#DejaVuSans-65" x="2226.929688"/>
      <use xlink:href="#DejaVuSans-73" x="2288.453125"/>
      <use xlink:href="#DejaVuSans-29" x="2340.552734"/>
     </g>
    </g>
    <g id="line2d_36">
     <path d="M 432.965625 79.745625 
L 444.965625 79.745625 
L 456.965625 79.745625 
" style="fill: none; stroke: #0000ff; stroke-width: 2; stroke-linecap: square"/>
     <g>
      <use xlink:href="#m74e96442ce" x="444.965625" y="79.745625" style="fill: #0000ff; stroke: #0000ff"/>
     </g>
    </g>
    <g id="text_23">
     <!-- Total Unit Cost -->
     <g transform="translate(466.565625 83.945625) scale(0.12 -0.12)">
      <use xlink:href="#DejaVuSans-54"/>
      <use xlink:href="#DejaVuSans-6f" x="44.083984"/>
      <use xlink:href="#DejaVuSans-74" x="105.265625"/>
      <use xlink:href="#DejaVuSans-61" x="144.474609"/>
      <use xlink:href="#DejaVuSans-6c" x="205.753906"/>
      <use xlink:href="#DejaVuSans-20" x="233.537109"/>
      <use xlink:href="#DejaVuSans-55" x="265.324219"/>
      <use xlink:href="#DejaVuSans-6e" x="338.517578"/>
      <use xlink:href="#DejaVuSans-69" x="401.896484"/>
      <use xlink:href="#DejaVuSans-74" x="429.679688"/>
      <use xlink:href="#DejaVuSans-20" x="468.888672"/>
      <use xlink:href="#DejaVuSans-43" x="500.675781"/>
      <use xlink:href="#DejaVuSans-6f" x="570.5"/>
      <use xlink:href="#DejaVuSans-73" x="631.681641"/>
      <use xlink:href="#DejaVuSans-74" x="683.78125"/>
     </g>
    </g>
    <g id="line2d_37">
     <path d="M 432.965625 97.359375 
L 444.965625 97.359375 
L 456.965625 97.359375 
" style="fill: none; stroke-dasharray: 7.4,3.2; stroke-dashoffset: 0; stroke: #ff0000; stroke-width: 2"/>
    </g>
    <g id="text_24">
     <!-- Sales Price (24,000,000) -->
     <g transform="translate(466.565625 101.559375) scale(0.12 -0.12)">
      <defs>
       <path id="DejaVuSans-20ac" d="M 3647 4306 
L 3647 3641 
Q 3363 3969 3098 4109 
Q 2834 4250 2516 4250 
Q 2025 4250 1709 3937 
Q 1394 3625 1294 3041 
L 3097 3041 
L 2925 2656 
L 1244 2656 
Q 1238 2581 1236 2509 
Q 1234 2438 1234 2328 
Q 1234 2228 1236 2156 
Q 1238 2084 1244 2009 
L 2638 2009 
L 2463 1625 
L 1294 1625 
Q 1394 1041 1709 725 
Q 2025 409 2516 409 
Q 2834 409 3098 550 
Q 3363 691 3647 1019 
L 3647 359 
Q 3369 134 3080 21 
Q 2791 -91 2491 -91 
Q 1750 -91 1267 362 
Q 784 816 659 1625 
L 0 1625 
L 172 2009 
L 606 2009 
Q 606 2081 604 2154 
Q 603 2228 603 2328 
Q 603 2438 604 2511 
Q 606 2584 606 2656 
L 0 2656 
L 172 3041 
L 659 3041 
Q 784 3844 1268 4297 
Q 1753 4750 2491 4750 
Q 2797 4750 3086 4639 
Q 3375 4528 3647 4306 
z
" transform="scale(0.015625)"/>
       <path id="DejaVuSans-34" d="M 2419 4116 
L 825 1625 
L 2419 1625 
L 2419 4116 
z
M 2253 4666 
L 3047 4666 
L 3047 1625 
L 3713 1625 
L 3713 1100 
L 3047 1100 
L 3047 0 
L 2419 0 
L 2419 1100 
L 313 1100 
L 313 1709 
L 2253 4666 
z
" transform="scale(0.015625)"/>
      </defs>
      <use xlink:href="#DejaVuSans-53"/>
      <use xlink:href="#DejaVuSans-61" x="63.476562"/>
      <use xlink:href="#DejaVuSans-6c" x="124.755859"/>
      <use xlink:href="#DejaVuSans-65" x="152.539062"/>
      <use xlink:href="#DejaVuSans-73" x="214.0625"/>
      <use xlink:href="#DejaVuSans-20" x="266.162109"/>
      <use xlink:href="#DejaVuSans-50" x="297.949219"/>
      <use xlink:href="#DejaVuSans-72" x="356.501953"/>
      <use xlink:href="#DejaVuSans-69" x="397.615234"/>
      <use xlink:href="#DejaVuSans-63" x="425.398438"/>
      <use xlink:href="#DejaVuSans-65" x="480.378906"/>
      <use xlink:href="#DejaVuSans-20" x="541.902344"/>
      <use xlink:href="#DejaVuSans-28" x="573.689453"/>
      <use xlink:href="#DejaVuSans-20ac" x="612.703125"/>
      <use xlink:href="#DejaVuSans-32" x="676.326172"/>
      <use xlink:href="#DejaVuSans-34" x="739.949219"/>
      <use xlink:href="#DejaVuSans-2c" x="803.572266"/>
      <use xlink:href="#DejaVuSans-30" x="835.359375"/>
      <use xlink:href="#DejaVuSans-30" x="898.982422"/>
      <use xlink:href="#DejaVuSans-30" x="962.605469"/>
      <use xlink:href="#DejaVuSans-2c" x="1026.228516"/>
      <use xlink:href="#DejaVuSans-30" x="1058.015625"/>
      <use xlink:href="#DejaVuSans-30" x="1121.638672"/>
      <use xlink:href="#DejaVuSans-30" x="1185.261719"/>
      <use xlink:href="#DejaVuSans-29" x="1248.884766"/>
     </g>
    </g>
    <g id="line2d_38">
     <path d="M 432.965625 114.973125 
L 444.965625 114.973125 
L 456.965625 114.973125 
" style="fill: none; stroke-dasharray: 7.4,3.2; stroke-dashoffset: 0; stroke: #008000; stroke-width: 2"/>
    </g>
    <g id="text_25">
     <!-- Break-even at 104 units -->
     <g transform="translate(466.565625 119.173125) scale(0.12 -0.12)">
      <defs>
       <path id="DejaVuSans-2d" d="M 313 2009 
L 1997 2009 
L 1997 1497 
L 313 1497 
L 313 2009 
z
" transform="scale(0.015625)"/>
      </defs>
      <use xlink:href="#DejaVuSans-42"/>
      <use xlink:href="#DejaVuSans-72" x="68.603516"/>
      <use xlink:href="#DejaVuSans-65" x="107.466797"/>
      <use xlink:href="#DejaVuSans-61" x="168.990234"/>
      <use xlink:href="#DejaVuSans-6b" x="230.269531"/>
      <use xlink:href="#DejaVuSans-2d" x="288.179688"/>
      <use xlink:href="#DejaVuSans-65" x="324.263672"/>
      <use xlink:href="#DejaVuSans-76" x="385.787109"/>
      <use xlink:href="#DejaVuSans-65" x="444.966797"/>
      <use xlink:href="#DejaVuSans-6e" x="506.490234"/>
      <use xlink:href="#DejaVuSans-20" x="569.869141"/>
      <use xlink:href="#DejaVuSans-61" x="601.65625"/>
      <use xlink:href="#DejaVuSans-74" x="662.935547"/>
      <use xlink:href="#DejaVuSans-20" x="702.144531"/>
      <use xlink:href="#DejaVuSans-31" x="733.931641"/>
      <use xlink:href="#DejaVuSans-30" x="797.554688"/>
      <use xlink:href="#DejaVuSans-34" x="861.177734"/>
      <use xlink:href="#DejaVuSans-20" x="924.800781"/>
      <use xlink:href="#DejaVuSans-75" x="956.587891"/>
      <use xlink:href="#DejaVuSans-6e" x="1019.966797"/>
      <use xlink:href="#DejaVuSans-69" x="1083.345703"/>
      <use xlink:href="#DejaVuSans-74" x="1111.128906"/>
      <use xlink:href="#DejaVuSans-73" x="1150.337891"/>
     </g>
    </g>
   </g>
  </g>
 </g>
 <defs>
  <clipPath id="p9a3cd3f4ff">
   <rect x="51.8" y="28.8" width="801.4" height="501.4"/>
  </clipPath>
 </defs>
</svg>
