<?xml version="1.0" encoding="utf-8" standalone="no"?>
<!DOCTYPE svg PUBLIC "-//W3C//DTD SVG 1.1//EN"
  "http://www.w3.org/Graphics/SVG/1.1/DTD/svg11.dtd">
<svg xmlns:xlink="http://www.w3.org/1999/xlink" width="1008pt" height="648pt" viewBox="0 0 1008 648" xmlns="http://www.w3.org/2000/svg" version="1.1">
 <metadata>
  <rdf:RDF xmlns:dc="http://purl.org/dc/elements/1.1/" xmlns:cc="http://creativecommons.org/ns#" xmlns:rdf="http://www.w3.org/1999/02/22-rdf-syntax-ns#">
   <cc:Work>
    <dc:type rdf:resource="http://purl.org/dc/dcmitype/StillImage"/>
    <dc:date>2025-02-25T16:41:33.626305</dc:date>
    <dc:format>image/svg+xml</dc:format>
    <dc:creator>
     <cc:Agent>
      <dc:title>Matplotlib v3.8.4, https://matplotlib.org/</dc:title>
     </cc:Agent>
    </dc:creator>
   </cc:Work>
  </rdf:RDF>
 </metadata>
 <defs>
  <style type="text/css">*{stroke-linejoin: round; stroke-linecap: butt}</style>
 </defs>
 <g id="figure_1">
  <g id="patch_1">
   <path d="M 0 648 
L 1008 648 
L 1008 0 
L 0 0 
z
" style="fill: #ffffff"/>
  </g>
  <g id="axes_1">
   <g id="patch_2">
    <path d="M 52.05 597.2 
L 948.825 597.2 
L 948.825 15.8 
L 52.05 15.8 
z
" style="fill: #ffffff"/>
   </g>
   <g id="PolyCollection_1">
    <defs>
     <path id="m8d728cd845" d="M 52.05 -144.821519 
L 52.05 -50.8 
L 61.489737 -50.8 
L 70.929474 -50.8 
L 80.369211 -50.8 
L 89.808947 -50.8 
L 99.248684 -50.8 
L 108.688421 -50.8 
L 118.128158 -50.8 
L 127.567895 -50.8 
L 137.007632 -50.8 
L 146.447368 -50.8 
L 155.887105 -50.8 
L 165.326842 -50.8 
L 174.766579 -50.8 
L 184.206316 -50.8 
L 193.646053 -50.8 
L 203.085789 -50.8 
L 212.525526 -50.8 
L 221.965263 -50.8 
L 231.405 -50.8 
L 240.844737 -50.8 
L 250.284474 -50.8 
L 259.724211 -50.8 
L 269.163947 -50.8 
L 278.603684 -50.8 
L 288.043421 -50.8 
L 297.483158 -50.8 
L 306.922895 -50.8 
L 316.362632 -50.8 
L 325.802368 -50.8 
L 335.242105 -50.8 
L 344.681842 -50.8 
L 354.121579 -50.8 
L 363.561316 -50.8 
L 373.001053 -50.8 
L 382.440789 -50.8 
L 391.880526 -50.8 
L 401.320263 -50.8 
L 410.76 -50.8 
L 420.199737 -50.8 
L 429.639474 -50.8 
L 439.079211 -50.8 
L 448.518947 -50.8 
L 457.958684 -50.8 
L 467.398421 -50.8 
L 476.838158 -50.8 
L 486.277895 -50.8 
L 495.717632 -50.8 
L 505.157368 -50.8 
L 514.597105 -50.8 
L 524.036842 -50.8 
L 533.476579 -50.8 
L 542.916316 -50.8 
L 552.356053 -50.8 
L 561.795789 -50.8 
L 571.235526 -50.8 
L 580.675263 -50.8 
L 590.115 -50.8 
L 599.554737 -50.8 
L 608.994474 -50.8 
L 618.434211 -50.8 
L 627.873947 -50.8 
L 637.313684 -50.8 
L 646.753421 -50.8 
L 656.193158 -50.8 
L 665.632895 -50.8 
L 675.072632 -50.8 
L 684.512368 -50.8 
L 693.952105 -50.8 
L 703.391842 -50.8 
L 712.831579 -50.8 
L 722.271316 -50.8 
L 731.711053 -50.8 
L 741.150789 -50.8 
L 750.590526 -50.8 
L 760.030263 -50.8 
L 769.47 -50.8 
L 778.909737 -50.8 
L 788.349474 -50.8 
L 797.789211 -50.8 
L 807.228947 -50.8 
L 816.668684 -50.8 
L 826.108421 -50.8 
L 835.548158 -50.8 
L 844.987895 -50.8 
L 854.427632 -50.8 
L 863.867368 -50.8 
L 873.307105 -50.8 
L 882.746842 -50.8 
L 892.186579 -50.8 
L 901.626316 -50.8 
L 911.066053 -50.8 
L 920.505789 -50.8 
L 929.945526 -50.8 
L 939.385263 -50.8 
L 948.825 -50.8 
L 948.825 -74.397799 
L 948.825 -74.397799 
L 939.385263 -74.504374 
L 929.945526 -74.612541 
L 920.505789 -74.722341 
L 911.066053 -74.833816 
L 901.626316 -74.947009 
L 892.186579 -75.061965 
L 882.746842 -75.178731 
L 873.307105 -75.297356 
L 863.867368 -75.41789 
L 854.427632 -75.540384 
L 844.987895 -75.664895 
L 835.548158 -75.791477 
L 826.108421 -75.92019 
L 816.668684 -76.051095 
L 807.228947 -76.184256 
L 797.789211 -76.319738 
L 788.349474 -76.45761 
L 778.909737 -76.597946 
L 769.47 -76.740819 
L 760.030263 -76.886308 
L 750.590526 -77.034494 
L 741.150789 -77.185463 
L 731.711053 -77.339304 
L 722.271316 -77.49611 
L 712.831579 -77.655978 
L 703.391842 -77.819011 
L 693.952105 -77.985316 
L 684.512368 -78.155005 
L 675.072632 -78.328194 
L 665.632895 -78.505008 
L 656.193158 -78.685576 
L 646.753421 -78.870034 
L 637.313684 -79.058526 
L 627.873947 -79.251202 
L 618.434211 -79.44822 
L 608.994474 -79.649749 
L 599.554737 -79.855965 
L 590.115 -80.067053 
L 580.675263 -80.283212 
L 571.235526 -80.50465 
L 561.795789 -80.731586 
L 552.356053 -80.964256 
L 542.916316 -81.202906 
L 533.476579 -81.447801 
L 524.036842 -81.69922 
L 514.597105 -81.957461 
L 505.157368 -82.222842 
L 495.717632 -82.495701 
L 486.277895 -82.776399 
L 476.838158 -83.065324 
L 467.398421 -83.362888 
L 457.958684 -83.669536 
L 448.518947 -83.985745 
L 439.079211 -84.312026 
L 429.639474 -84.648931 
L 420.199737 -84.997056 
L 410.76 -85.357043 
L 401.320263 -85.729588 
L 391.880526 -86.115448 
L 382.440789 -86.515441 
L 373.001053 -86.930461 
L 363.561316 -87.361482 
L 354.121579 -87.80957 
L 344.681842 -88.275892 
L 335.242105 -88.761732 
L 325.802368 -89.268505 
L 316.362632 -89.797771 
L 306.922895 -90.351262 
L 297.483158 -90.930904 
L 288.043421 -91.53884 
L 278.603684 -92.177474 
L 269.163947 -92.849504 
L 259.724211 -93.557974 
L 250.284474 -94.30633 
L 240.844737 -95.098499 
L 231.405 -95.938971 
L 221.965263 -96.832907 
L 212.525526 -97.786283 
L 203.085789 -98.806053 
L 193.646053 -99.900371 
L 184.206316 -101.078872 
L 174.766579 -102.353033 
L 165.326842 -103.73666 
L 155.887105 -105.246526 
L 146.447368 -106.903252 
L 137.007632 -108.732519 
L 127.567895 -110.766793 
L 118.128158 -113.047825 
L 108.688421 -115.630362 
L 99.248684 -118.587879 
L 89.808947 -122.021728 
L 80.369211 -126.07641 
L 70.929474 -130.966548 
L 61.489737 -137.027755 
L 52.05 -144.821519 
z
" style="stroke: #87ceeb; stroke-opacity: 0.6"/>
    </defs>
    <g clip-path="url(#p141840b72a)">
     <use xlink:href="#m8d728cd845" x="0" y="648" style="fill: #87ceeb; fill-opacity: 0.6; stroke: #87ceeb; stroke-opacity: 0.6"/>
    </g>
   </g>
   <g id="PolyCollection_2">
    <defs>
     <path id="m910aa1ca25" d="M 52.05 -632.2 
L 52.05 -144.821519 
L 61.489737 -137.027755 
L 70.929474 -130.966548 
L 80.369211 -126.07641 
L 89.808947 -122.021728 
L 99.248684 -118.587879 
L 108.688421 -115.630362 
L 118.128158 -113.047825 
L 127.567895 -110.766793 
L 137.007632 -108.732519 
L 146.447368 -106.903252 
L 155.887105 -105.246526 
L 165.326842 -103.73666 
L 174.766579 -102.353033 
L 184.206316 -101.078872 
L 193.646053 -99.900371 
L 203.085789 -98.806053 
L 212.525526 -97.786283 
L 221.965263 -96.832907 
L 231.405 -95.938971 
L 240.844737 -95.098499 
L 250.284474 -94.30633 
L 259.724211 -93.557974 
L 269.163947 -92.849504 
L 278.603684 -92.177474 
L 288.043421 -91.53884 
L 297.483158 -90.930904 
L 306.922895 -90.351262 
L 316.362632 -89.797771 
L 325.802368 -89.268505 
L 335.242105 -88.761732 
L 344.681842 -88.275892 
L 354.121579 -87.80957 
L 363.561316 -87.361482 
L 373.001053 -86.930461 
L 382.440789 -86.515441 
L 391.880526 -86.115448 
L 401.320263 -85.729588 
L 410.76 -85.357043 
L 420.199737 -84.997056 
L 429.639474 -84.648931 
L 439.079211 -84.312026 
L 448.518947 -83.985745 
L 457.958684 -83.669536 
L 467.398421 -83.362888 
L 476.838158 -83.065324 
L 486.277895 -82.776399 
L 495.717632 -82.495701 
L 505.157368 -82.222842 
L 514.597105 -81.957461 
L 524.036842 -81.69922 
L 533.476579 -81.447801 
L 542.916316 -81.202906 
L 552.356053 -80.964256 
L 561.795789 -80.731586 
L 571.235526 -80.50465 
L 580.675263 -80.283212 
L 590.115 -80.067053 
L 599.554737 -79.855965 
L 608.994474 -79.649749 
L 618.434211 -79.44822 
L 627.873947 -79.251202 
L 637.313684 -79.058526 
L 646.753421 -78.870034 
L 656.193158 -78.685576 
L 665.632895 -78.505008 
L 675.072632 -78.328194 
L 684.512368 -78.155005 
L 693.952105 -77.985316 
L 703.391842 -77.819011 
L 712.831579 -77.655978 
L 722.271316 -77.49611 
L 731.711053 -77.339304 
L 741.150789 -77.185463 
L 750.590526 -77.034494 
L 760.030263 -76.886308 
L 769.47 -76.740819 
L 778.909737 -76.597946 
L 788.349474 -76.45761 
L 797.789211 -76.319738 
L 807.228947 -76.184256 
L 816.668684 -76.051095 
L 826.108421 -75.92019 
L 835.548158 -75.791477 
L 844.987895 -75.664895 
L 854.427632 -75.540384 
L 863.867368 -75.41789 
L 873.307105 -75.297356 
L 882.746842 -75.178731 
L 892.186579 -75.061965 
L 901.626316 -74.947009 
L 911.066053 -74.833816 
L 920.505789 -74.722341 
L 929.945526 -74.612541 
L 939.385263 -74.504374 
L 948.825 -74.397799 
L 948.825 -112.12432 
L 948.825 -112.12432 
L 939.385263 -112.55062 
L 929.945526 -112.984526 
L 920.505789 -113.429655 
L 911.066053 -113.879502 
L 901.626316 -114.337634 
L 892.186579 -114.807886 
L 882.746842 -115.283404 
L 873.307105 -115.767971 
L 863.867368 -116.265663 
L 854.427632 -116.769247 
L 844.987895 -117.282742 
L 835.548158 -117.810493 
L 826.108421 -118.344851 
L 816.668684 -118.8901 
L 807.228947 -119.450881 
L 797.789211 -120.019093 
L 788.349474 -120.599311 
L 778.909737 -121.196509 
L 769.47 -121.802089 
L 760.030263 -122.420955 
L 750.590526 -123.058447 
L 741.150789 -123.705428 
L 731.711053 -124.367166 
L 722.271316 -125.049417 
L 712.831579 -125.742448 
L 703.391842 -126.451939 
L 693.952105 -127.184116 
L 684.512368 -127.928588 
L 675.072632 -128.691503 
L 665.632895 -129.47962 
L 656.193158 -130.281824 
L 646.753421 -131.104794 
L 637.313684 -131.9559 
L 627.873947 -132.823222 
L 618.434211 -133.71405 
L 608.994474 -134.63646 
L 599.554737 -135.577638 
L 590.115 -136.545579 
L 580.675263 -137.549179 
L 571.235526 -138.574629 
L 561.795789 -139.630746 
L 552.356053 -140.727389 
L 542.916316 -141.849634 
L 533.476579 -143.00727 
L 524.036842 -144.211297 
L 514.597105 -145.445541 
L 505.157368 -146.720947 
L 495.717632 -148.049885 
L 486.277895 -149.414777 
L 476.838158 -150.827966 
L 467.398421 -152.303481 
L 457.958684 -153.82217 
L 448.518947 -155.398084 
L 439.079211 -157.047299 
L 429.639474 -158.748896 
L 420.199737 -160.519054 
L 410.76 -162.37641 
L 401.320263 -164.298075 
L 391.880526 -166.302922 
L 382.440789 -168.412869 
L 373.001053 -170.602843 
L 363.561316 -172.89521 
L 354.121579 -175.316182 
L 344.681842 -177.838316 
L 335.242105 -180.488637 
L 325.802368 -183.299119 
L 316.362632 -186.239862 
L 306.922895 -189.344283 
L 297.483158 -192.652368 
L 288.043421 -196.131901 
L 278.603684 -199.825419 
L 269.163947 -203.784468 
L 259.724211 -207.975234 
L 250.284474 -212.453867 
L 240.844737 -217.28942 
L 231.405 -222.44852 
L 221.965263 -228.00883 
L 212.525526 -234.067534 
L 203.085789 -240.596956 
L 193.646053 -247.711259 
L 184.206316 -255.556382 
L 174.766579 -264.123866 
L 165.326842 -273.595764 
L 155.887105 -284.211325 
L 146.447368 -296.018195 
L 137.007632 -309.341244 
L 127.567895 -324.624067 
L 118.128158 -342.083793 
L 108.688421 -362.402337 
L 99.248684 -386.566791 
L 89.808947 -415.389532 
L 80.369211 -450.712274 
L 70.929474 -495.486728 
L 61.489737 -553.390326 
L 52.05 -632.2 
z
" style="stroke: #90ee90; stroke-opacity: 0.6"/>
    </defs>
    <g clip-path="url(#p141840b72a)">
     <use xlink:href="#m910aa1ca25" x="0" y="648" style="fill: #90ee90; fill-opacity: 0.6; stroke: #90ee90; stroke-opacity: 0.6"/>
    </g>
   </g>
   <g id="matplotlib.axis_1">
    <g id="xtick_1">
     <g id="line2d_1">
      <path d="M 193.646053 597.2 
L 193.646053 15.8 
" clip-path="url(#p141840b72a)" style="fill: none; stroke: #b0b0b0; stroke-width: 0.8; stroke-linecap: square"/>
     </g>
     <g id="line2d_2">
      <defs>
       <path id="m288c719b55" d="M 0 0 
L 0 3.5 
" style="stroke: #000000; stroke-width: 0.8"/>
      </defs>
      <g>
       <use xlink:href="#m288c719b55" x="193.646053" y="597.2" style="stroke: #000000; stroke-width: 0.8"/>
      </g>
     </g>
     <g id="text_1">
      <!-- 20 -->
      <g transform="translate(186.549803 613.722188) scale(0.14 -0.14)">
       <defs>
        <path id="Calibri-32" d="M 2888 231 
Q 2888 175 2880 131 
Q 2872 88 2858 58 
Q 2844 28 2820 14 
Q 2797 0 2769 0 
L 534 0 
Q 491 0 458 11 
Q 425 22 401 47 
Q 378 72 367 119 
Q 356 166 356 234 
Q 356 297 361 344 
Q 366 391 381 427 
Q 397 463 420 498 
Q 444 534 481 575 
L 1266 1406 
Q 1538 1694 1702 1922 
Q 1866 2150 1955 2337 
Q 2044 2525 2072 2678 
Q 2100 2831 2100 2966 
Q 2100 3100 2056 3220 
Q 2013 3341 1930 3431 
Q 1847 3522 1722 3575 
Q 1597 3628 1434 3628 
Q 1244 3628 1092 3575 
Q 941 3522 827 3459 
Q 713 3397 636 3344 
Q 559 3291 522 3291 
Q 500 3291 483 3303 
Q 466 3316 455 3344 
Q 444 3372 437 3419 
Q 431 3466 431 3531 
Q 431 3578 434 3612 
Q 438 3647 445 3672 
Q 453 3697 465 3719 
Q 478 3741 515 3773 
Q 553 3806 645 3862 
Q 738 3919 877 3973 
Q 1016 4028 1183 4065 
Q 1350 4103 1534 4103 
Q 1828 4103 2048 4020 
Q 2269 3938 2414 3794 
Q 2559 3650 2631 3459 
Q 2703 3269 2703 3053 
Q 2703 2859 2668 2667 
Q 2634 2475 2523 2251 
Q 2413 2028 2203 1754 
Q 1994 1481 1647 1125 
L 1006 456 
L 2766 456 
Q 2791 456 2814 442 
Q 2838 428 2855 400 
Q 2872 372 2880 330 
Q 2888 288 2888 231 
z
" transform="scale(0.015625)"/>
        <path id="Calibri-30" d="M 3022 2031 
Q 3022 1566 2948 1181 
Q 2875 797 2704 520 
Q 2534 244 2259 92 
Q 1984 -59 1581 -59 
Q 1200 -59 939 77 
Q 678 213 518 477 
Q 359 741 292 1127 
Q 225 1513 225 2013 
Q 225 2475 300 2861 
Q 375 3247 544 3523 
Q 713 3800 988 3951 
Q 1263 4103 1663 4103 
Q 2047 4103 2308 3967 
Q 2569 3831 2728 3567 
Q 2888 3303 2955 2917 
Q 3022 2531 3022 2031 
z
M 2472 1994 
Q 2472 2297 2450 2537 
Q 2428 2778 2386 2962 
Q 2344 3147 2276 3280 
Q 2209 3413 2115 3498 
Q 2022 3584 1901 3623 
Q 1781 3663 1631 3663 
Q 1366 3663 1200 3538 
Q 1034 3413 939 3194 
Q 844 2975 809 2681 
Q 775 2388 775 2050 
Q 775 1597 822 1280 
Q 869 963 970 763 
Q 1072 563 1230 472 
Q 1388 381 1613 381 
Q 1788 381 1920 437 
Q 2053 494 2148 598 
Q 2244 703 2306 850 
Q 2369 997 2406 1175 
Q 2444 1353 2458 1561 
Q 2472 1769 2472 1994 
z
" transform="scale(0.015625)"/>
       </defs>
       <use xlink:href="#Calibri-32"/>
       <use xlink:href="#Calibri-30" x="50.683594"/>
      </g>
     </g>
    </g>
    <g id="xtick_2">
     <g id="line2d_3">
      <path d="M 382.440789 597.2 
L 382.440789 15.8 
" clip-path="url(#p141840b72a)" style="fill: none; stroke: #b0b0b0; stroke-width: 0.8; stroke-linecap: square"/>
     </g>
     <g id="line2d_4">
      <g>
       <use xlink:href="#m288c719b55" x="382.440789" y="597.2" style="stroke: #000000; stroke-width: 0.8"/>
      </g>
     </g>
     <g id="text_2">
      <!-- 40 -->
      <g transform="translate(375.344539 613.722188) scale(0.14 -0.14)">
       <defs>
        <path id="Calibri-34" d="M 3059 1150 
Q 3059 1047 3028 987 
Q 2997 928 2941 928 
L 2484 928 
L 2484 78 
Q 2484 53 2471 36 
Q 2459 19 2428 6 
Q 2397 -6 2347 -12 
Q 2297 -19 2219 -19 
Q 2144 -19 2094 -12 
Q 2044 -6 2014 6 
Q 1984 19 1973 36 
Q 1963 53 1963 78 
L 1963 928 
L 294 928 
Q 256 928 231 937 
Q 206 947 186 972 
Q 166 997 158 1044 
Q 150 1091 150 1166 
Q 150 1225 153 1272 
Q 156 1319 165 1358 
Q 175 1397 190 1433 
Q 206 1469 228 1509 
L 1684 3966 
Q 1700 3991 1729 4009 
Q 1759 4028 1806 4040 
Q 1853 4053 1922 4058 
Q 1991 4063 2084 4063 
Q 2188 4063 2264 4055 
Q 2341 4047 2387 4034 
Q 2434 4022 2459 4001 
Q 2484 3981 2484 3953 
L 2484 1372 
L 2941 1372 
Q 2994 1372 3026 1317 
Q 3059 1263 3059 1150 
z
M 1963 3591 
L 1956 3591 
L 641 1372 
L 1963 1372 
L 1963 3591 
z
" transform="scale(0.015625)"/>
       </defs>
       <use xlink:href="#Calibri-34"/>
       <use xlink:href="#Calibri-30" x="50.683594"/>
      </g>
     </g>
    </g>
    <g id="xtick_3">
     <g id="line2d_5">
      <path d="M 571.235526 597.2 
L 571.235526 15.8 
" clip-path="url(#p141840b72a)" style="fill: none; stroke: #b0b0b0; stroke-width: 0.8; stroke-linecap: square"/>
     </g>
     <g id="line2d_6">
      <g>
       <use xlink:href="#m288c719b55" x="571.235526" y="597.2" style="stroke: #000000; stroke-width: 0.8"/>
      </g>
     </g>
     <g id="text_3">
      <!-- 60 -->
      <g transform="translate(564.139276 613.722188) scale(0.14 -0.14)">
       <defs>
        <path id="Calibri-36" d="M 2991 1309 
Q 2991 1044 2909 795 
Q 2828 547 2659 358 
Q 2491 169 2231 55 
Q 1972 -59 1619 -59 
Q 1366 -59 1172 3 
Q 978 66 834 181 
Q 691 297 595 465 
Q 500 634 442 850 
Q 384 1066 359 1322 
Q 334 1578 334 1872 
Q 334 2131 362 2397 
Q 391 2663 462 2909 
Q 534 3156 657 3373 
Q 781 3591 967 3752 
Q 1153 3913 1412 4006 
Q 1672 4100 2016 4100 
Q 2131 4100 2250 4086 
Q 2369 4072 2469 4048 
Q 2569 4025 2637 3997 
Q 2706 3969 2728 3951 
Q 2750 3934 2761 3914 
Q 2772 3894 2778 3870 
Q 2784 3847 2787 3817 
Q 2791 3788 2791 3744 
Q 2791 3688 2789 3647 
Q 2788 3606 2777 3581 
Q 2766 3556 2748 3543 
Q 2731 3531 2703 3531 
Q 2669 3531 2609 3553 
Q 2550 3575 2465 3601 
Q 2381 3628 2261 3650 
Q 2141 3672 1981 3672 
Q 1691 3672 1481 3553 
Q 1272 3434 1139 3234 
Q 1006 3034 942 2770 
Q 878 2506 869 2219 
Q 950 2266 1051 2312 
Q 1153 2359 1273 2396 
Q 1394 2434 1528 2457 
Q 1663 2481 1816 2481 
Q 2144 2481 2369 2392 
Q 2594 2303 2733 2145 
Q 2872 1988 2931 1773 
Q 2991 1559 2991 1309 
z
M 2447 1259 
Q 2447 1441 2411 1589 
Q 2375 1738 2290 1841 
Q 2206 1944 2065 2000 
Q 1925 2056 1719 2056 
Q 1603 2056 1487 2036 
Q 1372 2016 1264 1980 
Q 1156 1944 1057 1895 
Q 959 1847 878 1791 
Q 878 1388 929 1116 
Q 981 844 1079 680 
Q 1178 516 1325 445 
Q 1472 375 1669 375 
Q 1869 375 2016 450 
Q 2163 525 2259 651 
Q 2356 778 2401 936 
Q 2447 1094 2447 1259 
z
" transform="scale(0.015625)"/>
       </defs>
       <use xlink:href="#Calibri-36"/>
       <use xlink:href="#Calibri-30" x="50.683594"/>
      </g>
     </g>
    </g>
    <g id="xtick_4">
     <g id="line2d_7">
      <path d="M 760.030263 597.2 
L 760.030263 15.8 
" clip-path="url(#p141840b72a)" style="fill: none; stroke: #b0b0b0; stroke-width: 0.8; stroke-linecap: square"/>
     </g>
     <g id="line2d_8">
      <g>
       <use xlink:href="#m288c719b55" x="760.030263" y="597.2" style="stroke: #000000; stroke-width: 0.8"/>
      </g>
     </g>
     <g id="text_4">
      <!-- 80 -->
      <g transform="translate(752.934013 613.722188) scale(0.14 -0.14)">
       <defs>
        <path id="Calibri-38" d="M 2981 1038 
Q 2981 775 2887 570 
Q 2794 366 2617 225 
Q 2441 84 2181 12 
Q 1922 -59 1588 -59 
Q 1275 -59 1028 6 
Q 781 72 609 200 
Q 438 328 347 515 
Q 256 703 256 944 
Q 256 1134 318 1293 
Q 381 1453 498 1587 
Q 616 1722 787 1839 
Q 959 1956 1175 2063 
Q 988 2159 844 2267 
Q 700 2375 600 2501 
Q 500 2628 448 2772 
Q 397 2916 397 3084 
Q 397 3297 473 3483 
Q 550 3669 704 3806 
Q 859 3944 1098 4023 
Q 1338 4103 1656 4103 
Q 1963 4103 2186 4029 
Q 2409 3956 2554 3829 
Q 2700 3703 2769 3531 
Q 2838 3359 2838 3163 
Q 2838 3003 2786 2856 
Q 2734 2709 2634 2578 
Q 2534 2447 2389 2333 
Q 2244 2219 2056 2119 
Q 2278 2009 2451 1893 
Q 2625 1778 2742 1645 
Q 2859 1513 2920 1364 
Q 2981 1216 2981 1038 
z
M 2306 3113 
Q 2306 3244 2261 3350 
Q 2216 3456 2128 3531 
Q 2041 3606 1911 3645 
Q 1781 3684 1616 3684 
Q 1278 3684 1104 3531 
Q 931 3378 931 3113 
Q 931 2991 973 2886 
Q 1016 2781 1105 2687 
Q 1194 2594 1330 2505 
Q 1466 2416 1653 2319 
Q 1969 2481 2137 2678 
Q 2306 2875 2306 3113 
z
M 2438 981 
Q 2438 1125 2384 1242 
Q 2331 1359 2223 1461 
Q 2116 1563 1955 1658 
Q 1794 1753 1581 1856 
Q 1384 1759 1236 1662 
Q 1088 1566 992 1462 
Q 897 1359 848 1245 
Q 800 1131 800 994 
Q 800 691 1008 525 
Q 1216 359 1628 359 
Q 2028 359 2233 526 
Q 2438 694 2438 981 
z
" transform="scale(0.015625)"/>
       </defs>
       <use xlink:href="#Calibri-38"/>
       <use xlink:href="#Calibri-30" x="50.683594"/>
      </g>
     </g>
    </g>
    <g id="xtick_5">
     <g id="line2d_9">
      <path d="M 948.825 597.2 
L 948.825 15.8 
" clip-path="url(#p141840b72a)" style="fill: none; stroke: #b0b0b0; stroke-width: 0.8; stroke-linecap: square"/>
     </g>
     <g id="line2d_10">
      <g>
       <use xlink:href="#m288c719b55" x="948.825" y="597.2" style="stroke: #000000; stroke-width: 0.8"/>
      </g>
     </g>
     <g id="text_5">
      <!-- 100 -->
      <g transform="translate(938.180625 613.722188) scale(0.14 -0.14)">
       <defs>
        <path id="Calibri-31" d="M 2897 213 
Q 2897 153 2887 112 
Q 2878 72 2862 47 
Q 2847 22 2826 11 
Q 2806 0 2784 0 
L 672 0 
Q 650 0 631 11 
Q 613 22 595 47 
Q 578 72 568 112 
Q 559 153 559 213 
Q 559 269 568 309 
Q 578 350 592 376 
Q 606 403 626 417 
Q 647 431 672 431 
L 1516 431 
L 1516 3506 
L 734 3041 
Q 675 3009 639 3003 
Q 603 2997 581 3017 
Q 559 3038 551 3084 
Q 544 3131 544 3203 
Q 544 3256 548 3293 
Q 553 3331 562 3356 
Q 572 3381 589 3400 
Q 606 3419 634 3438 
L 1566 4034 
Q 1578 4044 1597 4050 
Q 1616 4056 1644 4062 
Q 1672 4069 1709 4070 
Q 1747 4072 1803 4072 
Q 1878 4072 1928 4065 
Q 1978 4059 2006 4048 
Q 2034 4038 2043 4020 
Q 2053 4003 2053 3984 
L 2053 431 
L 2784 431 
Q 2809 431 2831 417 
Q 2853 403 2867 376 
Q 2881 350 2889 309 
Q 2897 269 2897 213 
z
" transform="scale(0.015625)"/>
       </defs>
       <use xlink:href="#Calibri-31"/>
       <use xlink:href="#Calibri-30" x="50.683594"/>
       <use xlink:href="#Calibri-30" x="101.367188"/>
      </g>
     </g>
    </g>
    <g id="text_6">
     <!-- Number of Units Produced -->
     <g transform="translate(402.660938 632.454375) scale(0.18 -0.18)">
      <defs>
       <path id="Calibri-4e" d="M 3594 222 
Q 3594 159 3573 115 
Q 3553 72 3520 44 
Q 3488 16 3447 3 
Q 3406 -9 3366 -9 
L 3194 -9 
Q 3113 -9 3052 8 
Q 2991 25 2936 70 
Q 2881 116 2826 194 
Q 2772 272 2706 394 
L 1431 2694 
Q 1331 2872 1229 3067 
Q 1128 3263 1041 3447 
L 1034 3447 
Q 1041 3222 1044 2987 
Q 1047 2753 1047 2522 
L 1047 81 
Q 1047 59 1034 39 
Q 1022 19 992 8 
Q 963 -3 914 -11 
Q 866 -19 791 -19 
Q 716 -19 667 -11 
Q 619 -3 591 8 
Q 563 19 550 39 
Q 538 59 538 81 
L 538 3813 
Q 538 3938 606 3991 
Q 675 4044 756 4044 
L 1013 4044 
Q 1103 4044 1164 4028 
Q 1225 4013 1273 3977 
Q 1322 3941 1367 3877 
Q 1413 3813 1466 3716 
L 2447 1941 
Q 2538 1778 2622 1623 
Q 2706 1469 2784 1319 
Q 2863 1169 2939 1023 
Q 3016 878 3091 731 
L 3094 731 
Q 3088 978 3086 1245 
Q 3084 1513 3084 1759 
L 3084 3953 
Q 3084 3975 3096 3994 
Q 3109 4013 3139 4027 
Q 3169 4041 3217 4047 
Q 3266 4053 3344 4053 
Q 3413 4053 3463 4047 
Q 3513 4041 3541 4027 
Q 3569 4013 3581 3994 
Q 3594 3975 3594 3953 
L 3594 222 
z
" transform="scale(0.015625)"/>
       <path id="Calibri-75" d="M 2888 78 
Q 2888 53 2877 36 
Q 2866 19 2837 6 
Q 2809 -6 2764 -12 
Q 2719 -19 2653 -19 
Q 2581 -19 2536 -12 
Q 2491 -6 2464 6 
Q 2438 19 2428 36 
Q 2419 53 2419 78 
L 2419 450 
Q 2178 184 1943 62 
Q 1709 -59 1469 -59 
Q 1188 -59 995 34 
Q 803 128 684 289 
Q 566 450 514 664 
Q 463 878 463 1184 
L 463 2891 
Q 463 2916 473 2933 
Q 484 2950 515 2964 
Q 547 2978 597 2983 
Q 647 2988 722 2988 
Q 797 2988 847 2983 
Q 897 2978 926 2964 
Q 956 2950 968 2933 
Q 981 2916 981 2891 
L 981 1253 
Q 981 1006 1017 857 
Q 1053 709 1126 604 
Q 1200 500 1312 442 
Q 1425 384 1575 384 
Q 1769 384 1961 521 
Q 2153 659 2369 925 
L 2369 2891 
Q 2369 2916 2380 2933 
Q 2391 2950 2422 2964 
Q 2453 2978 2501 2983 
Q 2550 2988 2628 2988 
Q 2703 2988 2753 2983 
Q 2803 2978 2831 2964 
Q 2859 2950 2873 2933 
Q 2888 2916 2888 2891 
L 2888 78 
z
" transform="scale(0.015625)"/>
       <path id="Calibri-6d" d="M 4650 78 
Q 4650 53 4637 36 
Q 4625 19 4597 6 
Q 4569 -6 4519 -12 
Q 4469 -19 4394 -19 
Q 4316 -19 4266 -12 
Q 4216 -6 4186 6 
Q 4156 19 4143 36 
Q 4131 53 4131 78 
L 4131 1788 
Q 4131 1966 4100 2112 
Q 4069 2259 4000 2365 
Q 3931 2472 3825 2528 
Q 3719 2584 3575 2584 
Q 3397 2584 3217 2446 
Q 3038 2309 2822 2044 
L 2822 78 
Q 2822 53 2809 36 
Q 2797 19 2767 6 
Q 2738 -6 2688 -12 
Q 2638 -19 2563 -19 
Q 2491 -19 2439 -12 
Q 2388 -6 2358 6 
Q 2328 19 2317 36 
Q 2306 53 2306 78 
L 2306 1788 
Q 2306 1966 2272 2112 
Q 2238 2259 2169 2365 
Q 2100 2472 1995 2528 
Q 1891 2584 1747 2584 
Q 1569 2584 1387 2446 
Q 1206 2309 994 2044 
L 994 78 
Q 994 53 981 36 
Q 969 19 941 6 
Q 913 -6 863 -12 
Q 813 -19 734 -19 
Q 659 -19 609 -12 
Q 559 -6 529 6 
Q 500 19 489 36 
Q 478 53 478 78 
L 478 2891 
Q 478 2916 487 2933 
Q 497 2950 525 2964 
Q 553 2978 597 2983 
Q 641 2988 713 2988 
Q 781 2988 826 2983 
Q 872 2978 897 2964 
Q 922 2950 933 2933 
Q 944 2916 944 2891 
L 944 2519 
Q 1181 2784 1404 2907 
Q 1628 3031 1856 3031 
Q 2031 3031 2170 2990 
Q 2309 2950 2415 2876 
Q 2522 2803 2597 2701 
Q 2672 2600 2722 2475 
Q 2863 2628 2989 2734 
Q 3116 2841 3233 2906 
Q 3350 2972 3461 3001 
Q 3572 3031 3684 3031 
Q 3956 3031 4140 2936 
Q 4325 2841 4439 2681 
Q 4553 2522 4601 2308 
Q 4650 2094 4650 1856 
L 4650 78 
z
" transform="scale(0.015625)"/>
       <path id="Calibri-62" d="M 3066 1522 
Q 3066 1156 2986 864 
Q 2906 572 2751 365 
Q 2597 159 2372 50 
Q 2147 -59 1856 -59 
Q 1722 -59 1608 -32 
Q 1494 -6 1384 53 
Q 1275 113 1165 203 
Q 1056 294 934 422 
L 934 78 
Q 934 53 921 34 
Q 909 16 881 5 
Q 853 -6 811 -12 
Q 769 -19 703 -19 
Q 641 -19 597 -12 
Q 553 -6 525 5 
Q 497 16 487 34 
Q 478 53 478 78 
L 478 4253 
Q 478 4278 489 4297 
Q 500 4316 529 4328 
Q 559 4341 609 4347 
Q 659 4353 734 4353 
Q 813 4353 863 4347 
Q 913 4341 941 4328 
Q 969 4316 981 4297 
Q 994 4278 994 4253 
L 994 2569 
Q 1119 2697 1236 2784 
Q 1353 2872 1465 2926 
Q 1578 2981 1690 3006 
Q 1803 3031 1928 3031 
Q 2234 3031 2451 2909 
Q 2669 2788 2805 2583 
Q 2941 2378 3003 2103 
Q 3066 1828 3066 1522 
z
M 2522 1463 
Q 2522 1678 2489 1881 
Q 2456 2084 2375 2240 
Q 2294 2397 2159 2492 
Q 2025 2588 1825 2588 
Q 1725 2588 1628 2559 
Q 1531 2531 1431 2465 
Q 1331 2400 1223 2297 
Q 1116 2194 994 2038 
L 994 916 
Q 1206 656 1400 520 
Q 1594 384 1803 384 
Q 1997 384 2134 478 
Q 2272 572 2358 726 
Q 2444 881 2483 1073 
Q 2522 1266 2522 1463 
z
" transform="scale(0.015625)"/>
       <path id="Calibri-65" d="M 2878 1606 
Q 2878 1484 2817 1432 
Q 2756 1381 2678 1381 
L 834 1381 
Q 834 1147 881 959 
Q 928 772 1037 637 
Q 1147 503 1322 431 
Q 1497 359 1750 359 
Q 1950 359 2106 392 
Q 2263 425 2377 465 
Q 2491 506 2564 539 
Q 2638 572 2675 572 
Q 2697 572 2714 561 
Q 2731 550 2740 528 
Q 2750 506 2754 467 
Q 2759 428 2759 372 
Q 2759 331 2756 301 
Q 2753 272 2748 248 
Q 2744 225 2733 206 
Q 2722 188 2705 170 
Q 2688 153 2603 114 
Q 2519 75 2384 37 
Q 2250 0 2073 -29 
Q 1897 -59 1697 -59 
Q 1350 -59 1089 37 
Q 828 134 650 325 
Q 472 516 381 803 
Q 291 1091 291 1472 
Q 291 1834 384 2123 
Q 478 2413 654 2614 
Q 831 2816 1081 2923 
Q 1331 3031 1641 3031 
Q 1972 3031 2205 2925 
Q 2438 2819 2588 2639 
Q 2738 2459 2808 2217 
Q 2878 1975 2878 1700 
L 2878 1606 
z
M 2359 1759 
Q 2369 2166 2180 2397 
Q 1991 2628 1619 2628 
Q 1428 2628 1284 2556 
Q 1141 2484 1044 2365 
Q 947 2247 894 2089 
Q 841 1931 834 1759 
L 2359 1759 
z
" transform="scale(0.015625)"/>
       <path id="Calibri-72" d="M 2122 2706 
Q 2122 2638 2119 2591 
Q 2116 2544 2106 2517 
Q 2097 2491 2083 2477 
Q 2069 2463 2044 2463 
Q 2019 2463 1983 2477 
Q 1947 2491 1901 2505 
Q 1856 2519 1800 2531 
Q 1744 2544 1678 2544 
Q 1600 2544 1525 2512 
Q 1450 2481 1367 2409 
Q 1284 2338 1193 2219 
Q 1103 2100 994 1928 
L 994 78 
Q 994 53 981 36 
Q 969 19 941 6 
Q 913 -6 863 -12 
Q 813 -19 734 -19 
Q 659 -19 609 -12 
Q 559 -6 529 6 
Q 500 19 489 36 
Q 478 53 478 78 
L 478 2891 
Q 478 2916 487 2933 
Q 497 2950 525 2964 
Q 553 2978 597 2983 
Q 641 2988 713 2988 
Q 781 2988 826 2983 
Q 872 2978 897 2964 
Q 922 2950 933 2933 
Q 944 2916 944 2891 
L 944 2481 
Q 1059 2650 1161 2756 
Q 1263 2863 1353 2923 
Q 1444 2984 1533 3007 
Q 1622 3031 1713 3031 
Q 1753 3031 1804 3026 
Q 1856 3022 1912 3009 
Q 1969 2997 2014 2981 
Q 2059 2966 2078 2950 
Q 2097 2934 2103 2920 
Q 2109 2906 2114 2884 
Q 2119 2863 2120 2820 
Q 2122 2778 2122 2706 
z
" transform="scale(0.015625)"/>
       <path id="Calibri-20" transform="scale(0.015625)"/>
       <path id="Calibri-6f" d="M 3094 1516 
Q 3094 1172 3003 883 
Q 2913 594 2733 384 
Q 2553 175 2283 58 
Q 2013 -59 1656 -59 
Q 1309 -59 1051 44 
Q 794 147 622 344 
Q 450 541 365 822 
Q 281 1103 281 1459 
Q 281 1803 370 2092 
Q 459 2381 639 2590 
Q 819 2800 1087 2915 
Q 1356 3031 1716 3031 
Q 2063 3031 2320 2928 
Q 2578 2825 2750 2628 
Q 2922 2431 3008 2150 
Q 3094 1869 3094 1516 
z
M 2550 1481 
Q 2550 1709 2508 1912 
Q 2466 2116 2369 2269 
Q 2272 2422 2106 2511 
Q 1941 2600 1694 2600 
Q 1466 2600 1302 2519 
Q 1138 2438 1031 2289 
Q 925 2141 873 1937 
Q 822 1734 822 1494 
Q 822 1263 864 1059 
Q 906 856 1004 704 
Q 1103 553 1268 464 
Q 1434 375 1681 375 
Q 1906 375 2072 456 
Q 2238 538 2344 684 
Q 2450 831 2500 1034 
Q 2550 1238 2550 1481 
z
" transform="scale(0.015625)"/>
       <path id="Calibri-66" d="M 2019 4047 
Q 2019 3988 2012 3952 
Q 2006 3916 1998 3894 
Q 1991 3872 1978 3864 
Q 1966 3856 1947 3856 
Q 1925 3856 1892 3870 
Q 1859 3884 1812 3901 
Q 1766 3919 1702 3933 
Q 1638 3947 1553 3947 
Q 1438 3947 1356 3909 
Q 1275 3872 1225 3792 
Q 1175 3713 1153 3586 
Q 1131 3459 1131 3278 
L 1131 2972 
L 1759 2972 
Q 1784 2972 1801 2961 
Q 1819 2950 1833 2923 
Q 1847 2897 1855 2856 
Q 1863 2816 1863 2756 
Q 1863 2644 1834 2594 
Q 1806 2544 1759 2544 
L 1131 2544 
L 1131 78 
Q 1131 53 1118 36 
Q 1106 19 1076 6 
Q 1047 -6 997 -12 
Q 947 -19 872 -19 
Q 797 -19 747 -12 
Q 697 -6 667 6 
Q 638 19 625 36 
Q 613 53 613 78 
L 613 2544 
L 216 2544 
Q 166 2544 141 2594 
Q 116 2644 116 2756 
Q 116 2816 122 2856 
Q 128 2897 140 2923 
Q 153 2950 172 2961 
Q 191 2972 216 2972 
L 613 2972 
L 613 3263 
Q 613 3556 667 3767 
Q 722 3978 834 4112 
Q 947 4247 1117 4311 
Q 1288 4375 1519 4375 
Q 1628 4375 1731 4354 
Q 1834 4334 1890 4311 
Q 1947 4288 1965 4269 
Q 1984 4250 1996 4220 
Q 2009 4191 2014 4148 
Q 2019 4106 2019 4047 
z
" transform="scale(0.015625)"/>
       <path id="Calibri-55" d="M 3578 1494 
Q 3578 1125 3470 836 
Q 3363 547 3163 347 
Q 2963 147 2675 44 
Q 2388 -59 2022 -59 
Q 1688 -59 1413 37 
Q 1138 134 941 323 
Q 744 513 637 797 
Q 531 1081 531 1453 
L 531 3963 
Q 531 3988 543 4006 
Q 556 4025 587 4036 
Q 619 4047 669 4055 
Q 719 4063 800 4063 
Q 875 4063 928 4055 
Q 981 4047 1011 4036 
Q 1041 4025 1053 4006 
Q 1066 3988 1066 3963 
L 1066 1519 
Q 1066 1238 1134 1028 
Q 1203 819 1333 680 
Q 1463 541 1645 470 
Q 1828 400 2056 400 
Q 2291 400 2473 469 
Q 2656 538 2782 675 
Q 2909 813 2976 1016 
Q 3044 1219 3044 1491 
L 3044 3963 
Q 3044 3988 3056 4006 
Q 3069 4025 3100 4036 
Q 3131 4047 3182 4055 
Q 3234 4063 3313 4063 
Q 3388 4063 3439 4055 
Q 3491 4047 3520 4036 
Q 3550 4025 3564 4006 
Q 3578 3988 3578 3963 
L 3578 1494 
z
" transform="scale(0.015625)"/>
       <path id="Calibri-6e" d="M 2900 78 
Q 2900 53 2887 36 
Q 2875 19 2847 6 
Q 2819 -6 2769 -12 
Q 2719 -19 2644 -19 
Q 2566 -19 2516 -12 
Q 2466 -6 2437 6 
Q 2409 19 2396 36 
Q 2384 53 2384 78 
L 2384 1725 
Q 2384 1966 2346 2112 
Q 2309 2259 2237 2365 
Q 2166 2472 2052 2528 
Q 1938 2584 1788 2584 
Q 1594 2584 1400 2446 
Q 1206 2309 994 2044 
L 994 78 
Q 994 53 981 36 
Q 969 19 941 6 
Q 913 -6 863 -12 
Q 813 -19 734 -19 
Q 659 -19 609 -12 
Q 559 -6 529 6 
Q 500 19 489 36 
Q 478 53 478 78 
L 478 2891 
Q 478 2916 487 2933 
Q 497 2950 525 2964 
Q 553 2978 597 2983 
Q 641 2988 713 2988 
Q 781 2988 826 2983 
Q 872 2978 897 2964 
Q 922 2950 933 2933 
Q 944 2916 944 2891 
L 944 2519 
Q 1181 2784 1417 2907 
Q 1653 3031 1894 3031 
Q 2175 3031 2367 2936 
Q 2559 2841 2678 2681 
Q 2797 2522 2848 2308 
Q 2900 2094 2900 1794 
L 2900 78 
z
" transform="scale(0.015625)"/>
       <path id="Calibri-69" d="M 994 78 
Q 994 53 981 36 
Q 969 19 941 6 
Q 913 -6 863 -12 
Q 813 -19 734 -19 
Q 659 -19 609 -12 
Q 559 -6 529 6 
Q 500 19 489 36 
Q 478 53 478 78 
L 478 2891 
Q 478 2913 489 2931 
Q 500 2950 529 2962 
Q 559 2975 609 2981 
Q 659 2988 734 2988 
Q 813 2988 863 2981 
Q 913 2975 941 2962 
Q 969 2950 981 2931 
Q 994 2913 994 2891 
L 994 78 
z
M 1053 3841 
Q 1053 3659 984 3593 
Q 916 3528 731 3528 
Q 550 3528 483 3592 
Q 416 3656 416 3834 
Q 416 4016 484 4081 
Q 553 4147 738 4147 
Q 919 4147 986 4083 
Q 1053 4019 1053 3841 
z
" transform="scale(0.015625)"/>
       <path id="Calibri-74" d="M 1941 284 
Q 1941 194 1928 141 
Q 1916 88 1891 63 
Q 1866 38 1816 16 
Q 1766 -6 1702 -20 
Q 1638 -34 1566 -43 
Q 1494 -53 1422 -53 
Q 1203 -53 1047 5 
Q 891 63 791 180 
Q 691 297 645 476 
Q 600 656 600 900 
L 600 2544 
L 206 2544 
Q 159 2544 131 2594 
Q 103 2644 103 2756 
Q 103 2816 111 2856 
Q 119 2897 131 2923 
Q 144 2950 164 2961 
Q 184 2972 209 2972 
L 600 2972 
L 600 3641 
Q 600 3663 611 3681 
Q 622 3700 651 3714 
Q 681 3728 731 3734 
Q 781 3741 856 3741 
Q 934 3741 984 3734 
Q 1034 3728 1062 3714 
Q 1091 3700 1103 3681 
Q 1116 3663 1116 3641 
L 1116 2972 
L 1838 2972 
Q 1863 2972 1881 2961 
Q 1900 2950 1914 2923 
Q 1928 2897 1934 2856 
Q 1941 2816 1941 2756 
Q 1941 2644 1912 2594 
Q 1884 2544 1838 2544 
L 1116 2544 
L 1116 975 
Q 1116 684 1202 536 
Q 1288 388 1509 388 
Q 1581 388 1637 402 
Q 1694 416 1737 431 
Q 1781 447 1812 461 
Q 1844 475 1869 475 
Q 1884 475 1898 467 
Q 1913 459 1920 437 
Q 1928 416 1934 378 
Q 1941 341 1941 284 
z
" transform="scale(0.015625)"/>
       <path id="Calibri-73" d="M 2244 844 
Q 2244 628 2164 459 
Q 2084 291 1937 175 
Q 1791 59 1587 0 
Q 1384 -59 1141 -59 
Q 991 -59 855 -36 
Q 719 -13 611 23 
Q 503 59 428 98 
Q 353 138 318 169 
Q 284 200 268 256 
Q 253 313 253 409 
Q 253 469 259 509 
Q 266 550 275 575 
Q 284 600 301 611 
Q 319 622 341 622 
Q 375 622 442 580 
Q 509 538 607 488 
Q 706 438 840 395 
Q 975 353 1150 353 
Q 1281 353 1387 381 
Q 1494 409 1572 464 
Q 1650 519 1692 603 
Q 1734 688 1734 803 
Q 1734 922 1673 1003 
Q 1613 1084 1513 1146 
Q 1413 1209 1288 1257 
Q 1163 1306 1030 1359 
Q 897 1413 770 1480 
Q 644 1547 544 1644 
Q 444 1741 383 1875 
Q 322 2009 322 2197 
Q 322 2363 386 2514 
Q 450 2666 578 2780 
Q 706 2894 898 2962 
Q 1091 3031 1347 3031 
Q 1459 3031 1571 3012 
Q 1684 2994 1775 2966 
Q 1866 2938 1930 2905 
Q 1994 2872 2026 2847 
Q 2059 2822 2070 2803 
Q 2081 2784 2086 2761 
Q 2091 2738 2095 2703 
Q 2100 2669 2100 2619 
Q 2100 2566 2095 2527 
Q 2091 2488 2080 2463 
Q 2069 2438 2053 2427 
Q 2038 2416 2019 2416 
Q 1991 2416 1937 2450 
Q 1884 2484 1800 2523 
Q 1716 2563 1602 2597 
Q 1488 2631 1341 2631 
Q 1209 2631 1109 2601 
Q 1009 2572 945 2517 
Q 881 2463 848 2388 
Q 816 2313 816 2225 
Q 816 2103 878 2020 
Q 941 1938 1041 1875 
Q 1141 1813 1269 1763 
Q 1397 1713 1530 1659 
Q 1663 1606 1792 1540 
Q 1922 1475 2022 1381 
Q 2122 1288 2183 1156 
Q 2244 1025 2244 844 
z
" transform="scale(0.015625)"/>
       <path id="Calibri-50" d="M 3022 2859 
Q 3022 2556 2922 2312 
Q 2822 2069 2636 1897 
Q 2450 1725 2179 1631 
Q 1909 1538 1534 1538 
L 1075 1538 
L 1075 81 
Q 1075 56 1061 37 
Q 1047 19 1017 8 
Q 988 -3 936 -11 
Q 884 -19 806 -19 
Q 728 -19 676 -11 
Q 625 -3 594 8 
Q 563 19 550 37 
Q 538 56 538 81 
L 538 3813 
Q 538 3938 603 3991 
Q 669 4044 750 4044 
L 1616 4044 
Q 1747 4044 1867 4033 
Q 1988 4022 2152 3986 
Q 2316 3950 2486 3851 
Q 2656 3753 2775 3609 
Q 2894 3466 2958 3277 
Q 3022 3088 3022 2859 
z
M 2456 2816 
Q 2456 3063 2364 3228 
Q 2272 3394 2136 3475 
Q 2000 3556 1854 3578 
Q 1709 3600 1572 3600 
L 1075 3600 
L 1075 1978 
L 1559 1978 
Q 1803 1978 1964 2040 
Q 2125 2103 2234 2214 
Q 2344 2325 2400 2479 
Q 2456 2634 2456 2816 
z
" transform="scale(0.015625)"/>
       <path id="Calibri-64" d="M 2888 78 
Q 2888 53 2877 34 
Q 2866 16 2839 5 
Q 2813 -6 2769 -12 
Q 2725 -19 2663 -19 
Q 2597 -19 2553 -12 
Q 2509 -6 2481 5 
Q 2453 16 2440 34 
Q 2428 53 2428 78 
L 2428 450 
Q 2206 209 1967 75 
Q 1728 -59 1444 -59 
Q 1134 -59 915 61 
Q 697 181 561 386 
Q 425 591 362 867 
Q 300 1144 300 1450 
Q 300 1813 378 2105 
Q 456 2397 609 2603 
Q 763 2809 989 2920 
Q 1216 3031 1513 3031 
Q 1759 3031 1964 2923 
Q 2169 2816 2369 2606 
L 2369 4241 
Q 2369 4263 2380 4283 
Q 2391 4303 2422 4314 
Q 2453 4325 2501 4333 
Q 2550 4341 2625 4341 
Q 2703 4341 2753 4333 
Q 2803 4325 2831 4314 
Q 2859 4303 2873 4283 
Q 2888 4263 2888 4241 
L 2888 78 
z
M 2369 2056 
Q 2159 2316 1964 2452 
Q 1769 2588 1556 2588 
Q 1359 2588 1221 2494 
Q 1084 2400 998 2247 
Q 913 2094 873 1900 
Q 834 1706 834 1506 
Q 834 1294 867 1091 
Q 900 888 981 730 
Q 1063 572 1197 476 
Q 1331 381 1534 381 
Q 1638 381 1733 409 
Q 1828 438 1928 503 
Q 2028 569 2137 673 
Q 2247 778 2369 931 
L 2369 2056 
z
" transform="scale(0.015625)"/>
       <path id="Calibri-63" d="M 2500 506 
Q 2500 453 2497 414 
Q 2494 375 2486 348 
Q 2478 322 2467 301 
Q 2456 281 2417 242 
Q 2378 203 2284 145 
Q 2191 88 2073 42 
Q 1956 -3 1818 -31 
Q 1681 -59 1534 -59 
Q 1231 -59 997 41 
Q 763 141 605 333 
Q 447 525 364 804 
Q 281 1084 281 1450 
Q 281 1866 382 2164 
Q 484 2463 661 2653 
Q 838 2844 1077 2936 
Q 1316 3028 1594 3028 
Q 1728 3028 1854 3003 
Q 1981 2978 2087 2937 
Q 2194 2897 2276 2844 
Q 2359 2791 2396 2753 
Q 2434 2716 2448 2694 
Q 2463 2672 2472 2642 
Q 2481 2613 2484 2575 
Q 2488 2538 2488 2481 
Q 2488 2359 2459 2311 
Q 2431 2263 2391 2263 
Q 2344 2263 2283 2314 
Q 2222 2366 2128 2428 
Q 2034 2491 1901 2542 
Q 1769 2594 1588 2594 
Q 1216 2594 1017 2308 
Q 819 2022 819 1478 
Q 819 1206 870 1001 
Q 922 797 1022 659 
Q 1122 522 1267 455 
Q 1413 388 1600 388 
Q 1778 388 1912 444 
Q 2047 500 2145 567 
Q 2244 634 2311 689 
Q 2378 744 2416 744 
Q 2438 744 2453 731 
Q 2469 719 2480 689 
Q 2491 659 2495 614 
Q 2500 569 2500 506 
z
" transform="scale(0.015625)"/>
      </defs>
      <use xlink:href="#Calibri-4e"/>
      <use xlink:href="#Calibri-75" x="64.550781"/>
      <use xlink:href="#Calibri-6d" x="117.089844"/>
      <use xlink:href="#Calibri-62" x="196.972656"/>
      <use xlink:href="#Calibri-65" x="249.511719"/>
      <use xlink:href="#Calibri-72" x="299.267578"/>
      <use xlink:href="#Calibri-20" x="334.130859"/>
      <use xlink:href="#Calibri-6f" x="356.738281"/>
      <use xlink:href="#Calibri-66" x="409.472656"/>
      <use xlink:href="#Calibri-20" x="439.990234"/>
      <use xlink:href="#Calibri-55" x="462.597656"/>
      <use xlink:href="#Calibri-6e" x="526.757812"/>
      <use xlink:href="#Calibri-69" x="579.296875"/>
      <use xlink:href="#Calibri-74" x="602.246094"/>
      <use xlink:href="#Calibri-73" x="635.742188"/>
      <use xlink:href="#Calibri-20" x="674.853516"/>
      <use xlink:href="#Calibri-50" x="697.460938"/>
      <use xlink:href="#Calibri-72" x="749.121094"/>
      <use xlink:href="#Calibri-6f" x="783.984375"/>
      <use xlink:href="#Calibri-64" x="836.71875"/>
      <use xlink:href="#Calibri-75" x="889.257812"/>
      <use xlink:href="#Calibri-63" x="941.796875"/>
      <use xlink:href="#Calibri-65" x="984.082031"/>
      <use xlink:href="#Calibri-64" x="1033.837891"/>
     </g>
    </g>
   </g>
   <g id="matplotlib.axis_2">
    <g id="ytick_1">
     <g id="line2d_11">
      <path d="M 52.05 597.2 
L 948.825 597.2 
" clip-path="url(#p141840b72a)" style="fill: none; stroke: #b0b0b0; stroke-width: 0.8; stroke-linecap: square"/>
     </g>
     <g id="line2d_12">
      <defs>
       <path id="m27be551825" d="M 0 0 
L -3.5 0 
" style="stroke: #000000; stroke-width: 0.8"/>
      </defs>
      <g>
       <use xlink:href="#m27be551825" x="52.05" y="597.2" style="stroke: #000000; stroke-width: 0.8"/>
      </g>
     </g>
     <g id="text_7">
      <!-- 0 -->
      <g transform="translate(37.95375 601.961094) scale(0.14 -0.14)">
       <use xlink:href="#Calibri-30"/>
      </g>
     </g>
    </g>
    <g id="ytick_2">
     <g id="line2d_13">
      <path d="M 52.05 531.178694 
L 948.825 531.178694 
" clip-path="url(#p141840b72a)" style="fill: none; stroke: #b0b0b0; stroke-width: 0.8; stroke-linecap: square"/>
     </g>
     <g id="line2d_14">
      <g>
       <use xlink:href="#m27be551825" x="52.05" y="531.178694" style="stroke: #000000; stroke-width: 0.8"/>
      </g>
     </g>
     <g id="text_8">
      <!-- 5 -->
      <g transform="translate(37.95375 535.939788) scale(0.14 -0.14)">
       <defs>
        <path id="Calibri-35" d="M 2869 1300 
Q 2869 975 2759 722 
Q 2650 469 2450 295 
Q 2250 122 1973 31 
Q 1697 -59 1359 -59 
Q 1172 -59 1003 -32 
Q 834 -6 703 33 
Q 572 72 487 109 
Q 403 147 379 169 
Q 356 191 347 209 
Q 338 228 330 254 
Q 322 281 319 322 
Q 316 363 316 419 
Q 316 472 320 514 
Q 325 556 337 582 
Q 350 609 367 621 
Q 384 634 406 634 
Q 438 634 503 595 
Q 569 556 680 511 
Q 791 466 955 425 
Q 1119 384 1344 384 
Q 1553 384 1728 434 
Q 1903 484 2029 590 
Q 2156 697 2228 858 
Q 2300 1019 2300 1250 
Q 2300 1444 2239 1592 
Q 2178 1741 2051 1839 
Q 1925 1938 1731 1986 
Q 1538 2034 1269 2034 
Q 1078 2034 940 2015 
Q 803 1997 684 1997 
Q 597 1997 559 2037 
Q 522 2078 522 2194 
L 522 3841 
Q 522 3944 570 3994 
Q 619 4044 709 4044 
L 2500 4044 
Q 2525 4044 2548 4030 
Q 2572 4016 2587 3987 
Q 2603 3959 2611 3915 
Q 2619 3872 2619 3813 
Q 2619 3700 2587 3637 
Q 2556 3575 2500 3575 
L 991 3575 
L 991 2441 
Q 1100 2456 1214 2459 
Q 1328 2463 1478 2463 
Q 1825 2463 2084 2380 
Q 2344 2297 2517 2145 
Q 2691 1994 2780 1778 
Q 2869 1563 2869 1300 
z
" transform="scale(0.015625)"/>
       </defs>
       <use xlink:href="#Calibri-35"/>
      </g>
     </g>
    </g>
    <g id="ytick_3">
     <g id="line2d_15">
      <path d="M 52.05 465.157388 
L 948.825 465.157388 
" clip-path="url(#p141840b72a)" style="fill: none; stroke: #b0b0b0; stroke-width: 0.8; stroke-linecap: square"/>
     </g>
     <g id="line2d_16">
      <g>
       <use xlink:href="#m27be551825" x="52.05" y="465.157388" style="stroke: #000000; stroke-width: 0.8"/>
      </g>
     </g>
     <g id="text_9">
      <!-- 10 -->
      <g transform="translate(30.8575 469.918481) scale(0.14 -0.14)">
       <use xlink:href="#Calibri-31"/>
       <use xlink:href="#Calibri-30" x="50.683594"/>
      </g>
     </g>
    </g>
    <g id="ytick_4">
     <g id="line2d_17">
      <path d="M 52.05 399.136081 
L 948.825 399.136081 
" clip-path="url(#p141840b72a)" style="fill: none; stroke: #b0b0b0; stroke-width: 0.8; stroke-linecap: square"/>
     </g>
     <g id="line2d_18">
      <g>
       <use xlink:href="#m27be551825" x="52.05" y="399.136081" style="stroke: #000000; stroke-width: 0.8"/>
      </g>
     </g>
     <g id="text_10">
      <!-- 15 -->
      <g transform="translate(30.8575 403.897175) scale(0.14 -0.14)">
       <use xlink:href="#Calibri-31"/>
       <use xlink:href="#Calibri-35" x="50.683594"/>
      </g>
     </g>
    </g>
    <g id="ytick_5">
     <g id="line2d_19">
      <path d="M 52.05 333.114775 
L 948.825 333.114775 
" clip-path="url(#p141840b72a)" style="fill: none; stroke: #b0b0b0; stroke-width: 0.8; stroke-linecap: square"/>
     </g>
     <g id="line2d_20">
      <g>
       <use xlink:href="#m27be551825" x="52.05" y="333.114775" style="stroke: #000000; stroke-width: 0.8"/>
      </g>
     </g>
     <g id="text_11">
      <!-- 20 -->
      <g transform="translate(30.8575 337.875869) scale(0.14 -0.14)">
       <use xlink:href="#Calibri-32"/>
       <use xlink:href="#Calibri-30" x="50.683594"/>
      </g>
     </g>
    </g>
    <g id="ytick_6">
     <g id="line2d_21">
      <path d="M 52.05 267.093469 
L 948.825 267.093469 
" clip-path="url(#p141840b72a)" style="fill: none; stroke: #b0b0b0; stroke-width: 0.8; stroke-linecap: square"/>
     </g>
     <g id="line2d_22">
      <g>
       <use xlink:href="#m27be551825" x="52.05" y="267.093469" style="stroke: #000000; stroke-width: 0.8"/>
      </g>
     </g>
     <g id="text_12">
      <!-- 25 -->
      <g transform="translate(30.8575 271.854563) scale(0.14 -0.14)">
       <use xlink:href="#Calibri-32"/>
       <use xlink:href="#Calibri-35" x="50.683594"/>
      </g>
     </g>
    </g>
    <g id="ytick_7">
     <g id="line2d_23">
      <path d="M 52.05 201.072163 
L 948.825 201.072163 
" clip-path="url(#p141840b72a)" style="fill: none; stroke: #b0b0b0; stroke-width: 0.8; stroke-linecap: square"/>
     </g>
     <g id="line2d_24">
      <g>
       <use xlink:href="#m27be551825" x="52.05" y="201.072163" style="stroke: #000000; stroke-width: 0.8"/>
      </g>
     </g>
     <g id="text_13">
      <!-- 30 -->
      <g transform="translate(30.8575 205.833256) scale(0.14 -0.14)">
       <defs>
        <path id="Calibri-33" d="M 2856 1156 
Q 2856 878 2759 654 
Q 2663 431 2481 272 
Q 2300 113 2034 27 
Q 1769 -59 1434 -59 
Q 1231 -59 1054 -26 
Q 878 6 740 51 
Q 603 97 512 145 
Q 422 194 398 216 
Q 375 238 362 259 
Q 350 281 340 312 
Q 331 344 326 389 
Q 322 434 322 500 
Q 322 613 344 656 
Q 366 700 406 700 
Q 434 700 517 650 
Q 600 600 729 542 
Q 859 484 1032 434 
Q 1206 384 1419 384 
Q 1625 384 1781 437 
Q 1938 491 2044 587 
Q 2150 684 2203 817 
Q 2256 950 2256 1106 
Q 2256 1278 2189 1415 
Q 2122 1553 1992 1653 
Q 1863 1753 1673 1806 
Q 1484 1859 1244 1859 
L 859 1859 
Q 834 1859 811 1870 
Q 788 1881 770 1906 
Q 753 1931 742 1972 
Q 731 2013 731 2078 
Q 731 2138 740 2177 
Q 750 2216 767 2239 
Q 784 2263 806 2273 
Q 828 2284 856 2284 
L 1209 2284 
Q 1416 2284 1580 2337 
Q 1744 2391 1858 2491 
Q 1972 2591 2033 2730 
Q 2094 2869 2094 3041 
Q 2094 3166 2053 3280 
Q 2013 3394 1931 3478 
Q 1850 3563 1723 3611 
Q 1597 3659 1431 3659 
Q 1250 3659 1098 3604 
Q 947 3550 828 3487 
Q 709 3425 631 3370 
Q 553 3316 522 3316 
Q 500 3316 483 3323 
Q 466 3331 455 3354 
Q 444 3378 439 3420 
Q 434 3463 434 3531 
Q 434 3578 437 3614 
Q 441 3650 450 3676 
Q 459 3703 471 3725 
Q 484 3747 514 3776 
Q 544 3806 634 3862 
Q 725 3919 858 3973 
Q 991 4028 1164 4065 
Q 1338 4103 1538 4103 
Q 1819 4103 2031 4031 
Q 2244 3959 2386 3828 
Q 2528 3697 2598 3514 
Q 2669 3331 2669 3109 
Q 2669 2919 2619 2755 
Q 2569 2591 2472 2464 
Q 2375 2338 2234 2248 
Q 2094 2159 1909 2125 
L 1909 2119 
Q 2119 2097 2292 2014 
Q 2466 1931 2591 1806 
Q 2716 1681 2786 1514 
Q 2856 1347 2856 1156 
z
" transform="scale(0.015625)"/>
       </defs>
       <use xlink:href="#Calibri-33"/>
       <use xlink:href="#Calibri-30" x="50.683594"/>
      </g>
     </g>
    </g>
    <g id="ytick_8">
     <g id="line2d_25">
      <path d="M 52.05 135.050856 
L 948.825 135.050856 
" clip-path="url(#p141840b72a)" style="fill: none; stroke: #b0b0b0; stroke-width: 0.8; stroke-linecap: square"/>
     </g>
     <g id="line2d_26">
      <g>
       <use xlink:href="#m27be551825" x="52.05" y="135.050856" style="stroke: #000000; stroke-width: 0.8"/>
      </g>
     </g>
     <g id="text_14">
      <!-- 35 -->
      <g transform="translate(30.8575 139.81195) scale(0.14 -0.14)">
       <use xlink:href="#Calibri-33"/>
       <use xlink:href="#Calibri-35" x="50.683594"/>
      </g>
     </g>
    </g>
    <g id="ytick_9">
     <g id="line2d_27">
      <path d="M 52.05 69.02955 
L 948.825 69.02955 
" clip-path="url(#p141840b72a)" style="fill: none; stroke: #b0b0b0; stroke-width: 0.8; stroke-linecap: square"/>
     </g>
     <g id="line2d_28">
      <g>
       <use xlink:href="#m27be551825" x="52.05" y="69.02955" style="stroke: #000000; stroke-width: 0.8"/>
      </g>
     </g>
     <g id="text_15">
      <!-- 40 -->
      <g transform="translate(30.8575 73.790644) scale(0.14 -0.14)">
       <use xlink:href="#Calibri-34"/>
       <use xlink:href="#Calibri-30" x="50.683594"/>
      </g>
     </g>
    </g>
    <g id="text_16">
     <!-- Cost per Unit [Million USD] -->
     <g transform="translate(23.656875 405.05) rotate(-90) scale(0.18 -0.18)">
      <defs>
       <path id="Calibri-43" d="M 3238 572 
Q 3238 522 3234 484 
Q 3231 447 3223 419 
Q 3216 391 3203 369 
Q 3191 347 3159 315 
Q 3128 284 3028 220 
Q 2928 156 2779 95 
Q 2631 34 2439 -8 
Q 2247 -50 2019 -50 
Q 1625 -50 1308 81 
Q 991 213 767 469 
Q 544 725 423 1101 
Q 303 1478 303 1969 
Q 303 2472 433 2865 
Q 563 3259 797 3532 
Q 1031 3806 1357 3950 
Q 1684 4094 2081 4094 
Q 2256 4094 2422 4061 
Q 2588 4028 2728 3978 
Q 2869 3928 2978 3862 
Q 3088 3797 3130 3755 
Q 3172 3713 3184 3691 
Q 3197 3669 3205 3639 
Q 3213 3609 3217 3568 
Q 3222 3528 3222 3472 
Q 3222 3409 3215 3365 
Q 3209 3322 3196 3292 
Q 3184 3263 3167 3248 
Q 3150 3234 3125 3234 
Q 3081 3234 3003 3295 
Q 2925 3356 2801 3429 
Q 2678 3503 2501 3564 
Q 2325 3625 2078 3625 
Q 1809 3625 1589 3517 
Q 1369 3409 1212 3200 
Q 1056 2991 970 2689 
Q 884 2388 884 2000 
Q 884 1616 967 1320 
Q 1050 1025 1204 826 
Q 1359 628 1584 526 
Q 1809 425 2094 425 
Q 2334 425 2514 484 
Q 2694 544 2820 617 
Q 2947 691 3028 750 
Q 3109 809 3156 809 
Q 3178 809 3193 800 
Q 3209 791 3218 764 
Q 3228 738 3233 691 
Q 3238 644 3238 572 
z
" transform="scale(0.015625)"/>
       <path id="Calibri-70" d="M 3066 1528 
Q 3066 1159 2986 865 
Q 2906 572 2751 367 
Q 2597 163 2369 52 
Q 2141 -59 1847 -59 
Q 1722 -59 1615 -34 
Q 1509 -9 1407 44 
Q 1306 97 1206 178 
Q 1106 259 994 369 
L 994 -1038 
Q 994 -1063 981 -1081 
Q 969 -1100 941 -1112 
Q 913 -1125 863 -1131 
Q 813 -1138 734 -1138 
Q 659 -1138 609 -1131 
Q 559 -1125 529 -1112 
Q 500 -1100 489 -1081 
Q 478 -1063 478 -1038 
L 478 2891 
Q 478 2919 487 2936 
Q 497 2953 525 2965 
Q 553 2978 597 2983 
Q 641 2988 703 2988 
Q 769 2988 811 2983 
Q 853 2978 881 2965 
Q 909 2953 920 2936 
Q 931 2919 931 2891 
L 931 2513 
Q 1059 2644 1178 2741 
Q 1297 2838 1417 2902 
Q 1538 2966 1664 2998 
Q 1791 3031 1931 3031 
Q 2238 3031 2453 2912 
Q 2669 2794 2805 2587 
Q 2941 2381 3003 2107 
Q 3066 1834 3066 1528 
z
M 2522 1469 
Q 2522 1684 2489 1886 
Q 2456 2088 2376 2244 
Q 2297 2400 2162 2494 
Q 2028 2588 1828 2588 
Q 1728 2588 1631 2558 
Q 1534 2528 1434 2464 
Q 1334 2400 1225 2295 
Q 1116 2191 994 2038 
L 994 919 
Q 1206 659 1397 521 
Q 1588 384 1797 384 
Q 1991 384 2130 478 
Q 2269 572 2355 728 
Q 2441 884 2481 1078 
Q 2522 1272 2522 1469 
z
" transform="scale(0.015625)"/>
       <path id="Calibri-5b" d="M 1684 -813 
Q 1684 -916 1661 -958 
Q 1638 -1000 1594 -1000 
L 794 -1000 
Q 756 -1000 722 -989 
Q 688 -978 659 -953 
Q 631 -928 614 -886 
Q 597 -844 597 -781 
L 597 4153 
Q 597 4213 614 4255 
Q 631 4297 659 4323 
Q 688 4350 722 4361 
Q 756 4372 794 4372 
L 1594 4372 
Q 1613 4372 1630 4362 
Q 1647 4353 1659 4328 
Q 1672 4303 1678 4267 
Q 1684 4231 1684 4178 
Q 1684 4078 1661 4034 
Q 1638 3991 1594 3991 
L 1084 3991 
L 1084 -622 
L 1594 -622 
Q 1613 -622 1630 -631 
Q 1647 -641 1659 -664 
Q 1672 -688 1678 -723 
Q 1684 -759 1684 -813 
z
" transform="scale(0.015625)"/>
       <path id="Calibri-4d" d="M 4934 81 
Q 4934 56 4921 37 
Q 4909 19 4878 8 
Q 4847 -3 4798 -11 
Q 4750 -19 4672 -19 
Q 4600 -19 4548 -11 
Q 4497 -3 4467 8 
Q 4438 19 4425 37 
Q 4413 56 4413 81 
L 4413 3603 
L 4406 3603 
L 2966 66 
Q 2956 44 2939 28 
Q 2922 13 2889 2 
Q 2856 -9 2811 -14 
Q 2766 -19 2703 -19 
Q 2638 -19 2591 -12 
Q 2544 -6 2512 5 
Q 2481 16 2464 31 
Q 2447 47 2441 66 
L 1063 3603 
L 1059 3603 
L 1059 81 
Q 1059 56 1046 37 
Q 1034 19 1003 8 
Q 972 -3 922 -11 
Q 872 -19 794 -19 
Q 719 -19 669 -11 
Q 619 -3 589 8 
Q 559 19 548 37 
Q 538 56 538 81 
L 538 3800 
Q 538 3931 606 3987 
Q 675 4044 759 4044 
L 1084 4044 
Q 1184 4044 1259 4025 
Q 1334 4006 1390 3965 
Q 1447 3925 1484 3862 
Q 1522 3800 1550 3716 
L 2722 788 
L 2738 788 
L 3956 3706 
Q 3991 3800 4031 3865 
Q 4072 3931 4120 3970 
Q 4169 4009 4228 4026 
Q 4288 4044 4366 4044 
L 4706 4044 
Q 4753 4044 4795 4030 
Q 4838 4016 4867 3986 
Q 4897 3956 4915 3911 
Q 4934 3866 4934 3800 
L 4934 81 
z
" transform="scale(0.015625)"/>
       <path id="Calibri-6c" d="M 994 78 
Q 994 53 981 36 
Q 969 19 941 6 
Q 913 -6 863 -12 
Q 813 -19 734 -19 
Q 659 -19 609 -12 
Q 559 -6 529 6 
Q 500 19 489 36 
Q 478 53 478 78 
L 478 4253 
Q 478 4278 489 4297 
Q 500 4316 529 4328 
Q 559 4341 609 4347 
Q 659 4353 734 4353 
Q 813 4353 863 4347 
Q 913 4341 941 4328 
Q 969 4316 981 4297 
Q 994 4278 994 4253 
L 994 78 
z
" transform="scale(0.015625)"/>
       <path id="Calibri-53" d="M 2709 1134 
Q 2709 850 2604 628 
Q 2500 406 2314 251 
Q 2128 97 1876 19 
Q 1625 -59 1334 -59 
Q 1131 -59 957 -25 
Q 784 9 648 59 
Q 513 109 420 162 
Q 328 216 292 253 
Q 256 291 239 348 
Q 222 406 222 503 
Q 222 572 228 617 
Q 234 663 246 691 
Q 259 719 278 730 
Q 297 741 322 741 
Q 366 741 445 687 
Q 525 634 650 571 
Q 775 509 951 454 
Q 1128 400 1359 400 
Q 1534 400 1679 447 
Q 1825 494 1929 580 
Q 2034 666 2090 791 
Q 2147 916 2147 1075 
Q 2147 1247 2069 1369 
Q 1991 1491 1862 1583 
Q 1734 1675 1570 1751 
Q 1406 1828 1234 1908 
Q 1063 1988 900 2084 
Q 738 2181 609 2312 
Q 481 2444 401 2620 
Q 322 2797 322 3044 
Q 322 3297 414 3495 
Q 506 3694 670 3828 
Q 834 3963 1061 4033 
Q 1288 4103 1550 4103 
Q 1684 4103 1820 4079 
Q 1956 4056 2076 4017 
Q 2197 3978 2290 3929 
Q 2384 3881 2414 3851 
Q 2444 3822 2453 3805 
Q 2463 3788 2469 3761 
Q 2475 3734 2478 3696 
Q 2481 3659 2481 3600 
Q 2481 3544 2476 3500 
Q 2472 3456 2462 3426 
Q 2453 3397 2436 3383 
Q 2419 3369 2397 3369 
Q 2363 3369 2289 3412 
Q 2216 3456 2109 3511 
Q 2003 3566 1858 3611 
Q 1713 3656 1531 3656 
Q 1363 3656 1238 3611 
Q 1113 3566 1031 3491 
Q 950 3416 909 3312 
Q 869 3209 869 3094 
Q 869 2925 947 2803 
Q 1025 2681 1154 2587 
Q 1284 2494 1450 2416 
Q 1616 2338 1787 2258 
Q 1959 2178 2125 2083 
Q 2291 1988 2420 1858 
Q 2550 1728 2629 1551 
Q 2709 1375 2709 1134 
z
" transform="scale(0.015625)"/>
       <path id="Calibri-44" d="M 3647 2081 
Q 3647 1556 3512 1164 
Q 3378 772 3120 514 
Q 2863 256 2488 128 
Q 2113 0 1594 0 
L 738 0 
Q 666 0 602 48 
Q 538 97 538 219 
L 538 3825 
Q 538 3947 602 3995 
Q 666 4044 738 4044 
L 1653 4044 
Q 2178 4044 2540 3908 
Q 2903 3772 3148 3517 
Q 3394 3263 3520 2900 
Q 3647 2538 3647 2081 
z
M 3081 2059 
Q 3081 2388 3000 2670 
Q 2919 2953 2745 3159 
Q 2572 3366 2306 3481 
Q 2041 3597 1622 3597 
L 1075 3597 
L 1075 450 
L 1628 450 
Q 2016 450 2281 547 
Q 2547 644 2725 844 
Q 2903 1044 2992 1345 
Q 3081 1647 3081 2059 
z
" transform="scale(0.015625)"/>
       <path id="Calibri-5d" d="M 1369 -781 
Q 1369 -844 1351 -886 
Q 1334 -928 1306 -953 
Q 1278 -978 1242 -989 
Q 1206 -1000 1169 -1000 
L 372 -1000 
Q 328 -1000 304 -958 
Q 281 -916 281 -813 
Q 281 -759 286 -723 
Q 291 -688 303 -664 
Q 316 -641 333 -631 
Q 350 -622 372 -622 
L 881 -622 
L 881 3991 
L 372 3991 
Q 328 3991 304 4034 
Q 281 4078 281 4178 
Q 281 4231 286 4267 
Q 291 4303 303 4328 
Q 316 4353 333 4362 
Q 350 4372 372 4372 
L 1169 4372 
Q 1206 4372 1242 4361 
Q 1278 4350 1306 4323 
Q 1334 4297 1351 4255 
Q 1369 4213 1369 4153 
L 1369 -781 
z
" transform="scale(0.015625)"/>
      </defs>
      <use xlink:href="#Calibri-43"/>
      <use xlink:href="#Calibri-6f" x="53.320312"/>
      <use xlink:href="#Calibri-73" x="106.054688"/>
      <use xlink:href="#Calibri-74" x="145.166016"/>
      <use xlink:href="#Calibri-20" x="178.662109"/>
      <use xlink:href="#Calibri-70" x="201.269531"/>
      <use xlink:href="#Calibri-65" x="253.808594"/>
      <use xlink:href="#Calibri-72" x="303.564453"/>
      <use xlink:href="#Calibri-20" x="338.427734"/>
      <use xlink:href="#Calibri-55" x="361.035156"/>
      <use xlink:href="#Calibri-6e" x="425.195312"/>
      <use xlink:href="#Calibri-69" x="477.734375"/>
      <use xlink:href="#Calibri-74" x="500.683594"/>
      <use xlink:href="#Calibri-20" x="534.179688"/>
      <use xlink:href="#Calibri-5b" x="556.787109"/>
      <use xlink:href="#Calibri-4d" x="587.451172"/>
      <use xlink:href="#Calibri-69" x="672.949219"/>
      <use xlink:href="#Calibri-6c" x="695.898438"/>
      <use xlink:href="#Calibri-6c" x="718.847656"/>
      <use xlink:href="#Calibri-69" x="741.796875"/>
      <use xlink:href="#Calibri-6f" x="764.746094"/>
      <use xlink:href="#Calibri-6e" x="817.480469"/>
      <use xlink:href="#Calibri-20" x="870.019531"/>
      <use xlink:href="#Calibri-55" x="892.626953"/>
      <use xlink:href="#Calibri-53" x="956.787109"/>
      <use xlink:href="#Calibri-44" x="1002.734375"/>
      <use xlink:href="#Calibri-5d" x="1064.257812"/>
     </g>
    </g>
   </g>
   <g id="line2d_29">
    <path d="M 52.05 15.8 
L 61.489737 94.609674 
L 70.929474 152.513272 
L 80.369211 197.287726 
L 89.808947 232.610468 
L 99.248684 261.433209 
L 108.688421 285.597663 
L 118.128158 305.916207 
L 127.567895 323.375933 
L 137.007632 338.658756 
L 146.447368 351.981805 
L 155.887105 363.788675 
L 165.326842 374.404236 
L 174.766579 383.876134 
L 184.206316 392.443618 
L 193.646053 400.288741 
L 203.085789 407.403044 
L 212.525526 413.932466 
L 221.965263 419.99117 
L 231.405 425.55148 
L 240.844737 430.71058 
L 250.284474 435.546133 
L 259.724211 440.024766 
L 269.163947 444.215532 
L 278.603684 448.174581 
L 288.043421 451.868099 
L 297.483158 455.347632 
L 306.922895 458.655717 
L 316.362632 461.760138 
L 325.802368 464.700881 
L 335.242105 467.511363 
L 344.681842 470.161684 
L 354.121579 472.683818 
L 363.561316 475.10479 
L 373.001053 477.397157 
L 382.440789 479.587131 
L 391.880526 481.697078 
L 401.320263 483.701925 
L 410.76 485.62359 
L 420.199737 487.480946 
L 429.639474 489.251104 
L 439.079211 490.952701 
L 448.518947 492.601916 
L 457.958684 494.17783 
L 467.398421 495.696519 
L 476.838158 497.172034 
L 486.277895 498.585223 
L 495.717632 499.950115 
L 505.157368 501.279053 
L 514.597105 502.554459 
L 524.036842 503.788703 
L 533.476579 504.99273 
L 542.916316 506.150366 
L 552.356053 507.272611 
L 561.795789 508.369254 
L 571.235526 509.425371 
L 580.675263 510.450821 
L 590.115 511.454421 
L 599.554737 512.422362 
L 608.994474 513.36354 
L 618.434211 514.28595 
L 627.873947 515.176778 
L 637.313684 516.0441 
L 646.753421 516.895206 
L 656.193158 517.718176 
L 665.632895 518.52038 
L 675.072632 519.308497 
L 684.512368 520.071412 
L 693.952105 520.815884 
L 703.391842 521.548061 
L 712.831579 522.257552 
L 722.271316 522.950583 
L 731.711053 523.632834 
L 741.150789 524.294572 
L 750.590526 524.941553 
L 760.030263 525.579045 
L 769.47 526.197911 
L 778.909737 526.803491 
L 788.349474 527.400689 
L 797.789211 527.980907 
L 807.228947 528.549119 
L 816.668684 529.1099 
L 826.108421 529.655149 
L 835.548158 530.189507 
L 844.987895 530.717258 
L 854.427632 531.230753 
L 863.867368 531.734337 
L 873.307105 532.232029 
L 882.746842 532.716596 
L 892.186579 533.192114 
L 901.626316 533.662366 
L 911.066053 534.120498 
L 920.505789 534.570345 
L 929.945526 535.015474 
L 939.385263 535.44938 
L 948.825 535.87568 
" clip-path="url(#p141840b72a)" style="fill: none; stroke: #0000ff; stroke-width: 2; stroke-linecap: square"/>
   </g>
   <g id="line2d_30">
    <path d="M 52.05 438.748865 
L 948.825 438.748865 
" clip-path="url(#p141840b72a)" style="fill: none; stroke-dasharray: 7.4,3.2; stroke-dashoffset: 0; stroke: #000000; stroke-width: 2"/>
   </g>
   <g id="line2d_31">
    <path d="M 259.724211 597.2 
L 259.724211 15.8 
" clip-path="url(#p141840b72a)" style="fill: none; stroke-dasharray: 7.4,3.2; stroke-dashoffset: 0; stroke: #000000; stroke-width: 2"/>
   </g>
   <g id="patch_3">
    <path d="M 52.05 597.2 
L 52.05 15.8 
" style="fill: none; stroke: #000000; stroke-width: 0.8; stroke-linejoin: miter; stroke-linecap: square"/>
   </g>
   <g id="patch_4">
    <path d="M 948.825 597.2 
L 948.825 15.8 
" style="fill: none; stroke: #000000; stroke-width: 0.8; stroke-linejoin: miter; stroke-linecap: square"/>
   </g>
   <g id="patch_5">
    <path d="M 52.05 597.2 
L 948.825 597.2 
" style="fill: none; stroke: #000000; stroke-width: 0.8; stroke-linejoin: miter; stroke-linecap: square"/>
   </g>
   <g id="patch_6">
    <path d="M 52.05 15.8 
L 948.825 15.8 
" style="fill: none; stroke: #000000; stroke-width: 0.8; stroke-linejoin: miter; stroke-linecap: square"/>
   </g>
   <g id="legend_1">
    <g id="patch_7">
     <path d="M 60.45 91.535 
L 236.375625 91.535 
Q 238.775625 91.535 238.775625 89.135 
L 238.775625 24.2 
Q 238.775625 21.8 236.375625 21.8 
L 60.45 21.8 
Q 58.05 21.8 58.05 24.2 
L 58.05 89.135 
Q 58.05 91.535 60.45 91.535 
z
" style="fill: #ffffff; opacity: 0.8; stroke: #cccccc; stroke-linejoin: miter"/>
    </g>
    <g id="patch_8">
     <path d="M 62.85 35 
L 86.85 35 
L 86.85 26.6 
L 62.85 26.6 
z
" style="fill: #87ceeb; fill-opacity: 0.6; stroke: #87ceeb; stroke-opacity: 0.6; stroke-linejoin: miter"/>
    </g>
    <g id="text_17">
     <!-- Development Costs per Unit -->
     <g transform="translate(96.45 35) scale(0.12 -0.12)">
      <defs>
       <path id="Calibri-76" d="M 2784 2897 
Q 2784 2884 2782 2870 
Q 2781 2856 2778 2840 
Q 2775 2825 2770 2806 
Q 2766 2788 2759 2766 
L 1800 94 
Q 1788 59 1767 37 
Q 1747 16 1706 3 
Q 1666 -9 1603 -14 
Q 1541 -19 1447 -19 
Q 1353 -19 1290 -12 
Q 1228 -6 1189 6 
Q 1150 19 1128 41 
Q 1106 63 1094 94 
L 138 2766 
Q 125 2803 117 2831 
Q 109 2859 107 2873 
Q 106 2888 106 2897 
Q 106 2922 118 2940 
Q 131 2959 161 2970 
Q 191 2981 239 2984 
Q 288 2988 359 2988 
Q 450 2988 504 2983 
Q 559 2978 589 2965 
Q 619 2953 633 2934 
Q 647 2916 659 2888 
L 1453 569 
L 1466 531 
L 1475 569 
L 2259 2888 
Q 2266 2916 2281 2934 
Q 2297 2953 2326 2965 
Q 2356 2978 2407 2983 
Q 2459 2988 2544 2988 
Q 2616 2988 2662 2984 
Q 2709 2981 2736 2968 
Q 2763 2956 2773 2939 
Q 2784 2922 2784 2897 
z
" transform="scale(0.015625)"/>
      </defs>
      <use xlink:href="#Calibri-44"/>
      <use xlink:href="#Calibri-65" x="61.523438"/>
      <use xlink:href="#Calibri-76" x="111.279297"/>
      <use xlink:href="#Calibri-65" x="156.445312"/>
      <use xlink:href="#Calibri-6c" x="206.201172"/>
      <use xlink:href="#Calibri-6f" x="229.150391"/>
      <use xlink:href="#Calibri-70" x="281.884766"/>
      <use xlink:href="#Calibri-6d" x="334.423828"/>
      <use xlink:href="#Calibri-65" x="414.306641"/>
      <use xlink:href="#Calibri-6e" x="464.0625"/>
      <use xlink:href="#Calibri-74" x="516.601562"/>
      <use xlink:href="#Calibri-20" x="550.097656"/>
      <use xlink:href="#Calibri-43" x="572.705078"/>
      <use xlink:href="#Calibri-6f" x="626.025391"/>
      <use xlink:href="#Calibri-73" x="678.759766"/>
      <use xlink:href="#Calibri-74" x="717.871094"/>
      <use xlink:href="#Calibri-73" x="751.367188"/>
      <use xlink:href="#Calibri-20" x="790.478516"/>
      <use xlink:href="#Calibri-70" x="813.085938"/>
      <use xlink:href="#Calibri-65" x="865.625"/>
      <use xlink:href="#Calibri-72" x="915.380859"/>
      <use xlink:href="#Calibri-20" x="950.244141"/>
      <use xlink:href="#Calibri-55" x="972.851562"/>
      <use xlink:href="#Calibri-6e" x="1037.011719"/>
      <use xlink:href="#Calibri-69" x="1089.550781"/>
      <use xlink:href="#Calibri-74" x="1112.5"/>
     </g>
    </g>
    <g id="patch_9">
     <path d="M 62.85 51.53375 
L 86.85 51.53375 
L 86.85 43.13375 
L 62.85 43.13375 
z
" style="fill: #90ee90; fill-opacity: 0.6; stroke: #90ee90; stroke-opacity: 0.6; stroke-linejoin: miter"/>
    </g>
    <g id="text_18">
     <!-- Fixed Costs per Unit -->
     <g transform="translate(96.45 51.53375) scale(0.12 -0.12)">
      <defs>
       <path id="Calibri-46" d="M 2663 3813 
Q 2663 3753 2656 3709 
Q 2650 3666 2634 3639 
Q 2619 3613 2598 3600 
Q 2578 3588 2556 3588 
L 1075 3588 
L 1075 2213 
L 2475 2213 
Q 2497 2213 2517 2202 
Q 2538 2191 2553 2166 
Q 2569 2141 2575 2098 
Q 2581 2056 2581 1991 
Q 2581 1931 2575 1889 
Q 2569 1847 2553 1820 
Q 2538 1794 2517 1780 
Q 2497 1766 2475 1766 
L 1075 1766 
L 1075 81 
Q 1075 59 1062 39 
Q 1050 19 1019 8 
Q 988 -3 938 -11 
Q 888 -19 806 -19 
Q 731 -19 678 -11 
Q 625 -3 594 8 
Q 563 19 550 39 
Q 538 59 538 81 
L 538 3825 
Q 538 3947 602 3995 
Q 666 4044 738 4044 
L 2556 4044 
Q 2578 4044 2598 4031 
Q 2619 4019 2634 3991 
Q 2650 3963 2656 3917 
Q 2663 3872 2663 3813 
z
" transform="scale(0.015625)"/>
       <path id="Calibri-78" d="M 2609 138 
Q 2634 94 2634 64 
Q 2634 34 2604 15 
Q 2575 -3 2514 -11 
Q 2453 -19 2356 -19 
Q 2263 -19 2208 -14 
Q 2153 -9 2120 2 
Q 2088 13 2070 30 
Q 2053 47 2041 69 
L 1366 1184 
L 694 69 
Q 681 47 664 30 
Q 647 13 614 2 
Q 581 -9 528 -14 
Q 475 -19 388 -19 
Q 297 -19 239 -11 
Q 181 -3 154 15 
Q 128 34 129 64 
Q 131 94 159 138 
L 1034 1509 
L 206 2831 
Q 181 2875 179 2904 
Q 178 2934 208 2954 
Q 238 2975 298 2981 
Q 359 2988 459 2988 
Q 550 2988 604 2983 
Q 659 2978 690 2968 
Q 722 2959 737 2943 
Q 753 2928 766 2906 
L 1406 1859 
L 2056 2906 
Q 2069 2925 2084 2940 
Q 2100 2956 2126 2967 
Q 2153 2978 2201 2983 
Q 2250 2988 2334 2988 
Q 2425 2988 2483 2981 
Q 2541 2975 2569 2958 
Q 2597 2941 2594 2909 
Q 2591 2878 2563 2831 
L 1741 1525 
L 2609 138 
z
" transform="scale(0.015625)"/>
      </defs>
      <use xlink:href="#Calibri-46"/>
      <use xlink:href="#Calibri-69" x="45.947266"/>
      <use xlink:href="#Calibri-78" x="68.896484"/>
      <use xlink:href="#Calibri-65" x="112.207031"/>
      <use xlink:href="#Calibri-64" x="161.962891"/>
      <use xlink:href="#Calibri-20" x="214.501953"/>
      <use xlink:href="#Calibri-43" x="237.109375"/>
      <use xlink:href="#Calibri-6f" x="290.429688"/>
      <use xlink:href="#Calibri-73" x="343.164062"/>
      <use xlink:href="#Calibri-74" x="382.275391"/>
      <use xlink:href="#Calibri-73" x="415.771484"/>
      <use xlink:href="#Calibri-20" x="454.882812"/>
      <use xlink:href="#Calibri-70" x="477.490234"/>
      <use xlink:href="#Calibri-65" x="530.029297"/>
      <use xlink:href="#Calibri-72" x="579.785156"/>
      <use xlink:href="#Calibri-20" x="614.648438"/>
      <use xlink:href="#Calibri-55" x="637.255859"/>
      <use xlink:href="#Calibri-6e" x="701.416016"/>
      <use xlink:href="#Calibri-69" x="753.955078"/>
      <use xlink:href="#Calibri-74" x="776.904297"/>
     </g>
    </g>
    <g id="line2d_32">
     <path d="M 62.85 63.8675 
L 74.85 63.8675 
L 86.85 63.8675 
" style="fill: none; stroke: #0000ff; stroke-width: 2; stroke-linecap: square"/>
    </g>
    <g id="text_19">
     <!-- Total Unit Cost -->
     <g transform="translate(96.45 68.0675) scale(0.12 -0.12)">
      <defs>
       <path id="Calibri-54" d="M 3072 3813 
Q 3072 3753 3065 3709 
Q 3059 3666 3045 3639 
Q 3031 3613 3011 3600 
Q 2991 3588 2966 3588 
L 1828 3588 
L 1828 81 
Q 1828 56 1815 37 
Q 1803 19 1772 8 
Q 1741 -3 1689 -11 
Q 1638 -19 1559 -19 
Q 1484 -19 1431 -11 
Q 1378 -3 1347 8 
Q 1316 19 1303 37 
Q 1291 56 1291 81 
L 1291 3588 
L 153 3588 
Q 128 3588 108 3600 
Q 88 3613 75 3639 
Q 63 3666 55 3709 
Q 47 3753 47 3813 
Q 47 3872 55 3917 
Q 63 3963 75 3991 
Q 88 4019 108 4031 
Q 128 4044 153 4044 
L 2966 4044 
Q 2991 4044 3011 4031 
Q 3031 4019 3045 3991 
Q 3059 3963 3065 3917 
Q 3072 3872 3072 3813 
z
" transform="scale(0.015625)"/>
       <path id="Calibri-61" d="M 2597 75 
Q 2597 38 2572 19 
Q 2547 0 2503 -9 
Q 2459 -19 2375 -19 
Q 2294 -19 2245 -9 
Q 2197 0 2175 19 
Q 2153 38 2153 75 
L 2153 356 
Q 1969 159 1742 50 
Q 1516 -59 1263 -59 
Q 1041 -59 861 -1 
Q 681 56 554 165 
Q 428 275 358 434 
Q 288 594 288 797 
Q 288 1034 384 1209 
Q 481 1384 662 1500 
Q 844 1616 1106 1673 
Q 1369 1731 1697 1731 
L 2084 1731 
L 2084 1950 
Q 2084 2113 2050 2238 
Q 2016 2363 1939 2445 
Q 1863 2528 1741 2570 
Q 1619 2613 1441 2613 
Q 1250 2613 1098 2567 
Q 947 2522 833 2467 
Q 719 2413 642 2367 
Q 566 2322 528 2322 
Q 503 2322 484 2334 
Q 466 2347 452 2372 
Q 438 2397 431 2436 
Q 425 2475 425 2522 
Q 425 2600 436 2645 
Q 447 2691 489 2731 
Q 531 2772 634 2826 
Q 738 2881 872 2926 
Q 1006 2972 1165 3001 
Q 1325 3031 1488 3031 
Q 1791 3031 2003 2962 
Q 2216 2894 2347 2761 
Q 2478 2628 2537 2431 
Q 2597 2234 2597 1972 
L 2597 75 
z
M 2084 1359 
L 1644 1359 
Q 1431 1359 1275 1323 
Q 1119 1288 1016 1217 
Q 913 1147 864 1048 
Q 816 950 816 822 
Q 816 603 955 473 
Q 1094 344 1344 344 
Q 1547 344 1720 447 
Q 1894 550 2084 763 
L 2084 1359 
z
" transform="scale(0.015625)"/>
      </defs>
      <use xlink:href="#Calibri-54"/>
      <use xlink:href="#Calibri-6f" x="48.730469"/>
      <use xlink:href="#Calibri-74" x="101.464844"/>
      <use xlink:href="#Calibri-61" x="134.960938"/>
      <use xlink:href="#Calibri-6c" x="182.861328"/>
      <use xlink:href="#Calibri-20" x="205.810547"/>
      <use xlink:href="#Calibri-55" x="228.417969"/>
      <use xlink:href="#Calibri-6e" x="292.578125"/>
      <use xlink:href="#Calibri-69" x="345.117188"/>
      <use xlink:href="#Calibri-74" x="368.066406"/>
      <use xlink:href="#Calibri-20" x="401.5625"/>
      <use xlink:href="#Calibri-43" x="424.169922"/>
      <use xlink:href="#Calibri-6f" x="477.490234"/>
      <use xlink:href="#Calibri-73" x="530.224609"/>
      <use xlink:href="#Calibri-74" x="569.335938"/>
     </g>
    </g>
    <g id="line2d_33">
     <path d="M 62.85 80.40125 
L 74.85 80.40125 
L 86.85 80.40125 
" style="fill: none; stroke: #ff0000; stroke-width: 2; stroke-linecap: square"/>
    </g>
    <g id="text_20">
     <!-- Development Cost -->
     <g transform="translate(96.45 84.60125) scale(0.12 -0.12)">
      <use xlink:href="#Calibri-44"/>
      <use xlink:href="#Calibri-65" x="61.523438"/>
      <use xlink:href="#Calibri-76" x="111.279297"/>
      <use xlink:href="#Calibri-65" x="156.445312"/>
      <use xlink:href="#Calibri-6c" x="206.201172"/>
      <use xlink:href="#Calibri-6f" x="229.150391"/>
      <use xlink:href="#Calibri-70" x="281.884766"/>
      <use xlink:href="#Calibri-6d" x="334.423828"/>
      <use xlink:href="#Calibri-65" x="414.306641"/>
      <use xlink:href="#Calibri-6e" x="464.0625"/>
      <use xlink:href="#Calibri-74" x="516.601562"/>
      <use xlink:href="#Calibri-20" x="550.097656"/>
      <use xlink:href="#Calibri-43" x="572.705078"/>
      <use xlink:href="#Calibri-6f" x="626.025391"/>
      <use xlink:href="#Calibri-73" x="678.759766"/>
      <use xlink:href="#Calibri-74" x="717.871094"/>
     </g>
    </g>
   </g>
  </g>
  <g id="axes_2">
   <g id="matplotlib.axis_3">
    <g id="ytick_10">
     <g id="line2d_34">
      <defs>
       <path id="mb16cb92f44" d="M 0 0 
L 3.5 0 
" style="stroke: #000000; stroke-width: 0.8"/>
      </defs>
      <g>
       <use xlink:href="#mb16cb92f44" x="948.825" y="597.2" style="stroke: #000000; stroke-width: 0.8"/>
      </g>
     </g>
     <g id="text_21">
      <!-- 0 -->
      <g style="fill: #ff0000" transform="translate(955.825 601.961094) scale(0.14 -0.14)">
       <use xlink:href="#Calibri-30"/>
      </g>
     </g>
    </g>
    <g id="ytick_11">
     <g id="line2d_35">
      <g>
       <use xlink:href="#mb16cb92f44" x="948.825" y="514.142857" style="stroke: #000000; stroke-width: 0.8"/>
      </g>
     </g>
     <g id="text_22">
      <!-- 50 -->
      <g style="fill: #ff0000" transform="translate(955.825 518.903951) scale(0.14 -0.14)">
       <use xlink:href="#Calibri-35"/>
       <use xlink:href="#Calibri-30" x="50.683594"/>
      </g>
     </g>
    </g>
    <g id="ytick_12">
     <g id="line2d_36">
      <g>
       <use xlink:href="#mb16cb92f44" x="948.825" y="431.085714" style="stroke: #000000; stroke-width: 0.8"/>
      </g>
     </g>
     <g id="text_23">
      <!-- 100 -->
      <g style="fill: #ff0000" transform="translate(955.825 435.846808) scale(0.14 -0.14)">
       <use xlink:href="#Calibri-31"/>
       <use xlink:href="#Calibri-30" x="50.683594"/>
       <use xlink:href="#Calibri-30" x="101.367188"/>
      </g>
     </g>
    </g>
    <g id="ytick_13">
     <g id="line2d_37">
      <g>
       <use xlink:href="#mb16cb92f44" x="948.825" y="348.028571" style="stroke: #000000; stroke-width: 0.8"/>
      </g>
     </g>
     <g id="text_24">
      <!-- 150 -->
      <g style="fill: #ff0000" transform="translate(955.825 352.789665) scale(0.14 -0.14)">
       <use xlink:href="#Calibri-31"/>
       <use xlink:href="#Calibri-35" x="50.683594"/>
       <use xlink:href="#Calibri-30" x="101.367188"/>
      </g>
     </g>
    </g>
    <g id="ytick_14">
     <g id="line2d_38">
      <g>
       <use xlink:href="#mb16cb92f44" x="948.825" y="264.971429" style="stroke: #000000; stroke-width: 0.8"/>
      </g>
     </g>
     <g id="text_25">
      <!-- 200 -->
      <g style="fill: #ff0000" transform="translate(955.825 269.732522) scale(0.14 -0.14)">
       <use xlink:href="#Calibri-32"/>
       <use xlink:href="#Calibri-30" x="50.683594"/>
       <use xlink:href="#Calibri-30" x="101.367188"/>
      </g>
     </g>
    </g>
    <g id="ytick_15">
     <g id="line2d_39">
      <g>
       <use xlink:href="#mb16cb92f44" x="948.825" y="181.914286" style="stroke: #000000; stroke-width: 0.8"/>
      </g>
     </g>
     <g id="text_26">
      <!-- 250 -->
      <g style="fill: #ff0000" transform="translate(955.825 186.675379) scale(0.14 -0.14)">
       <use xlink:href="#Calibri-32"/>
       <use xlink:href="#Calibri-35" x="50.683594"/>
       <use xlink:href="#Calibri-30" x="101.367188"/>
      </g>
     </g>
    </g>
    <g id="ytick_16">
     <g id="line2d_40">
      <g>
       <use xlink:href="#mb16cb92f44" x="948.825" y="98.857143" style="stroke: #000000; stroke-width: 0.8"/>
      </g>
     </g>
     <g id="text_27">
      <!-- 300 -->
      <g style="fill: #ff0000" transform="translate(955.825 103.618237) scale(0.14 -0.14)">
       <use xlink:href="#Calibri-33"/>
       <use xlink:href="#Calibri-30" x="50.683594"/>
       <use xlink:href="#Calibri-30" x="101.367188"/>
      </g>
     </g>
    </g>
    <g id="ytick_17">
     <g id="line2d_41">
      <g>
       <use xlink:href="#mb16cb92f44" x="948.825" y="15.8" style="stroke: #000000; stroke-width: 0.8"/>
      </g>
     </g>
     <g id="text_28">
      <!-- 350 -->
      <g style="fill: #ff0000" transform="translate(955.825 20.561094) scale(0.14 -0.14)">
       <use xlink:href="#Calibri-33"/>
       <use xlink:href="#Calibri-35" x="50.683594"/>
       <use xlink:href="#Calibri-30" x="101.367188"/>
      </g>
     </g>
    </g>
    <g id="text_29">
     <!-- Development Cost [Million USD] -->
     <g style="fill: #ff0000" transform="translate(993.41 424.598281) rotate(-90) scale(0.18 -0.18)">
      <use xlink:href="#Calibri-44"/>
      <use xlink:href="#Calibri-65" x="61.523438"/>
      <use xlink:href="#Calibri-76" x="111.279297"/>
      <use xlink:href="#Calibri-65" x="156.445312"/>
      <use xlink:href="#Calibri-6c" x="206.201172"/>
      <use xlink:href="#Calibri-6f" x="229.150391"/>
      <use xlink:href="#Calibri-70" x="281.884766"/>
      <use xlink:href="#Calibri-6d" x="334.423828"/>
      <use xlink:href="#Calibri-65" x="414.306641"/>
      <use xlink:href="#Calibri-6e" x="464.0625"/>
      <use xlink:href="#Calibri-74" x="516.601562"/>
      <use xlink:href="#Calibri-20" x="550.097656"/>
      <use xlink:href="#Calibri-43" x="572.705078"/>
      <use xlink:href="#Calibri-6f" x="626.025391"/>
      <use xlink:href="#Calibri-73" x="678.759766"/>
      <use xlink:href="#Calibri-74" x="717.871094"/>
      <use xlink:href="#Calibri-20" x="751.367188"/>
      <use xlink:href="#Calibri-5b" x="773.974609"/>
      <use xlink:href="#Calibri-4d" x="804.638672"/>
      <use xlink:href="#Calibri-69" x="890.136719"/>
      <use xlink:href="#Calibri-6c" x="913.085938"/>
      <use xlink:href="#Calibri-6c" x="936.035156"/>
      <use xlink:href="#Calibri-69" x="958.984375"/>
      <use xlink:href="#Calibri-6f" x="981.933594"/>
      <use xlink:href="#Calibri-6e" x="1034.667969"/>
      <use xlink:href="#Calibri-20" x="1087.207031"/>
      <use xlink:href="#Calibri-55" x="1109.814453"/>
      <use xlink:href="#Calibri-53" x="1173.974609"/>
      <use xlink:href="#Calibri-44" x="1219.921875"/>
      <use xlink:href="#Calibri-5d" x="1281.445312"/>
     </g>
    </g>
   </g>
   <g id="line2d_42">
    <path d="M 52.05 290.6303 
L 61.489737 282.920678 
L 70.929474 276.194487 
L 80.369211 270.477263 
L 89.808947 265.039615 
L 99.248684 260.073032 
L 108.688421 255.707321 
L 118.128158 251.437563 
L 127.567895 247.447963 
L 137.007632 243.877961 
L 146.447368 240.330049 
L 155.887105 236.969507 
L 165.326842 233.929087 
L 174.766579 230.875807 
L 184.206316 227.957453 
L 193.646053 225.297329 
L 203.085789 222.606239 
L 212.525526 220.017386 
L 221.965263 217.644892 
L 231.405 215.231609 
L 240.844737 212.89873 
L 250.284474 210.752149 
L 259.724211 208.559386 
L 269.163947 206.431675 
L 278.603684 204.467704 
L 288.043421 202.454669 
L 297.483158 200.495459 
L 306.922895 198.68247 
L 316.362632 196.819025 
L 325.802368 195.000927 
L 335.242105 193.315063 
L 344.681842 191.578265 
L 354.121579 189.880246 
L 363.561316 188.303046 
L 373.001053 186.674997 
L 382.440789 185.080532 
L 391.880526 183.597394 
L 401.320263 182.063848 
L 410.76 180.559697 
L 420.199737 179.15886 
L 429.639474 177.708279 
L 439.079211 176.283666 
L 448.518947 174.955506 
L 457.958684 173.578405 
L 467.398421 172.224427 
L 476.838158 170.960971 
L 486.277895 169.649452 
L 495.717632 168.358669 
L 505.157368 167.153217 
L 514.597105 165.900629 
L 524.036842 164.666756 
L 533.476579 163.513634 
L 542.916316 162.314322 
L 552.356053 161.131988 
L 561.795789 160.026345 
L 571.235526 158.87545 
L 580.675263 157.740041 
L 590.115 156.677685 
L 599.554737 155.57101 
L 608.994474 154.478523 
L 618.434211 153.455814 
L 627.873947 152.389702 
L 637.313684 151.336637 
L 646.753421 150.350389 
L 656.193158 149.321631 
L 665.632895 148.304919 
L 675.072632 147.352328 
L 684.512368 146.358091 
L 693.952105 145.375018 
L 703.391842 144.453601 
L 712.831579 143.49138 
L 722.271316 142.539532 
L 731.711053 141.647082 
L 741.150789 140.714639 
L 750.590526 139.791862 
L 760.030263 138.926402 
L 769.47 138.021735 
L 778.909737 137.126102 
L 788.349474 136.285861 
L 797.789211 135.407169 
L 807.228947 134.536938 
L 816.668684 133.720317 
L 826.108421 132.865976 
L 835.548158 132.019579 
L 844.987895 131.225134 
L 854.427632 130.393671 
L 863.867368 129.569683 
L 873.307105 128.7961 
L 882.746842 127.986177 
L 892.186579 127.1833 
L 901.626316 126.429383 
L 911.066053 125.639781 
L 920.505789 124.856834 
L 929.945526 124.121491 
L 939.385263 123.351095 
L 948.825 122.586992 
" clip-path="url(#p141840b72a)" style="fill: none; stroke: #ff0000; stroke-width: 2; stroke-linecap: square"/>
   </g>
   <g id="line2d_43">
    <path d="M 52.05 264.971429 
L 948.825 264.971429 
" clip-path="url(#p141840b72a)" style="fill: none; stroke-dasharray: 7.4,3.2; stroke-dashoffset: 0; stroke: #ff0000; stroke-width: 2"/>
   </g>
   <g id="patch_10">
    <path d="M 52.05 597.2 
L 52.05 15.8 
" style="fill: none; stroke: #000000; stroke-width: 0.8; stroke-linejoin: miter; stroke-linecap: square"/>
   </g>
   <g id="patch_11">
    <path d="M 948.825 597.2 
L 948.825 15.8 
" style="fill: none; stroke: #000000; stroke-width: 0.8; stroke-linejoin: miter; stroke-linecap: square"/>
   </g>
   <g id="patch_12">
    <path d="M 52.05 597.2 
L 948.825 597.2 
" style="fill: none; stroke: #000000; stroke-width: 0.8; stroke-linejoin: miter; stroke-linecap: square"/>
   </g>
   <g id="patch_13">
    <path d="M 52.05 15.8 
L 948.825 15.8 
" style="fill: none; stroke: #000000; stroke-width: 0.8; stroke-linejoin: miter; stroke-linecap: square"/>
   </g>
  </g>
 </g>
 <defs>
  <clipPath id="p141840b72a">
   <rect x="52.05" y="15.8" width="896.775" height="581.4"/>
  </clipPath>
 </defs>
</svg>
